SplineFontDB: 3.0
FontName: Scada-Bold
FullName: Scada Bold
FamilyName: Scada
Weight: Bold
Copyright: Copyright 2012 The Scada Project Authors \\(lemonad@jovanny.ru\\)
Version: 001.001
ItalicAngle: 0
UnderlinePosition: -150
UnderlineWidth: 50
Ascent: 800
Descent: 200
InvalidEm: 0
sfntRevision: 0x00040000
LayerCount: 2
Layer: 0 0 "Back" 1
Layer: 1 0 "Fore" 0
XUID: [1021 1017 285194369 30222]
StyleMap: 0x0020
FSType: 0
OS2Version: 3
OS2_WeightWidthSlopeOnly: 0
OS2_UseTypoMetrics: 0
CreationTime: 1481797557
ModificationTime: 1487943250
PfmFamily: 81
TTFWeight: 700
TTFWidth: 5
LineGap: 0
VLineGap: 0
Panose: 0 0 8 0 0 0 0 0 0 0
OS2TypoAscent: 955
OS2TypoAOffset: 0
OS2TypoDescent: -289
OS2TypoDOffset: 0
OS2TypoLinegap: 0
OS2WinAscent: 955
OS2WinAOffset: 0
OS2WinDescent: 289
OS2WinDOffset: 0
HheadAscent: 955
HheadAOffset: 0
HheadDescent: -289
HheadDOffset: 0
OS2SubXSize: 650
OS2SubYSize: 600
OS2SubXOff: 0
OS2SubYOff: 75
OS2SupXSize: 650
OS2SupYSize: 600
OS2SupXOff: 0
OS2SupYOff: 350
OS2StrikeYSize: 50
OS2StrikeYPos: 300
OS2CapHeight: 700
OS2XHeight: 500
OS2Vendor: 'PYRS'
OS2CodePages: 20000097.00000000
OS2UnicodeRanges: 00000207.00000000.00000000.00000000
Lookup: 1 0 0 "'aalt' Access All Alternates lookup 0" { "'aalt' Access All Alternates lookup 0 subtable"  } ['aalt' ('DFLT' <'dflt' > 'cyrl' <'BGR ' 'dflt' > 'latn' <'CAT ' 'MOL ' 'ROM ' 'dflt' > ) ]
Lookup: 1 0 0 "'ss01' Style Set 1 lookup 24" { "'ss01' Style Set 1 lookup 24-1" ("loclBGR") } ['ss01' ('DFLT' <'dflt' > 'cyrl' <'BGR ' 'MKD ' 'SRB ' 'dflt' > 'latn' <'CAT ' 'MOL ' 'ROM ' 'dflt' > ) ]
Lookup: 1 0 0 "'ss02' Style Set 2 lookup 25" { "'ss02' Style Set 2 lookup 25-1" ("loclSRB") } ['ss02' ('DFLT' <'dflt' > 'cyrl' <'BGR ' 'MKD ' 'SRB ' 'dflt' > 'latn' <'CAT ' 'MOL ' 'ROM ' 'dflt' > ) ]
Lookup: 1 0 0 "'ss03' Style Set 3 lookup 26" { "'ss03' Style Set 3 lookup 26-1" ("loclSRB") } ['ss03' ('DFLT' <'dflt' > 'cyrl' <'BGR ' 'MKD ' 'SRB ' 'dflt' > 'latn' <'CAT ' 'MOL ' 'ROM ' 'dflt' > ) ]

StartChar: exclam
Encoding: 33 33 4
Width: 290
Flags: MW
HStem: -10 150<125 165> 680 20G<65 225 225 225>
VStem: 70 150<45 85> 75 140
LayerCount: 2
Fore
SplineSet
85 200 m 1xd0
 65 700 l 1
 225 700 l 1
 205 200 l 1
 85 200 l 1xd0
145 -10 m 0xe0
 105 -10 70 25 70 65 c 0
 70 105 105 140 145 140 c 0
 185 140 220 105 220 65 c 0
 220 25 185 -10 145 -10 c 0xe0
EndSplineSet
EndChar

StartChar: quotedbl
Encoding: 34 34 5
Width: 380
Flags: MW
HStem: 455 245<60 60 60 145 235 320 235 235>
VStem: 35 310<700 700>
LayerCount: 2
Fore
SplineSet
60 455 m 1
 35 700 l 1
 170 700 l 1
 145 455 l 1
 60 455 l 1
235 455 m 1
 210 700 l 1
 345 700 l 1
 320 455 l 1
 235 455 l 1
EndSplineSet
EndChar

StartChar: numbersign
Encoding: 35 35 6
Width: 667
Flags: MW
HStem: 0 21G<62 62 62 192 292 292 292 422> 170 90<15 107 15 132 262 337 492 595> 440 90<72 177 72 197 327 407 557 652> 680 20G<242 372 372 372 472 602 602 602>
VStem: 15 637<170 530 260 530>
LayerCount: 2
Fore
SplineSet
62 0 m 1
 107 170 l 1
 15 170 l 1
 15 260 l 1
 132 260 l 1
 177 440 l 1
 72 440 l 1
 72 530 l 1
 197 530 l 1
 242 700 l 1
 372 700 l 1
 327 530 l 1
 427 530 l 1
 472 700 l 1
 602 700 l 1
 557 530 l 1
 652 530 l 1
 652 440 l 1
 537 440 l 1
 492 260 l 1
 595 260 l 1
 595 170 l 1
 467 170 l 1
 422 0 l 1
 292 0 l 1
 337 170 l 1
 237 170 l 1
 192 0 l 1
 62 0 l 1
262 260 m 1
 362 260 l 1
 407 440 l 1
 307 440 l 1
 262 260 l 1
EndSplineSet
EndChar

StartChar: dollar
Encoding: 36 36 7
Width: 535
Flags: MW
HStem: -70 150<195 280 213.5 280 213.5 330> -5 85<195 280> 0 21G<330 330> 620 85<255 330> 620 150<255 308.5> 680 20G<195 195> 685 20G<330 330>
VStem: 40 140<460.5 552.5 460.5 562> 195 135<-70 -5 -5 -5 705 770> 360 140<150 249.5>
LayerCount: 2
Fore
SplineSet
195 -70 m 1x00
 195 -5 l 1x45c0
 139 0 101 13 74 24 c 0
 59 31 46 38 35 45 c 1
 80 125 l 1
 90 125 l 1
 100 116 112 109 126 102 c 0
 150 91 187 80 240 80 c 0
 320 80 360 120 360 180 c 0
 360 319 40 295 40 520 c 0x2480
 40 604 95 675 195 700 c 1x2880
 195 770 l 1
 330 770 l 1x2280
 330 705 l 1x31c0
 381 700 417 687 442 676 c 0
 457 669 469 662 480 655 c 1
 435 575 l 1
 425 575 l 1
 416 583 404 590 391 597 c 0
 368 608 332 620 285 620 c 0
 225 620 180 575 180 530 c 0
 180 391 500 415 500 190 c 0x2280
 500 94 441 25 330 0 c 1x8280
 330 -70 l 1
 195 -70 l 1x00
EndSplineSet
EndChar

StartChar: percent
Encoding: 37 37 8
Width: 850
Flags: MW
HStem: -10 80<639.5 669.5 639.5 705> 0 21G<115 115 115 265> 270 80<639.5 669.5> 350 80<179.5 209.5 179.5 245> 630 80<179.5 209.5> 680 20G<585 735 735 735>
VStem: 20 120<492.5 567.5 492.5 582> 250 120<492.5 567.5> 480 120<132.5 207.5 132.5 222> 710 120<132.5 207.5>
LayerCount: 2
Fore
SplineSet
195 350 m 0x9bc0
 95 350 20 426 20 530 c 0
 20 634 95 710 195 710 c 0
 295 710 370 634 370 530 c 0
 370 426 295 350 195 350 c 0x9bc0
115 0 m 1x57c0
 585 700 l 1
 735 700 l 1
 265 0 l 1
 115 0 l 1x57c0
195 430 m 0
 224 430 250 455 250 530 c 0
 250 605 224 630 195 630 c 0x9bc0
 164 630 140 605 140 530 c 0
 140 455 164 430 195 430 c 0
655 -10 m 0xabc0
 555 -10 480 66 480 170 c 0
 480 274 555 350 655 350 c 0
 755 350 830 274 830 170 c 0
 830 66 755 -10 655 -10 c 0xabc0
655 70 m 0
 684 70 710 95 710 170 c 0
 710 245 684 270 655 270 c 0
 624 270 600 245 600 170 c 0
 600 95 624 70 655 70 c 0
EndSplineSet
EndChar

StartChar: ampersand
Encoding: 38 38 9
Width: 645
Flags: MW
HStem: -10 90<237.5 278.5> 0 21G<480 640 480 480> 0 135<530 530 530 640 480 530> 0 320<480 590 460 640 480 480> 625 85<259.5 287.5>
VStem: 20 140<152 198.5 152 212.5> 80 140<538.5 575.5 538.5 595> 325 140<544.5 580> 460 130<307.5 320>
LayerCount: 2
Fore
SplineSet
250 -10 m 0x8d
 105 -10 20 75 20 180 c 0
 20 245 56 294 95 329 c 0x8d
 117 349 142 366 170 380 c 1
 153 394 138 410 125 427 c 0
 102 458 80 499 80 550 c 0
 80 640 150 710 275 710 c 0
 395 710 465 640 465 560 c 0
 465 504 432 458 397 426 c 0x8b
 377 407 354 390 329 375 c 1
 455 225 l 1
 457 254 l 2
 458 271 460 295 460 320 c 1
 590 320 l 1x1c80
 590 235 565 180 530 135 c 1x2c80
 640 0 l 1x4c80
 480 0 l 1
 440 50 l 1x4d
 425 39 407 29 388 20 c 0
 355 5 307 -10 250 -10 c 0x8d
265 450 m 1x8b
 276 459 286 470 295 482 c 0
 310 502 325 529 325 560 c 0
 325 600 300 625 275 625 c 0
 244 625 220 601 220 550 c 0
 220 527 231 502 242 483 c 0
 249 472 256 461 265 450 c 1x8b
270 80 m 0
 307 80 337 88 356 97 c 0
 367 102 377 108 385 115 c 1
 230 300 l 1
 217 291 205 280 195 268 c 0
 176 247 160 217 160 180 c 0x8d
 160 124 205 80 270 80 c 0
EndSplineSet
EndChar

StartChar: quotesingle
Encoding: 39 39 10
Width: 205
Flags: MW
HStem: 455 245<60 60 60 145>
VStem: 35 135<700 700>
LayerCount: 2
Fore
SplineSet
60 455 m 1
 35 700 l 1
 170 700 l 1
 145 455 l 1
 60 455 l 1
EndSplineSet
EndChar

StartChar: parenleft
Encoding: 40 40 11
Width: 320
Flags: MW
HStem: -185 930<265 265>
VStem: 55 140<190 370 190 374.5>
LayerCount: 2
Fore
SplineSet
265 -185 m 1
 140 -81 55 91 55 280 c 0
 55 469 140 641 265 745 c 1
 320 690 l 1
 240 585 195 460 195 280 c 0
 195 100 240 -25 320 -130 c 1
 265 -185 l 1
EndSplineSet
EndChar

StartChar: parenright
Encoding: 41 41 12
Width: 320
Flags: MW
HStem: -185 930<55 55>
VStem: 125 140<190 370>
LayerCount: 2
Fore
SplineSet
55 -185 m 1
 0 -130 l 1
 80 -25 125 100 125 280 c 0
 125 460 80 585 0 690 c 1
 55 745 l 1
 180 641 265 469 265 280 c 0
 265 91 180 -81 55 -185 c 1
EndSplineSet
EndChar

StartChar: asterisk
Encoding: 42 42 13
Width: 440
Flags: MW
HStem: 680 20G<175 265 265 265>
VStem: 175 90<330 437 330 437 592 700>
LayerCount: 2
Fore
SplineSet
175 330 m 1
 175 437 l 1
 75 380 l 1
 30 460 l 1
 126 515 l 1
 30 570 l 1
 75 650 l 1
 175 592 l 1
 175 700 l 1
 265 700 l 1
 265 592 l 1
 365 650 l 1
 410 570 l 1
 314 515 l 1
 410 460 l 1
 365 380 l 1
 265 437 l 1
 265 330 l 1
 175 330 l 1
EndSplineSet
EndChar

StartChar: plus
Encoding: 43 43 14
Width: 490
Flags: MW
HStem: 280 100<30 195 30 195 295 460>
VStem: 195 100<115 280 115 280 380 545>
LayerCount: 2
Fore
SplineSet
195 115 m 1
 195 280 l 1
 30 280 l 1
 30 380 l 1
 195 380 l 1
 195 545 l 1
 295 545 l 1
 295 380 l 1
 460 380 l 1
 460 280 l 1
 295 280 l 1
 295 115 l 1
 195 115 l 1
EndSplineSet
EndChar

StartChar: comma
Encoding: 44 44 15
Width: 220
Flags: MW
HStem: -10 21G<90 110> -10 150<90 110>
VStem: 35 150<45 80.5 18.5 85>
LayerCount: 2
Fore
SplineSet
75 -135 m 1xa0
 45 -95 l 1
 57 -88 68 -80 77 -71 c 0
 93 -56 110 -35 110 -10 c 1
 70 -10 35 25 35 65 c 0
 35 105 70 140 105 140 c 0
 150 140 185 106 185 55 c 0x60
 185 -18 157 -65 130 -94 c 0
 113 -111 95 -125 75 -135 c 1xa0
EndSplineSet
EndChar

StartChar: hyphen
Encoding: 45 45 16
Width: 450
Flags: MW
HStem: 280 100<30 420 30 420>
VStem: 30 390<280 380 280 380>
LayerCount: 2
Fore
SplineSet
30 280 m 1
 30 380 l 1
 420 380 l 1
 420 280 l 1
 30 280 l 1
EndSplineSet
EndChar

StartChar: period
Encoding: 46 46 17
Width: 220
GlyphClass: 5
Flags: MW
HStem: -10 150<90 130>
VStem: 35 150<45 85>
LayerCount: 2
Fore
SplineSet
110 -10 m 0
 70 -10 35 25 35 65 c 0
 35 105 70 140 110 140 c 0
 150 140 185 105 185 65 c 0
 185 25 150 -10 110 -10 c 0
EndSplineSet
EndChar

StartChar: slash
Encoding: 47 47 18
Width: 450
GlyphClass: 5
Flags: MW
HStem: 0 21G<0 0 0 140> 680 20G<310 450 450 450>
VStem: 0 450
LayerCount: 2
Fore
SplineSet
0 0 m 1
 310 700 l 1
 450 700 l 1
 140 0 l 1
 0 0 l 1
EndSplineSet
EndChar

StartChar: zero
Encoding: 48 48 19
Width: 610
Flags: MW
HStem: -10 90<275 335 275 379.5> 620 90<275 335>
VStem: 50 140<242.5 457.5 242.5 477.5> 420 140<242.5 457.5>
LayerCount: 2
Fore
SplineSet
305 -10 m 0
 155 -10 50 95 50 350 c 0
 50 605 155 710 305 710 c 0
 454 710 560 605 560 350 c 0
 560 95 454 -10 305 -10 c 0
305 80 m 0
 365 80 420 135 420 350 c 0
 420 565 365 620 305 620 c 0
 245 620 190 565 190 350 c 0
 190 135 245 80 305 80 c 0
EndSplineSet
EndChar

StartChar: one
Encoding: 49 49 20
Width: 410
GlyphClass: 5
Flags: MW
HStem: 0 90<50 150 50 150 290 390> 680 20G<160 290 290 290>
VStem: 150 140<90 560 560 560>
LayerCount: 2
Fore
SplineSet
50 0 m 1
 50 90 l 1
 150 90 l 1
 150 560 l 1
 70 505 l 1
 15 580 l 1
 160 700 l 1
 290 700 l 1
 290 90 l 1
 390 90 l 1
 390 0 l 1
 50 0 l 1
EndSplineSet
Substitution2: "'sups' Superscript in Latin lookup 10 subtable" uni00B9
Substitution2: "'sups' Superscript in Latin lookup 9 subtable" uni00B9
Substitution2: "'sups' Superscript lookup 8 subtable" uni00B9
Substitution2: "'aalt' Access All Alternates lookup 0 subtable" uni00B9
EndChar

StartChar: two
Encoding: 50 50 21
Width: 515
GlyphClass: 5
Flags: MW
HStem: 0 90<160 480 160 480> 620 90<201 263>
VStem: 20 140<0 160 90 160 90 185> 340 140<440 550>
LayerCount: 2
Fore
SplineSet
20 0 m 1
 20 70 l 2
 20 300 340 360 340 520 c 0
 340 580 301 620 225 620 c 0
 177 620 142 608 119 597 c 0
 106 590 94 583 85 575 c 1
 75 575 l 1
 30 655 l 1
 45 665 62 674 82 682 c 0
 117 697 167 710 235 710 c 0
 400 710 480 630 480 510 c 0
 480 301 160 230 160 90 c 1
 480 90 l 1
 480 0 l 1
 20 0 l 1
EndSplineSet
Substitution2: "'sups' Superscript in Latin lookup 10 subtable" uni00B2
Substitution2: "'sups' Superscript in Latin lookup 9 subtable" uni00B2
Substitution2: "'sups' Superscript lookup 8 subtable" uni00B2
Substitution2: "'aalt' Access All Alternates lookup 0 subtable" uni00B2
EndChar

StartChar: three
Encoding: 51 51 22
Width: 520
GlyphClass: 5
Flags: MW
HStem: -10 90<176 250 176 304.5> 330 90<85 200 85 85> 610 90<20 295 20 455 20 455>
VStem: 345 140<162 242.5>
LayerCount: 2
Fore
SplineSet
210 -10 m 0
 142 -10 92 2 57 17 c 0
 37 25 20 34 5 45 c 1
 50 125 l 1
 60 125 l 1
 69 116 81 109 94 102 c 0
 117 91 152 80 200 80 c 0
 300 80 345 124 345 200 c 0
 345 285 300 330 200 330 c 2
 85 330 l 1
 85 420 l 1
 295 610 l 1
 20 610 l 1
 20 700 l 1
 455 700 l 1
 455 610 l 1
 235 420 l 1
 399 420 485 324 485 200 c 0
 485 75 399 -10 210 -10 c 0
EndSplineSet
Substitution2: "'sups' Superscript in Latin lookup 10 subtable" uni00B3
Substitution2: "'sups' Superscript in Latin lookup 9 subtable" uni00B3
Substitution2: "'sups' Superscript lookup 8 subtable" uni00B3
Substitution2: "'aalt' Access All Alternates lookup 0 subtable" uni00B3
EndChar

StartChar: four
Encoding: 52 52 23
Width: 560
GlyphClass: 5
Flags: MW
HStem: 0 21G<330 330 330 470> 160 90<150 330 10 10 470 540> 680 20G<340 470 470 470>
VStem: 330 140<0 160 0 160 250 460 460 467.5>
LayerCount: 2
Fore
SplineSet
330 0 m 1
 330 160 l 1
 10 160 l 1
 10 250 l 1
 340 700 l 1
 470 700 l 1
 470 250 l 1
 540 250 l 1
 540 160 l 1
 470 160 l 1
 470 0 l 1
 330 0 l 1
150 250 m 1
 330 250 l 1
 330 460 l 2
 330 475 332 489 335 501 c 0
 336 508 338 514 340 520 c 1
 336 520 l 1
 333 514 331 507 328 500 c 0
 323 488 316 473 305 460 c 2
 150 250 l 1
EndSplineSet
EndChar

StartChar: five
Encoding: 53 53 24
Width: 540
Flags: MW
HStem: -10 90<206 275 206 330> 350 90<205 230> 620 80<205 469 205 205>
VStem: 65 140<440 620 440 700 440 700> 365 140<170 260>
LayerCount: 2
Fore
SplineSet
240 -10 m 0
 172 -10 122 2 87 17 c 0
 67 25 50 34 35 45 c 1
 80 125 l 1
 90 125 l 1
 99 116 111 109 124 102 c 0
 147 91 182 80 230 80 c 0
 320 80 365 125 365 215 c 0
 365 305 320 350 230 350 c 2
 104 350 l 1
 65 391 l 1
 65 700 l 1
 469 700 l 1
 469 620 l 1
 205 620 l 1
 205 440 l 1
 245 440 l 2
 421 440 505 356 505 215 c 0
 505 75 420 -10 240 -10 c 0
EndSplineSet
EndChar

StartChar: six
Encoding: 54 54 25
Width: 560
Flags: MW
HStem: -10 90<260 315 260 365.5> 370 90<282.5 307.5> 620 90<272.5 331.5>
VStem: 45 140<230 340 177.5 430 430 500> 385 140<177.5 278>
LayerCount: 2
Fore
SplineSet
291 -10 m 0
 130 -10 45 74 45 230 c 2
 45 430 l 2
 45 610 145 710 300 710 c 0
 363 710 412 697 445 682 c 0
 464 674 481 665 496 655 c 1
 451 575 l 1
 441 575 l 1
 431 583 420 590 407 597 c 0
 384 608 353 620 310 620 c 0
 235 620 185 570 185 430 c 1
 194 435 204 440 216 445 c 0
 236 452 265 460 300 460 c 0
 441 460 525 375 525 230 c 0
 525 74 440 -10 291 -10 c 0
290 80 m 0
 340 80 385 125 385 230 c 0
 385 326 340 370 275 370 c 0
 250 370 227 362 211 355 c 2
 185 340 l 1
 185 230 l 2
 185 125 230 80 290 80 c 0
EndSplineSet
EndChar

StartChar: seven
Encoding: 55 55 26
Width: 480
Flags: MW
HStem: 0 21G<150 150 150 290> 610 90<10 330 10 470 10 470>
VStem: 150 140<0 90 0 204>
LayerCount: 2
Fore
SplineSet
150 0 m 1
 150 90 l 2
 150 318 240 502 330 610 c 1
 10 610 l 1
 10 700 l 1
 470 700 l 1
 470 610 l 1
 380 502 290 318 290 90 c 2
 290 0 l 1
 150 0 l 1
EndSplineSet
EndChar

StartChar: eight
Encoding: 56 56 27
Width: 560
Flags: MW
HStem: -10 90<242 318 242 365> 620 90<254.5 305.5>
VStem: 25 140<150 218.5> 50 140<502.5 557.5 502.5 580.5> 370 140<502.5 557.5> 395 140<150 218.5 127.5 220>
LayerCount: 2
Fore
SplineSet
280 -10 m 0xe4
 110 -10 25 75 25 180 c 0
 25 257 65 305 105 333 c 0xe4
 128 350 155 362 185 370 c 1
 160 377 137 388 117 402 c 0
 82 426 50 467 50 535 c 0
 50 626 135 710 280 710 c 0
 425 710 510 626 510 535 c 0
 510 467 477 426 442 402 c 0xd8
 422 388 400 377 375 370 c 1
 405 362 432 350 455 333 c 0
 495 305 535 257 535 180 c 0
 535 75 450 -10 280 -10 c 0xe4
280 425 m 1xd8
 335 445 370 470 370 535 c 0
 370 580 331 620 280 620 c 0
 229 620 190 580 190 535 c 0
 190 470 225 445 280 425 c 1xd8
280 80 m 0xe4
 356 80 395 120 395 180 c 0
 395 260 344 291 280 315 c 1
 216 291 165 260 165 180 c 0
 165 120 204 80 280 80 c 0xe4
EndSplineSet
EndChar

StartChar: nine
Encoding: 57 57 28
Width: 560
Flags: MW
HStem: -10 90<228.5 287.5 228.5 337.5> 240 90<252.5 277.5> 620 90<245 300>
VStem: 35 140<422 522.5 422 548> 375 140<200 270 360 470>
LayerCount: 2
Fore
SplineSet
260 -10 m 0
 196 -10 148 2 115 17 c 0
 96 25 79 34 64 45 c 1
 109 125 l 1
 119 125 l 1
 129 116 140 109 153 102 c 0
 176 91 207 80 250 80 c 0
 325 80 375 130 375 270 c 1
 366 264 356 259 344 255 c 0
 324 247 295 240 260 240 c 0
 119 240 35 325 35 470 c 0
 35 626 120 710 269 710 c 0
 430 710 515 626 515 470 c 2
 515 270 l 2
 515 90 415 -10 260 -10 c 0
285 330 m 0
 310 330 333 337 349 345 c 0
 358 349 367 354 375 360 c 1
 375 470 l 2
 375 575 330 620 270 620 c 0
 220 620 175 575 175 470 c 0
 175 374 220 330 285 330 c 0
EndSplineSet
EndChar

StartChar: colon
Encoding: 58 58 29
Width: 220
Flags: MW
HStem: -10 150<90 130> 360 150<90 130>
VStem: 35 150<45 85 415 455>
LayerCount: 2
Fore
SplineSet
110 360 m 0
 70 360 35 395 35 435 c 0
 35 475 70 510 110 510 c 0
 150 510 185 475 185 435 c 0
 185 395 150 360 110 360 c 0
110 -10 m 0
 70 -10 35 25 35 65 c 0
 35 105 70 140 110 140 c 0
 150 140 185 105 185 65 c 0
 185 25 150 -10 110 -10 c 0
EndSplineSet
EndChar

StartChar: semicolon
Encoding: 59 59 30
Width: 220
Flags: MW
HStem: -10 21G<90 110> -10 150<90 110> 360 150<90 130>
VStem: 35 150<45 80.5 18.5 85 415 455>
LayerCount: 2
Fore
SplineSet
110 360 m 0xb0
 70 360 35 395 35 435 c 0
 35 475 70 510 110 510 c 0
 150 510 185 475 185 435 c 0
 185 395 150 360 110 360 c 0xb0
75 -135 m 1
 45 -95 l 1
 57 -88 68 -80 77 -71 c 0
 93 -56 110 -35 110 -10 c 1
 70 -10 35 25 35 65 c 0
 35 105 70 140 105 140 c 0
 150 140 185 106 185 55 c 0x70
 185 -18 157 -65 130 -94 c 0
 113 -111 95 -125 75 -135 c 1
EndSplineSet
EndChar

StartChar: less
Encoding: 60 60 31
Width: 455
Flags: MW
HStem: 0 21G<420 420> 480 20G<420 420>
VStem: 20 400<0 290 0 290>
LayerCount: 2
Fore
SplineSet
420 0 m 1
 20 210 l 1
 20 290 l 1
 420 500 l 1
 420 380 l 1
 170 250 l 1
 420 120 l 1
 420 0 l 1
EndSplineSet
EndChar

StartChar: equal
Encoding: 61 61 32
Width: 510
Flags: MW
HStem: 185 100<35 475 35 475> 376 100<35 475 35 475>
VStem: 35 440<185 285 185 285 376 476 185 476>
LayerCount: 2
Fore
SplineSet
35 376 m 1
 35 476 l 1
 475 476 l 1
 475 376 l 1
 35 376 l 1
35 185 m 1
 35 285 l 1
 475 285 l 1
 475 185 l 1
 35 185 l 1
EndSplineSet
EndChar

StartChar: greater
Encoding: 62 62 33
Width: 455
Flags: MW
HStem: 0 21G<35 35> 480 20G<35 35>
VStem: 35 400<0 290 120 290 210 500 210 500>
LayerCount: 2
Fore
SplineSet
35 0 m 1
 35 120 l 1
 285 250 l 1
 35 380 l 1
 35 500 l 1
 435 290 l 1
 435 210 l 1
 35 0 l 1
EndSplineSet
EndChar

StartChar: question
Encoding: 63 63 34
Width: 490
Flags: MW
HStem: -10 150<175 215> 620 90<171 235>
VStem: 120 150<45 85> 130 130<200 230 200 315> 315 140<464.5 555.5>
LayerCount: 2
Fore
SplineSet
130 200 m 1xd8
 130 230 l 2
 130 400 315 399 315 530 c 0
 315 581 275 620 195 620 c 0
 147 620 112 608 89 597 c 0
 76 590 64 583 55 575 c 1
 45 575 l 1
 0 655 l 1
 15 665 32 674 52 682 c 0
 87 697 137 710 205 710 c 0
 376 710 455 630 455 520 c 0
 455 340 260 340 260 230 c 2
 260 200 l 1
 130 200 l 1xd8
195 -10 m 0xe8
 155 -10 120 25 120 65 c 0
 120 105 155 140 195 140 c 0
 235 140 270 105 270 65 c 0
 270 25 235 -10 195 -10 c 0xe8
EndSplineSet
EndChar

StartChar: at
Encoding: 64 64 35
Width: 960
Flags: MW
HStem: -120 90<390 508 390 508> 55 85<709.5 737.5 709.5 767.5> 55 90<455 471.5> 445 90<452.5 468.5 397.5 485> 630 90<390 570>
VStem: 40 120<205.5 394.5 205.5 420> 265 130<237.5 352.5 237.5 375> 545 130<170 400 400 400> 800 120<240 394.5>
LayerCount: 2
Fore
SplineSet
470 -120 m 0xdf80
 219 -120 40 60 40 300 c 0
 40 540 220 720 480 720 c 0
 740 720 920 540 920 300 c 0
 920 145 830 55 705 55 c 0
 660 55 627 67 606 82 c 0
 594 90 584 99 575 110 c 1
 570 110 l 1xdf80
 563 99 553 90 542 82 c 0
 523 67 493 55 450 55 c 0xbf80
 345 55 265 135 265 295 c 0
 265 455 345 535 450 535 c 0
 487 535 517 522 538 507 c 0
 550 499 561 490 570 480 c 1
 575 480 l 1
 585 525 l 1
 675 525 l 1
 675 155 l 2
 678 152 682 150 686 147 c 0
 694 142 704 140 715 140 c 0
 760 140 800 180 800 300 c 0
 800 489 660 630 480 630 c 0
 300 630 160 489 160 300 c 0
 160 111 300 -30 480 -30 c 0
 536 -30 574 -19 601 -8 c 0
 616 -1 629 6 640 15 c 1
 650 15 l 1
 695 -65 l 1
 680 -76 661 -85 639 -93 c 0
 600 -108 546 -120 470 -120 c 0xdf80
475 145 m 0xbf80
 498 145 515 150 527 157 c 0
 534 160 540 165 545 170 c 1
 545 400 l 1
 539 408 532 415 525 422 c 0
 512 433 495 445 475 445 c 0
 430 445 395 410 395 295 c 0
 395 180 435 145 475 145 c 0xbf80
EndSplineSet
EndChar

StartChar: A
Encoding: 65 65 36
Width: 600
Flags: MW
HStem: 0 21G<15 15 15 155 445 445 445 585> 160 90<225 375 225 400 200 375> 535 165<298 302 298 298> 680 20G<220 380 380 380>
VStem: 15 570<0 0>
LayerCount: 2
Fore
SplineSet
15 0 m 1xd8
 220 700 l 1
 380 700 l 1
 585 0 l 1
 445 0 l 1
 400 160 l 1
 200 160 l 1
 155 0 l 1
 15 0 l 1xd8
225 250 m 1
 375 250 l 1
 315 460 l 2
 310 476 308 494 305 509 c 2
 302 535 l 1
 298 535 l 1
 294 509 l 2
 291 494 289 475 285 460 c 2xe8
 225 250 l 1
EndSplineSet
Substitution2: "Single Substitution lookup 23 subtable" ordfeminine
EndChar

StartChar: B
Encoding: 66 66 37
Width: 610
Flags: MW
HStem: 0 90<225 295 225 295> 320 90<225 295 225 295> 610 90<225 295 225 225>
VStem: 85 140<90 90 90 320 410 610> 395 140<487.5 540> 420 140<166.5 233.5 135 243.5>
LayerCount: 2
Fore
SplineSet
85 0 m 1xf4
 85 700 l 1
 295 700 l 2
 459 700 535 624 535 520 c 0
 535 455 503 417 472 396 c 0xf8
 454 384 433 375 410 370 c 1
 438 365 463 355 485 341 c 0
 522 317 560 272 560 195 c 0
 560 75 485 0 295 0 c 2
 85 0 l 1xf4
225 410 m 1
 295 410 l 2
 355 410 395 450 395 510 c 0
 395 570 355 610 295 610 c 2
 225 610 l 1
 225 410 l 1
225 90 m 1
 295 90 l 2
 378 90 420 128 420 205 c 0xf4
 420 282 378 320 295 320 c 2
 225 320 l 1
 225 90 l 1
EndSplineSet
EndChar

StartChar: C
Encoding: 67 67 38
Width: 535
Flags: MW
HStem: -10 90<295 358.5 295 358.5> 620 90<290 348.5>
VStem: 50 140<244.5 455.5 244.5 477.5>
LayerCount: 2
Fore
SplineSet
330 -10 m 0
 154 -10 50 95 50 350 c 0
 50 605 155 710 320 710 c 0
 377 710 424 697 456 682 c 0
 475 674 491 665 505 655 c 1
 460 575 l 1
 450 575 l 1
 441 583 430 590 418 597 c 0
 397 608 367 620 330 620 c 0
 250 620 190 561 190 350 c 0
 190 139 250 80 340 80 c 0
 377 80 407 91 428 102 c 0
 440 109 451 116 460 125 c 1
 470 125 l 1
 515 45 l 1
 501 34 485 25 466 17 c 0
 434 2 387 -10 330 -10 c 0
EndSplineSet
EndChar

StartChar: D
Encoding: 68 68 39
Width: 615
Flags: MW
HStem: 0 90<225 255 225 255> 610 90<225 255 225 225>
VStem: 85 140<90 90 90 610> 425 140<250 450>
LayerCount: 2
Fore
SplineSet
85 0 m 1
 85 700 l 1
 255 700 l 2
 455 700 565 590 565 350 c 0
 565 110 455 0 255 0 c 2
 85 0 l 1
225 90 m 1
 255 90 l 2
 365 90 425 150 425 350 c 0
 425 550 365 610 255 610 c 2
 225 610 l 1
 225 90 l 1
EndSplineSet
EndChar

StartChar: E
Encoding: 69 69 40
Width: 530
Flags: MW
HStem: 0 90<225 505 225 505> 320 90<225 445 225 445> 610 90<225 505 225 225>
VStem: 85 140<90 320 410 610>
LayerCount: 2
Fore
SplineSet
85 0 m 1
 85 700 l 1
 505 700 l 1
 505 610 l 1
 225 610 l 1
 225 410 l 1
 445 410 l 1
 445 320 l 1
 225 320 l 1
 225 90 l 1
 505 90 l 1
 505 0 l 1
 85 0 l 1
EndSplineSet
EndChar

StartChar: F
Encoding: 70 70 41
Width: 525
Flags: MW
HStem: 0 21G<85 85 85 225> 310 90<225 445 225 445> 610 90<225 505 225 225>
VStem: 85 140<0 310 400 610>
LayerCount: 2
Fore
SplineSet
85 0 m 1
 85 700 l 1
 505 700 l 1
 505 610 l 1
 225 610 l 1
 225 400 l 1
 445 400 l 1
 445 310 l 1
 225 310 l 1
 225 0 l 1
 85 0 l 1
EndSplineSet
EndChar

StartChar: G
Encoding: 71 71 42
Width: 590
Flags: MW
HStem: -10 90<295 346.5 295 362.5> 300 90<285 390 285 490> 620 90<290 348.5>
VStem: 50 140<244.5 455.5 244.5 477.5> 390 140<90 300 300 300>
LayerCount: 2
Fore
SplineSet
330 -10 m 0
 154 -10 50 95 50 350 c 0
 50 605 155 710 320 710 c 0
 377 710 424 697 456 682 c 0
 475 674 491 665 505 655 c 1
 460 575 l 1
 450 575 l 1
 441 583 430 590 418 597 c 0
 397 608 367 620 330 620 c 0
 250 620 190 561 190 350 c 0
 190 139 250 80 340 80 c 0
 353 80 364 82 374 85 c 0
 379 86 385 88 390 90 c 1
 390 300 l 1
 285 300 l 1
 285 390 l 1
 490 390 l 1
 530 350 l 1
 530 45 l 1
 516 34 499 25 479 17 c 0
 444 2 395 -10 330 -10 c 0
EndSplineSet
EndChar

StartChar: H
Encoding: 72 72 43
Width: 660
Flags: MW
HStem: 0 21G<85 85 85 225 435 435 435 575> 310 90<225 435 225 435> 680 20G<85 225 225 225 435 575 575 575>
VStem: 85 140<0 310 400 700> 435 140<0 310 310 310 400 700 0 700>
LayerCount: 2
Fore
SplineSet
85 0 m 1
 85 700 l 1
 225 700 l 1
 225 400 l 1
 435 400 l 1
 435 700 l 1
 575 700 l 1
 575 0 l 1
 435 0 l 1
 435 310 l 1
 225 310 l 1
 225 0 l 1
 85 0 l 1
EndSplineSet
EndChar

StartChar: I
Encoding: 73 73 44
Width: 310
Flags: MW
HStem: 0 21G<85 85 85 225> 680 20G<85 225 225 225>
VStem: 85 140<0 700 0 700>
LayerCount: 2
Fore
SplineSet
85 0 m 1
 85 700 l 1
 225 700 l 1
 225 0 l 1
 85 0 l 1
EndSplineSet
EndChar

StartChar: J
Encoding: 74 74 45
Width: 450
Flags: MW
HStem: -10 90<130 170 128.5 222.5> 680 20G<235 375 375 375>
VStem: 235 140<190 700>
LayerCount: 2
Fore
SplineSet
150 -10 m 0
 110 -10 72 1 45 12 c 0
 28 19 13 26 0 35 c 1
 40 120 l 1
 50 120 l 1
 59 113 68 106 78 100 c 0
 95 89 117 80 140 80 c 0
 200 80 235 114 235 190 c 2
 235 700 l 1
 375 700 l 1
 375 190 l 2
 375 70 295 -10 150 -10 c 0
EndSplineSet
EndChar

StartChar: K
Encoding: 75 75 46
Width: 585
Flags: MW
HStem: 0 21G<85 85 85 225 420 420 420 580> 680 20G<85 225 225 225 410 565 565 565>
VStem: 85 140<0 330 390 700>
LayerCount: 2
Fore
SplineSet
85 0 m 1
 85 700 l 1
 225 700 l 1
 225 390 l 1
 410 700 l 1
 565 700 l 1
 355 365 l 1
 580 0 l 1
 420 0 l 1
 225 330 l 1
 225 0 l 1
 85 0 l 1
EndSplineSet
EndChar

StartChar: L
Encoding: 76 76 47
Width: 505
Flags: MW
HStem: 0 90<225 495 225 495> 680 20G<85 225 225 225>
VStem: 85 140<90 700 90 700 90 700>
LayerCount: 2
Fore
SplineSet
85 0 m 1
 85 700 l 1
 225 700 l 1
 225 90 l 1
 495 90 l 1
 495 0 l 1
 85 0 l 1
EndSplineSet
EndChar

StartChar: M
Encoding: 77 77 48
Width: 870
Flags: MW
HStem: 0 21G<85 85 85 225 645 645 645 785> 115 140<433 437 433 465 395 437> 680 20G<85 220 220 220 650 785 785 785>
VStem: 85 140<0 405 0 700> 645 140<0 415 415 422.5>
LayerCount: 2
Fore
SplineSet
85 0 m 1
 85 700 l 1
 220 700 l 1
 415 305 l 2
 420 294 425 283 428 272 c 2
 433 255 l 1
 437 255 l 1
 442 272 l 2
 445 283 450 294 455 305 c 2
 650 700 l 1
 785 700 l 1
 785 0 l 1
 645 0 l 1
 645 415 l 2
 645 430 645 446 647 459 c 2
 650 481 l 1
 646 481 l 1
 644 474 642 466 639 459 c 0
 634 446 628 430 620 415 c 2
 465 115 l 1
 395 115 l 1
 250 405 l 2
 243 420 236 436 231 449 c 0
 228 456 226 464 224 471 c 1
 220 471 l 1
 222 449 l 2
 223 436 225 420 225 405 c 2
 225 0 l 1
 85 0 l 1
EndSplineSet
EndChar

StartChar: N
Encoding: 78 78 49
Width: 660
GlyphClass: 5
Flags: MW
HStem: 0 21G<85 85 85 225 425 425 425 575> 680 20G<85 235 235 235 435 575 575 575>
VStem: 85 140<0 420 0 700> 435 140<280 700 0 700>
LayerCount: 2
Fore
SplineSet
85 0 m 1
 85 700 l 1
 235 700 l 1
 410 280 l 1
 428 236 l 1
 436 215 l 1
 440 215 l 1
 437 236 l 2
 435 248 435 265 435 280 c 2
 435 700 l 1
 575 700 l 1
 575 0 l 1
 425 0 l 1
 250 420 l 1
 232 464 l 1
 224 485 l 1
 220 485 l 1
 222 464 l 2
 223 451 225 435 225 420 c 2
 225 0 l 1
 85 0 l 1
EndSplineSet
EndChar

StartChar: O
Encoding: 79 79 50
Width: 630
Flags: MW
HStem: -10 90<282.5 347.5 282.5 395> 620 90<282.5 347.5>
VStem: 50 140<244.5 455.5 244.5 477.5> 440 140<244.5 455.5>
LayerCount: 2
Fore
SplineSet
315 -10 m 0
 155 -10 50 95 50 350 c 0
 50 605 155 710 315 710 c 0
 475 710 580 605 580 350 c 0
 580 95 475 -10 315 -10 c 0
315 80 m 0
 380 80 440 139 440 350 c 0
 440 561 380 620 315 620 c 0
 250 620 190 561 190 350 c 0
 190 139 250 80 315 80 c 0
EndSplineSet
Substitution2: "Single Substitution lookup 23 subtable" ordmasculine
EndChar

StartChar: P
Encoding: 80 80 51
Width: 595
Flags: MW
HStem: 0 21G<85 85 85 225> 230 90<225 285 225 285> 610 90<225 285 225 225>
VStem: 85 140<0 230 320 610> 415 140<412.5 517.5>
LayerCount: 2
Fore
SplineSet
85 0 m 1
 85 700 l 1
 285 700 l 2
 476 700 555 621 555 465 c 0
 555 309 476 230 285 230 c 2
 225 230 l 1
 225 0 l 1
 85 0 l 1
225 320 m 1
 285 320 l 2
 376 320 415 360 415 465 c 0
 415 570 376 610 285 610 c 2
 225 610 l 1
 225 320 l 1
EndSplineSet
EndChar

StartChar: Q
Encoding: 81 81 52
Width: 630
Flags: MW
HStem: -165 90<422.5 437.5> 0 21G 620 90<282.5 347.5>
VStem: 50 140<244.5 455.5 244.5 477.5> 245 140<-25.5 0 -25.5 0> 440 140<244.5 455.5>
CounterMasks: 1 1c
LayerCount: 2
Fore
SplineSet
425 -165 m 0
 317 -165 245 -95 245 0 c 1
 125 29 50 135 50 350 c 0
 50 605 155 710 315 710 c 0
 475 710 580 605 580 350 c 0
 580 135 505 29 385 0 c 1
 385 -51 410 -75 435 -75 c 0
 447 -75 456 -73 461 -70 c 0
 464 -69 466 -67 469 -65 c 2
 479 -65 l 1
 505 -145 l 1
 499 -149 492 -152 484 -155 c 0
 469 -160 450 -165 425 -165 c 0
315 80 m 0
 380 80 440 139 440 350 c 0
 440 561 380 620 315 620 c 0
 250 620 190 561 190 350 c 0
 190 139 250 80 315 80 c 0
EndSplineSet
EndChar

StartChar: R
Encoding: 82 82 53
Width: 600
Flags: MW
HStem: 0 21G<85 85 85 225 425 425 425 585> 250 90<225 275 275 280 225 275> 610 90<225 275 225 225>
VStem: 85 140<0 250 340 610> 405 140<433 523>
LayerCount: 2
Fore
SplineSet
85 0 m 1
 85 700 l 1
 275 700 l 2
 464 700 545 620 545 475 c 0
 545 391 512 342 480 313 c 0
 461 296 439 283 415 275 c 1
 585 0 l 1
 425 0 l 1
 280 250 l 1
 225 250 l 1
 225 0 l 1
 85 0 l 1
225 340 m 1
 275 340 l 2
 366 340 405 379 405 475 c 0
 405 571 366 610 275 610 c 2
 225 610 l 1
 225 340 l 1
EndSplineSet
EndChar

StartChar: S
Encoding: 83 83 54
Width: 535
Flags: MW
HStem: -10 90<213.5 280 213.5 332> 620 90<255 308.5>
VStem: 40 140<460.5 552.5 460.5 572.5> 360 140<150 249.5>
LayerCount: 2
Fore
SplineSet
250 -10 m 0
 177 -10 124 2 88 17 c 0
 67 25 49 34 35 45 c 1
 80 125 l 1
 90 125 l 1
 100 116 112 109 126 102 c 0
 150 91 187 80 240 80 c 0
 320 80 360 120 360 180 c 0
 360 319 40 295 40 520 c 0
 40 625 125 710 275 710 c 0
 343 710 393 697 428 682 c 0
 448 674 465 665 480 655 c 1
 435 575 l 1
 425 575 l 1
 416 583 404 590 391 597 c 0
 368 608 332 620 285 620 c 0
 225 620 180 575 180 530 c 0
 180 391 500 415 500 190 c 0
 500 75 414 -10 250 -10 c 0
EndSplineSet
EndChar

StartChar: T
Encoding: 84 84 55
Width: 510
Flags: MW
HStem: 0 21G<185 185 185 325> 610 90<10 185 10 500 325 325 325 500>
VStem: 185 140<0 610 0 610>
LayerCount: 2
Fore
SplineSet
185 0 m 1
 185 610 l 1
 10 610 l 1
 10 700 l 1
 500 700 l 1
 500 610 l 1
 325 610 l 1
 325 0 l 1
 185 0 l 1
EndSplineSet
EndChar

StartChar: U
Encoding: 85 85 56
Width: 640
Flags: MW
HStem: -10 90<290 350 290 398> 680 20G<75 215 215 215 425 565 565 565>
VStem: 75 140<230 700> 425 140<230 700>
LayerCount: 2
Fore
SplineSet
320 -10 m 0
 164 -10 75 79 75 230 c 2
 75 700 l 1
 215 700 l 1
 215 230 l 2
 215 125 260 80 320 80 c 0
 380 80 425 125 425 230 c 2
 425 700 l 1
 565 700 l 1
 565 230 l 2
 565 79 476 -10 320 -10 c 0
EndSplineSet
EndChar

StartChar: V
Encoding: 86 86 57
Width: 590
Flags: MW
HStem: 0 21G<227 227 227 357> 0 165<227 297 293 297 293 357> 680 20G<27 155 155 155 435 557 557 557>
VStem: 27 530<700 700>
LayerCount: 2
Fore
SplineSet
227 0 m 1xb0
 27 700 l 1
 155 700 l 1
 280 240 l 2
 284 224 286 206 289 191 c 2
 293 165 l 1
 297 165 l 1
 300 190 l 2
 303 205 305 224 310 240 c 2x70
 435 700 l 1
 557 700 l 1
 357 0 l 1
 227 0 l 1xb0
EndSplineSet
EndChar

StartChar: W
Encoding: 87 87 58
Width: 886
Flags: MW
HStem: 0 21G<197 197 197 327 557 557 557 683> 0 200<197 279 275 279 275 327 615 619> 680 20G<27 167 167 167 398 496 496 496 727 853 853 853>
VStem: 27 826<700 700>
LayerCount: 2
Fore
SplineSet
197 0 m 1xb0
 27 700 l 1
 167 700 l 1
 267 260 l 2
 270 247 272 234 273 221 c 2
 275 200 l 1
 279 200 l 1
 281 221 l 2
 282 234 284 247 287 260 c 2
 398 700 l 1
 496 700 l 1
 607 260 l 2
 610 247 612 234 613 221 c 2
 615 200 l 1
 619 200 l 1
 621 221 l 2
 622 234 624 247 627 260 c 2x70
 727 700 l 1
 853 700 l 1
 683 0 l 1
 557 0 l 1
 452 435 l 2
 449 447 447 464 446 477 c 2
 444 500 l 1
 440 500 l 1
 438 477 l 2
 437 464 435 447 432 435 c 2
 327 0 l 1
 197 0 l 1xb0
EndSplineSet
EndChar

StartChar: X
Encoding: 88 88 59
Width: 560
Flags: MW
HStem: 0 21G<10 10 10 160 400 400 400 550> 680 20G<15 165 165 165 395 545 545 545>
VStem: 10 540<0 0>
LayerCount: 2
Fore
SplineSet
10 0 m 1
 185 355 l 1
 15 700 l 1
 165 700 l 1
 265 485 l 1
 275 455 l 1
 278 440 l 1
 282 440 l 1
 285 455 l 2
 288 464 290 474 295 485 c 2
 395 700 l 1
 545 700 l 1
 375 355 l 1
 550 0 l 1
 400 0 l 1
 295 225 l 2
 290 236 288 246 285 255 c 2
 282 270 l 1
 278 270 l 1
 275 255 l 1
 265 225 l 1
 160 0 l 1
 10 0 l 1
EndSplineSet
EndChar

StartChar: Y
Encoding: 89 89 60
Width: 570
Flags: MW
HStem: 0 21G<215 215 215 355> 680 20G<0 145 145 145 433 570 570 570>
VStem: 215 140<0 230 0 230>
LayerCount: 2
Fore
SplineSet
215 0 m 1
 215 230 l 1
 0 700 l 1
 145 700 l 1
 276 385 l 1
 286 355 l 1
 289 340 l 1
 293 340 l 1
 296 355 l 2
 299 364 302 374 306 385 c 2
 433 700 l 1
 570 700 l 1
 355 230 l 1
 355 0 l 1
 215 0 l 1
EndSplineSet
EndChar

StartChar: Z
Encoding: 90 90 61
Width: 525
Flags: MW
HStem: 0 90<195 490 195 490> 610 90<35 325 35 485>
VStem: 35 455<0 90 0 95 0 95>
LayerCount: 2
Fore
SplineSet
35 0 m 1
 35 95 l 1
 325 610 l 1
 35 610 l 1
 35 700 l 1
 485 700 l 1
 485 605 l 1
 195 90 l 1
 490 90 l 1
 490 0 l 1
 35 0 l 1
EndSplineSet
EndChar

StartChar: bracketleft
Encoding: 91 91 62
Width: 335
Flags: MW
HStem: -170 90<225 325 225 325> 640 90<225 325 225 225>
VStem: 85 140<-80 640 -80 730 -80 730>
LayerCount: 2
Fore
SplineSet
85 -170 m 1
 85 730 l 1
 325 730 l 1
 325 640 l 1
 225 640 l 1
 225 -80 l 1
 325 -80 l 1
 325 -170 l 1
 85 -170 l 1
EndSplineSet
EndChar

StartChar: backslash
Encoding: 92 92 63
Width: 450
Flags: MW
HStem: 0 21G<310 310 310 450> 680 20G<0 140 140 140>
VStem: 0 450
LayerCount: 2
Fore
SplineSet
310 0 m 1
 0 700 l 1
 140 700 l 1
 450 0 l 1
 310 0 l 1
EndSplineSet
EndChar

StartChar: bracketright
Encoding: 93 93 64
Width: 335
Flags: MW
HStem: -170 90<10 110 10 110 10 250> 640 90<10 110 10 250>
VStem: 110 140<-80 640 640 640>
LayerCount: 2
Fore
SplineSet
10 -170 m 1
 10 -80 l 1
 110 -80 l 1
 110 640 l 1
 10 640 l 1
 10 730 l 1
 250 730 l 1
 250 -170 l 1
 10 -170 l 1
EndSplineSet
EndChar

StartChar: asciicircum
Encoding: 94 94 65
Width: 470
Flags: MW
HStem: 440 280<0 285 0 285 185 340 185 470>
VStem: 0 470<440 440>
LayerCount: 2
Fore
SplineSet
0 440 m 1
 185 720 l 1
 285 720 l 1
 470 440 l 1
 340 440 l 1
 235 600 l 1
 130 440 l 1
 0 440 l 1
EndSplineSet
EndChar

StartChar: underscore
Encoding: 95 95 66
Width: 390
Flags: MW
HStem: -140 100<0 390 0 390>
VStem: 0 390<-140 -40 -140 -40>
LayerCount: 2
Fore
SplineSet
0 -140 m 1
 0 -40 l 1
 390 -40 l 1
 390 -140 l 1
 0 -140 l 1
EndSplineSet
EndChar

StartChar: grave
Encoding: 96 96 67
Width: 200
Flags: MW
HStem: 550 150<110 110 110 145 10 190>
VStem: 10 180<550 700>
LayerCount: 2
Fore
SplineSet
110 550 m 1
 10 700 l 1
 145 700 l 1
 190 550 l 1
 110 550 l 1
EndSplineSet
EndChar

StartChar: a
Encoding: 97 97 68
Width: 540
Flags: MW
HStem: -10 95<227.5 247.5> 215 90<235 335 265 335> 420 90<224.5 272.5>
VStem: 40 140<127.5 167.5 127.5 193> 335 140<145 215 215 215 305 320 0 355.5>
LayerCount: 2
Fore
SplineSet
225 -10 m 0
 105 -10 40 54 40 145 c 0
 40 241 105 305 265 305 c 2
 335 305 l 1
 335 320 l 2
 335 391 305 420 240 420 c 0
 207 420 182 411 163 400 c 0
 152 394 143 387 135 380 c 1
 125 380 l 1
 80 460 l 1
 94 469 110 478 127 485 c 0
 158 497 199 510 250 510 c 0
 394 510 475 430 475 320 c 2
 475 0 l 1
 375 0 l 1
 365 60 l 1
 360 60 l 1xf8
 350 47 339 35 326 25 c 0
 303 6 270 -10 225 -10 c 0
250 85 m 0
 275 85 296 100 311 115 c 0
 320 124 328 134 335 145 c 1
 335 215 l 1
 265 215 l 2
 205 215 180 190 180 145 c 0
 180 110 205 85 250 85 c 0
EndSplineSet
Substitution2: "Single Substitution lookup 23 subtable" ordfeminine
EndChar

StartChar: b
Encoding: 98 98 69
Width: 560
Flags: MW
HStem: -10 95<297.5 317.5 281 377.5> 0 21G<70 170 70 70> 420 90<294.5 312.5> 680 20G<110 210 210 210>
VStem: 70 140<145 390 480 660 660 660> 380 140<187.5 315>
LayerCount: 2
Fore
SplineSet
320 -10 m 0x00
 275 -10 242 6 219 25 c 0
 206 35 194 47 185 60 c 1
 180 60 l 1x7c
 170 0 l 1
 70 0 l 1xbc
 70 660 l 1
 110 700 l 1
 210 700 l 1
 210 480 l 1
 217 485 226 490 237 495 c 0
 254 502 279 510 310 510 c 0
 435 510 520 425 520 250 c 0
 520 75 435 -10 320 -10 c 0x00
295 85 m 0
 340 85 380 125 380 250 c 0
 380 380 340 420 285 420 c 0
 262 420 244 412 231 405 c 2
 210 390 l 1
 210 145 l 1
 217 134 224 124 232 115 c 0
 247 100 267 85 295 85 c 0
EndSplineSet
EndChar

StartChar: c
Encoding: 99 99 70
Width: 475
Flags: MW
HStem: -10 90<257.5 310.5> 420 90<253 300.5 199.5 301>
VStem: 40 140<185 315 185 338>
LayerCount: 2
Fore
SplineSet
285 -10 m 0
 124 -10 40 74 40 250 c 0
 40 426 124 510 275 510 c 0
 326 510 366 497 397 485 c 0
 414 478 430 469 445 460 c 1
 400 380 l 1
 390 380 l 1
 382 387 373 394 362 400 c 0
 343 411 317 420 285 420 c 0
 221 420 180 380 180 250 c 0
 180 120 220 80 295 80 c 0
 327 80 353 89 372 100 c 0
 383 106 392 113 400 120 c 1
 410 120 l 1
 455 40 l 1
 440 31 424 22 407 15 c 0
 376 2 336 -10 285 -10 c 0
EndSplineSet
EndChar

StartChar: d
Encoding: 100 100 71
Width: 560
Flags: MW
HStem: -10 95<242.5 262.5> 420 90<247.5 265.5 187.5 286.5> 680 20G<390 490 490 490>
VStem: 40 140<187.5 315 187.5 337.5> 350 140<145 390 390 390 480 660 660 660>
LayerCount: 2
Fore
SplineSet
240 -10 m 0
 125 -10 40 75 40 250 c 0
 40 425 125 510 250 510 c 0
 281 510 303 502 322 495 c 2
 350 480 l 1
 350 660 l 1
 390 700 l 1
 490 700 l 1
 490 0 l 1
 390 0 l 1
 380 60 l 1
 375 60 l 1xf8
 365 47 354 35 341 25 c 0
 318 6 285 -10 240 -10 c 0
265 85 m 0
 292 85 313 100 328 115 c 0
 336 124 343 134 350 145 c 1
 350 390 l 1
 329 405 l 2
 316 412 298 420 275 420 c 0
 220 420 180 380 180 250 c 0
 180 125 220 85 265 85 c 0
EndSplineSet
EndChar

StartChar: e
Encoding: 101 101 72
Width: 520
Flags: MW
HStem: -10 90<260 315.5> 205 90<180 340 180 450 180 340> 420 90<240 280>
VStem: 40 140<163.5 205 295 337.5 163.5 337.5> 340 140<235 337.5>
CounterMasks: 1 e0
LayerCount: 2
Fore
SplineSet
290 -10 m 0
 123 -10 40 77 40 250 c 0
 40 425 125 510 260 510 c 0
 395 510 480 425 480 260 c 2
 480 235 l 1
 450 205 l 1
 180 205 l 1
 180 122 220 80 300 80 c 0
 332 80 358 89 377 100 c 0
 388 106 397 113 405 120 c 1
 415 120 l 1
 460 40 l 1
 445 31 429 22 412 15 c 0
 381 2 341 -10 290 -10 c 0
180 295 m 1
 340 295 l 1
 340 380 300 420 260 420 c 0
 220 420 180 380 180 295 c 1
EndSplineSet
EndChar

StartChar: f
Encoding: 102 102 73
Width: 365
Flags: MW
HStem: 0 21G<75 75 75 215> 410 90<20 75 20 75 215 340> 620 90<262.5 290 207.5 291.5>
VStem: 75 140<0 410 0 410 500 540 0 590>
LayerCount: 2
Fore
SplineSet
75 0 m 1
 75 410 l 1
 20 410 l 1
 20 500 l 1
 75 500 l 1
 75 540 l 2
 75 640 145 710 270 710 c 0
 310 710 347 697 375 685 c 0
 391 678 406 669 420 660 c 1
 375 580 l 1
 365 580 l 1
 357 587 348 594 339 600 c 0
 323 611 303 620 280 620 c 0
 245 620 215 591 215 540 c 2
 215 500 l 1
 340 500 l 1
 340 410 l 1
 215 410 l 1
 215 0 l 1
 75 0 l 1
EndSplineSet
EndChar

StartChar: g
Encoding: 103 103 74
Width: 560
Flags: MW
HStem: -210 90<228.5 277.5 227.5 330> -10 90<247.5 265.5 247.5 350> 415 95<242.5 262.5 182.5 278.5> 480 20G<390 490 490 490>
VStem: 40 140<185 312.5 185 337.5> 350 140<-10 20 20 20 110 355 355 355>
LayerCount: 2
Fore
SplineSet
255 -210 m 0xdc
 202 -210 159 -198 128 -185 c 0
 110 -178 94 -169 80 -160 c 1
 125 -80 l 1
 135 -80 l 1
 143 -87 153 -94 164 -100 c 0
 183 -111 210 -120 245 -120 c 0
 310 -120 350 -81 350 -10 c 2
 350 20 l 1
 341 14 332 9 322 5 c 0
 303 -3 281 -10 250 -10 c 0
 125 -10 40 75 40 250 c 0
 40 425 125 510 240 510 c 0
 285 510 318 492 341 475 c 0
 354 464 365 453 375 440 c 1
 380 440 l 1xec
 390 500 l 1
 490 500 l 1
 490 -10 l 2
 490 -125 405 -210 255 -210 c 0xdc
275 80 m 0
 298 80 316 87 329 95 c 0
 336 99 343 104 350 110 c 1
 350 355 l 1
 343 366 336 376 328 385 c 0
 313 400 292 415 265 415 c 0
 220 415 180 375 180 250 c 0
 180 120 220 80 275 80 c 0
EndSplineSet
EndChar

StartChar: h
Encoding: 104 104 75
Width: 575
Flags: MW
HStem: 0 21G<70 70 70 210 370 370 370 510> 415 95<302.5 317.5> 680 20G<110 210 210 210>
VStem: 70 140<0 355 465 660 660 660> 370 140<0 320 0 352.5>
LayerCount: 2
Fore
SplineSet
70 0 m 1
 70 660 l 1
 110 700 l 1
 210 700 l 1
 210 465 l 1
 218 473 228 480 239 487 c 0
 258 498 285 510 320 510 c 0
 441 510 510 441 510 320 c 2
 510 0 l 1
 370 0 l 1
 370 320 l 2
 370 385 340 415 295 415 c 0
 267 415 247 400 232 385 c 0
 224 376 217 366 210 355 c 1
 210 0 l 1
 70 0 l 1
EndSplineSet
EndChar

StartChar: i
Encoding: 105 105 76
Width: 280
Flags: MW
HStem: 0 21G<70 70 70 210> 480 20G<70 210 210 210> 565 150<120 160>
VStem: 65 150<620 660>
LayerCount: 2
Fore
SplineSet
140 565 m 0
 100 565 65 600 65 640 c 0
 65 680 100 715 140 715 c 0
 180 715 215 680 215 640 c 0
 215 600 180 565 140 565 c 0
70 0 m 1
 70 500 l 1
 210 500 l 1
 210 0 l 1
 70 0 l 1
EndSplineSet
EndChar

StartChar: j
Encoding: 106 106 77
Width: 300
Flags: MW
HStem: -200 90<19.5 45 17.5 97.5> 480 20G<90 230 230 230> 565 150<140 180>
VStem: 85 150<620 660>
LayerCount: 2
Fore
SplineSet
160 565 m 0
 120 565 85 600 85 640 c 0
 85 680 120 715 160 715 c 0
 200 715 235 680 235 640 c 0
 235 600 200 565 160 565 c 0
35 -200 m 0
 4 -200 -23 -193 -43 -185 c 0
 -55 -181 -66 -176 -75 -170 c 1
 -40 -85 l 1
 -30 -85 l 1
 -25 -90 -20 -95 -14 -98 c 0
 -3 -105 10 -110 25 -110 c 0
 65 -110 90 -86 90 -30 c 2
 90 500 l 1
 230 500 l 1
 230 -30 l 2xf0
 230 -130 160 -200 35 -200 c 0
EndSplineSet
EndChar

StartChar: k
Encoding: 107 107 78
Width: 510
Flags: MW
HStem: 0 21G<70 70 70 210 350 350 350 505> 480 20G<340 495 495 495> 680 20G<110 210 210 210>
VStem: 70 140<0 235 285 660 660 660>
LayerCount: 2
Fore
SplineSet
70 0 m 1
 70 660 l 1
 110 700 l 1
 210 700 l 1
 210 285 l 1
 340 500 l 1
 495 500 l 1
 335 260 l 1
 505 0 l 1
 350 0 l 1
 210 235 l 1
 210 0 l 1
 70 0 l 1
EndSplineSet
EndChar

StartChar: l
Encoding: 108 108 79
Width: 280
Flags: MW
HStem: 0 21G<70 70 70 210> 680 20G<110 210 210 210>
VStem: 70 140<0 660 660 660>
LayerCount: 2
Fore
SplineSet
70 0 m 1
 70 660 l 1
 110 700 l 1
 210 700 l 1
 210 0 l 1
 70 0 l 1
EndSplineSet
EndChar

StartChar: m
Encoding: 109 109 80
Width: 835
Flags: MW
HStem: 0 21G<70 70 70 210 350 350 350 490 630 630 630 770> 415 95<290 302.5 566 582.5> 480 20G<70 170 170 170>
VStem: 70 140<0 355 0 500> 350 140<0 320 320 352.5> 630 140<0 320 0 352.5>
CounterMasks: 1 1c
LayerCount: 2
Fore
SplineSet
70 0 m 1xdc
 70 500 l 1
 170 500 l 1
 180 440 l 1
 185 440 l 1xbc
 194 453 205 464 217 475 c 0
 238 492 270 510 310 510 c 0
 361 510 392 492 412 475 c 0
 424 464 433 453 440 440 c 1
 451 453 464 464 479 475 c 0
 506 492 542 510 590 510 c 0
 701 510 770 441 770 320 c 2
 770 0 l 1
 630 0 l 1
 630 320 l 2
 630 385 600 415 565 415 c 0
 542 415 524 402 511 390 c 0
 504 383 497 374 490 365 c 1
 490 0 l 1
 350 0 l 1
 350 320 l 2
 350 385 320 415 285 415 c 0
 260 415 241 400 229 385 c 0
 222 376 215 366 210 355 c 1
 210 0 l 1
 70 0 l 1xdc
EndSplineSet
EndChar

StartChar: n
Encoding: 110 110 81
Width: 575
Flags: MW
HStem: 0 21G<70 70 70 210 370 370 370 510> 415 95<297.5 317.5> 480 20G<70 170 170 170>
VStem: 70 140<0 355 0 500> 370 140<0 320 0 352.5>
LayerCount: 2
Fore
SplineSet
70 0 m 1xb8
 70 500 l 1
 170 500 l 1
 180 440 l 1
 185 440 l 1xb8
 194 453 206 464 219 475 c 0
 242 492 275 510 320 510 c 0
 441 510 510 441 510 320 c 2
 510 0 l 1
 370 0 l 1
 370 320 l 2
 370 385 340 415 295 415 c 0
 267 415 247 400 232 385 c 0
 224 376 217 366 210 355 c 1xd8
 210 0 l 1
 70 0 l 1xb8
EndSplineSet
EndChar

StartChar: o
Encoding: 111 111 82
Width: 540
GlyphClass: 5
Flags: MW
HStem: -10 90<244.5 295.5 244.5 342.5> 420 90<244.5 295.5>
VStem: 40 140<185 315 185 338> 360 140<185 315>
LayerCount: 2
Fore
SplineSet
270 -10 m 0
 125 -10 40 74 40 250 c 0
 40 426 125 510 270 510 c 0
 415 510 500 426 500 250 c 0
 500 74 415 -10 270 -10 c 0
270 80 m 0
 321 80 360 120 360 250 c 0
 360 380 321 420 270 420 c 0
 219 420 180 380 180 250 c 0
 180 120 219 80 270 80 c 0
EndSplineSet
Substitution2: "Single Substitution lookup 23 subtable" ordmasculine
EndChar

StartChar: p
Encoding: 112 112 83
Width: 560
Flags: MW
HStem: -10 90<294.5 312.5 273.5 372.5> 415 95<297.5 317.5> 480 20G<70 170 170 170>
VStem: 70 140<-160 20 -160 110 110 355> 380 140<185 312.5>
LayerCount: 2
Fore
SplineSet
70 -200 m 1xb8
 70 500 l 1
 170 500 l 1
 180 440 l 1
 185 440 l 1xb8
 194 453 206 464 219 475 c 0
 242 492 275 510 320 510 c 0xd8
 435 510 520 425 520 250 c 0
 520 75 435 -10 310 -10 c 0
 279 -10 254 -3 237 5 c 0
 226 9 217 14 210 20 c 1
 210 -160 l 1
 170 -200 l 1
 70 -200 l 1xb8
285 80 m 0
 340 80 380 120 380 250 c 0
 380 375 340 415 295 415 c 0
 267 415 247 400 232 385 c 0
 224 376 217 366 210 355 c 1xd8
 210 110 l 1
 217 104 224 99 231 95 c 0
 244 87 262 80 285 80 c 0
EndSplineSet
EndChar

StartChar: q
Encoding: 113 113 84
Width: 560
Flags: MW
HStem: -10 90<247.5 265.5> 415 95<242.5 262.5 182.5 278.5> 480 20G<390 490 490 490>
VStem: 40 140<185 312.5 185 337.5> 350 140<-160 20 20 20 110 355 355 355>
LayerCount: 2
Fore
SplineSet
390 -200 m 1xb8
 350 -160 l 1
 350 20 l 1
 341 14 332 9 322 5 c 0
 303 -3 281 -10 250 -10 c 0
 125 -10 40 75 40 250 c 0
 40 425 125 510 240 510 c 0
 285 510 318 492 341 475 c 0
 354 464 365 453 375 440 c 1
 380 440 l 1xd8
 390 500 l 1
 490 500 l 1
 490 -200 l 1
 390 -200 l 1xb8
275 80 m 0
 298 80 316 87 329 95 c 0
 336 99 343 104 350 110 c 1
 350 355 l 1
 343 366 336 376 328 385 c 0
 313 400 292 415 265 415 c 0
 220 415 180 375 180 250 c 0
 180 120 220 80 275 80 c 0
EndSplineSet
EndChar

StartChar: r
Encoding: 114 114 85
Width: 395
Flags: MW
HStem: 0 21G<70 70 70 210> 410 100<297.5 303.5> 480 20G<70 170 170 170 395 395>
VStem: 70 140<0 350 0 500>
LayerCount: 2
Fore
SplineSet
70 0 m 1xb0
 70 500 l 1
 170 500 l 1
 180 440 l 1
 185 440 l 1xb0
 194 453 206 464 219 475 c 0
 242 492 275 510 320 510 c 0xd0
 337 510 356 508 371 505 c 0
 379 503 387 501 395 500 c 1
 375 400 l 1
 365 400 l 2xb0
 358 401 350 403 343 405 c 0
 330 408 312 410 295 410 c 0
 267 410 247 395 232 380 c 0
 224 371 217 361 210 350 c 1xd0
 210 0 l 1
 70 0 l 1xb0
EndSplineSet
EndChar

StartChar: s
Encoding: 115 115 86
Width: 485
Flags: MW
HStem: -10 90<205 255.5 198.5 312.5> 420 90<232 278 177.5 278.5>
VStem: 40 140<328 382.5 328 402.5> 315 140<120.5 178.5>
LayerCount: 2
Fore
SplineSet
235 -10 m 0
 175 -10 123 2 87 15 c 0
 66 22 47 31 30 40 c 1
 75 120 l 1
 85 120 l 1
 96 113 108 106 121 100 c 0
 144 89 177 80 220 80 c 0
 291 80 315 105 315 136 c 0
 315 221 40 190 40 360 c 0
 40 445 105 510 250 510 c 0
 306 510 351 497 386 485 c 0
 406 478 424 469 440 460 c 1
 395 380 l 1
 385 380 l 1
 375 387 364 394 351 400 c 0
 328 411 297 420 260 420 c 0
 204 420 180 395 180 370 c 0
 180 286 455 316 455 146 c 0
 455 55 390 -10 235 -10 c 0
EndSplineSet
EndChar

StartChar: t
Encoding: 116 116 87
Width: 415
Flags: MW
HStem: -10 90<259.5 285> 410 90<220 335 220 335>
VStem: 80 140<160 410>
LayerCount: 2
Fore
SplineSet
265 -10 m 0
 149 -10 80 60 80 160 c 2
 80 410 l 1
 15 410 l 1
 15 470 l 1
 165 620 l 1
 220 620 l 1
 220 500 l 1
 335 500 l 1
 335 410 l 1
 220 410 l 1
 220 160 l 2
 220 104 244 80 275 80 c 0
 298 80 318 89 334 100 c 0
 343 106 352 113 360 120 c 1
 370 120 l 1
 415 40 l 1
 401 31 386 22 370 15 c 0
 342 2 305 -10 265 -10 c 0
EndSplineSet
EndChar

StartChar: u
Encoding: 117 117 88
Width: 580
Flags: MW
HStem: -10 95<262.5 282.5> 0 21G<410 510 410 410> 480 20G<70 210 210 210 370 510 510 510>
VStem: 70 140<180 500> 370 140<145 500 0 500>
LayerCount: 2
Fore
SplineSet
260 -10 m 0x00
 139 -10 70 59 70 180 c 2
 70 500 l 1
 210 500 l 1
 210 180 l 2
 210 115 240 85 285 85 c 0
 312 85 333 100 348 115 c 0
 356 124 363 134 370 145 c 1x78
 370 500 l 1
 510 500 l 1
 510 0 l 1
 410 0 l 1
 400 60 l 1
 395 60 l 1xb8
 385 47 374 35 361 25 c 0
 338 6 305 -10 260 -10 c 0x00
EndSplineSet
EndChar

StartChar: v
Encoding: 118 118 89
Width: 491
Flags: MW
HStem: 0 21G<180 180 180 311> 0 135<180 249 245 249 245 311> 480 20G<15 147 147 147 347 476 476 476>
VStem: 15 461<500 500>
LayerCount: 2
Fore
SplineSet
180 0 m 1xb0
 15 500 l 1
 147 500 l 1
 237 190 l 2
 240 179 242 166 243 155 c 2
 245 135 l 1
 249 135 l 1
 251 155 l 2
 252 166 254 179 257 190 c 2x70
 347 500 l 1
 476 500 l 1
 311 0 l 1
 180 0 l 1xb0
EndSplineSet
EndChar

StartChar: w
Encoding: 119 119 90
Width: 721
Flags: MW
HStem: 0 170<150 227 223 227 223 267 494 498> 350 150<355 359 355 355> 480 20G<15 145 145 145 313 409 409 409 576 706 706 706>
VStem: 15 691<500 500>
LayerCount: 2
Fore
SplineSet
150 0 m 1xb0
 15 500 l 1
 145 500 l 1
 215 225 l 2
 218 214 220 201 221 190 c 2
 223 170 l 1
 227 170 l 1
 229 190 l 2
 230 201 232 214 235 225 c 2
 313 500 l 1
 409 500 l 1
 486 225 l 2
 489 214 491 201 492 190 c 2
 494 170 l 1
 498 170 l 1
 500 190 l 2
 501 201 503 214 506 225 c 2
 576 500 l 1
 706 500 l 1
 571 0 l 1
 447 0 l 1
 367 295 l 2
 364 306 362 319 361 330 c 2
 359 350 l 1
 355 350 l 1
 353 330 l 2
 352 319 350 306 347 295 c 2xd0
 267 0 l 1
 150 0 l 1xb0
EndSplineSet
EndChar

StartChar: x
Encoding: 120 120 91
Width: 490
Flags: MW
HStem: 0 21G<10 10 10 155 335 335 335 480> 480 20G<15 160 160 160 330 475 475 475>
VStem: 10 470<0 0>
LayerCount: 2
Fore
SplineSet
10 0 m 1
 160 255 l 1
 15 500 l 1
 160 500 l 1
 230 370 l 2
 235 359 238 349 241 342 c 0
 242 337 243 333 243 330 c 2
 247 330 l 2
 247 333 248 337 249 342 c 0
 252 349 253 359 260 370 c 2
 330 500 l 1
 475 500 l 1
 330 255 l 1
 480 0 l 1
 335 0 l 1
 260 135 l 2
 253 146 252 154 249 162 c 0
 248 166 247 170 247 175 c 1
 243 175 l 1
 243 170 242 166 241 162 c 0
 239 155 235 146 230 135 c 2
 155 0 l 1
 10 0 l 1
EndSplineSet
EndChar

StartChar: y
Encoding: 121 121 92
Width: 505
Flags: MW
HStem: -210 90<129.5 150.5 127.5 193> 0 21G<184 222 184 184> 480 20G<19 150 150 150 355 495 495 495>
VStem: 19 476<500 500>
LayerCount: 2
Fore
SplineSet
145 -210 m 0
 114 -210 87 -203 67 -195 c 0
 55 -191 44 -186 35 -180 c 1
 70 -95 l 1
 80 -95 l 1
 85 -100 90 -105 96 -108 c 0
 107 -115 120 -120 135 -120 c 0
 166 -120 195 -97 208 -50 c 2
 222 0 l 1
 184 0 l 1
 19 500 l 1
 150 500 l 1
 250 175 l 2
 253 164 255 151 256 140 c 2
 258 120 l 1
 262 120 l 1
 264 140 l 2
 265 151 267 164 270 175 c 2
 355 500 l 1
 495 500 l 1
 330 -50 l 2
 299 -150 241 -210 145 -210 c 0
EndSplineSet
EndChar

StartChar: z
Encoding: 122 122 93
Width: 470
Flags: MW
HStem: 0 90<175 435 175 435> 410 90<35 280 35 430>
VStem: 35 400<0 90 0 95 0 95 0 500>
LayerCount: 2
Fore
SplineSet
35 0 m 1
 35 95 l 1
 280 410 l 1
 35 410 l 1
 35 500 l 1
 430 500 l 1
 430 405 l 1
 175 90 l 1
 435 90 l 1
 435 0 l 1
 35 0 l 1
EndSplineSet
EndChar

StartChar: braceleft
Encoding: 123 123 94
Width: 335
Flags: MW
HStem: -170 90<222.5 325 290 325> 235 90<20 48> 640 90<274.5 325 290 325>
VStem: 95 140<-20 150 410 580>
CounterMasks: 1 e0
LayerCount: 2
Fore
SplineSet
290 -170 m 2
 155 -170 95 -111 95 -20 c 2
 95 150 l 2
 95 215 76 235 20 235 c 1
 20 325 l 1
 76 325 95 345 95 410 c 2
 95 580 l 2
 95 670 155 730 290 730 c 2
 325 730 l 1
 325 640 l 1
 290 640 l 2
 259 640 235 615 235 580 c 2
 235 410 l 2
 235 350 213 317 190 300 c 0
 177 289 162 283 145 280 c 1
 162 277 177 270 190 260 c 0
 213 241 235 210 235 150 c 2
 235 -20 l 2
 235 -55 259 -80 290 -80 c 2
 325 -80 l 1
 325 -170 l 1
 290 -170 l 2
EndSplineSet
EndChar

StartChar: bar
Encoding: 124 124 95
Width: 310
Flags: MW
HStem: 680 20G<85 225 225 225>
VStem: 85 140<-200 700 -200 700>
LayerCount: 2
Fore
SplineSet
85 -200 m 1
 85 700 l 1
 225 700 l 1
 225 -200 l 1
 85 -200 l 1
EndSplineSet
EndChar

StartChar: braceright
Encoding: 125 125 96
Width: 335
Flags: MW
HStem: -170 90<10 45 10 45> 235 90<287 315> 640 90<10 45 10 45>
VStem: 100 140<-20 150 410 580>
CounterMasks: 1 e0
LayerCount: 2
Fore
SplineSet
10 -170 m 1
 10 -80 l 1
 45 -80 l 2
 76 -80 100 -55 100 -20 c 2
 100 150 l 2
 100 210 122 241 145 260 c 0
 158 270 173 277 190 280 c 1
 173 283 158 289 145 300 c 0
 122 317 100 350 100 410 c 2
 100 580 l 2
 100 615 76 640 45 640 c 2
 10 640 l 1
 10 730 l 1
 45 730 l 2
 180 730 240 670 240 580 c 2
 240 410 l 2
 240 345 259 325 315 325 c 1
 315 235 l 1
 259 235 240 215 240 150 c 2
 240 -20 l 2
 240 -111 180 -170 45 -170 c 2
 10 -170 l 1
EndSplineSet
EndChar

StartChar: asciitilde
Encoding: 126 126 97
Width: 498
Flags: MW
HStem: 225 120<298.5 344.5 296 374> 295 120<153.5 199.5 124.5 202>
VStem: 20 458<300 340>
LayerCount: 2
Fore
SplineSet
344 225 m 0xa0
 253 225 230 295 174 295 c 0
 133 295 105 235 105 235 c 1
 96 235 l 1
 20 300 l 1
 39 356 95 415 154 415 c 0x60
 245 415 268 345 324 345 c 0
 365 345 393 405 393 405 c 1
 402 405 l 1
 478 340 l 1
 457 284 404 225 344 225 c 0xa0
EndSplineSet
EndChar

StartChar: exclamdown
Encoding: 161 161 99
Width: 290
Flags: MW
HStem: 360 150<125 165>
VStem: 70 150<415 455>
LayerCount: 2
Fore
SplineSet
145 360 m 0
 105 360 70 395 70 435 c 0
 70 475 105 510 145 510 c 0
 185 510 220 475 220 435 c 0
 220 395 185 360 145 360 c 0
65 -200 m 1
 85 300 l 1
 205 300 l 1
 225 -200 l 1
 65 -200 l 1
EndSplineSet
EndChar

StartChar: cent
Encoding: 162 162 100
Width: 475
Flags: MW
HStem: -70 150<205 311 257.5 311 257.5 335> -6 21G<335 335> 0 21G<205 205> 420 140<253 301> 480 20G<205 205> 485 20G<335 335>
VStem: 40 140<185 315 185 322.5> 205 130<-70 -6 -70 0 -70 0 505 560>
LayerCount: 2
Fore
SplineSet
205 -70 m 1x00
 205 0 l 1x2a
 94 25 40 105 40 250 c 0x2b
 40 395 100 475 205 500 c 1x33
 205 560 l 1
 335 560 l 1x27
 335 505 l 1
 367 497 395 486 414 477 c 0
 425 472 436 466 445 460 c 1x92
 400 380 l 1
 390 380 l 1
 382 387 373 394 362 400 c 0
 343 411 317 420 285 420 c 0
 221 420 180 380 180 250 c 0
 180 120 220 80 295 80 c 0
 327 80 353 89 372 100 c 0
 383 106 392 113 400 120 c 1
 410 120 l 1
 455 40 l 1x47
 444 33 433 27 421 21 c 0
 400 10 370 -1 335 -6 c 1x87
 335 -70 l 1
 205 -70 l 1x00
EndSplineSet
EndChar

StartChar: sterling
Encoding: 163 163 101
Width: 505
Flags: MW
HStem: 0 90<35 35 175 495> 320 90<55 110 55 110 250 375> 620 90<295 331>
VStem: 110 140<240 320 212 320 410 540>
LayerCount: 2
Fore
SplineSet
35 0 m 1
 35 90 l 1
 48 99 61 110 72 124 c 0
 91 148 110 184 110 240 c 2
 110 320 l 1
 55 320 l 1
 55 410 l 1
 110 410 l 1
 110 540 l 2
 110 636 185 710 305 710 c 0
 357 710 401 697 432 682 c 0
 450 674 466 665 480 655 c 1
 435 575 l 1
 425 575 l 1
 416 583 405 590 394 597 c 0
 375 608 347 620 315 620 c 0
 275 620 250 591 250 540 c 2
 250 410 l 1
 375 410 l 1
 375 320 l 1
 250 320 l 1
 250 240 l 2
 250 184 231 148 212 124 c 0
 201 110 188 99 175 90 c 1
 495 90 l 1
 495 0 l 1
 35 0 l 1
EndSplineSet
EndChar

StartChar: currency
Encoding: 164 164 102
Width: 600
Flags: MW
HStem: 0 230<20 90 20 230> 275 75<20 90 20 90 230 290> 610 90<230 290 230 230>
VStem: 90 140<0 155 0 155 230 275 0 275 350 610> 420 140<436.5 523.5>
LayerCount: 2
Fore
SplineSet
90 0 m 1
 90 155 l 1
 20 155 l 1
 20 230 l 1
 90 230 l 1
 90 275 l 1
 20 275 l 1
 20 350 l 1
 90 350 l 1
 90 700 l 1
 290 700 l 2
 470 700 560 611 560 480 c 0
 560 355 479 275 290 275 c 2
 230 275 l 1
 230 230 l 1
 470 230 l 1
 470 155 l 1
 230 155 l 1
 230 0 l 1
 90 0 l 1
230 350 m 1
 290 350 l 2
 377 350 420 393 420 480 c 0
 420 567 377 610 290 610 c 2
 230 610 l 1
 230 350 l 1
EndSplineSet
EndChar

StartChar: yen
Encoding: 165 165 103
Width: 570
Flags: MW
HStem: 0 21G<215 215 215 355> 170 85<75 200 75 215 75 200 370 495> 300 85<75 145 75 180 75 145 425 495> 680 20G<0 145 145 145 425 570 570 570>
VStem: 215 140<0 170 0 170>
LayerCount: 2
Fore
SplineSet
215 0 m 1
 215 170 l 1
 75 170 l 1
 75 255 l 1
 200 255 l 1
 180 300 l 1
 75 300 l 1
 75 385 l 1
 145 385 l 1
 0 700 l 1
 145 700 l 1
 270 405 l 1
 280 375 l 1
 283 360 l 1
 287 360 l 1
 290 375 l 2
 293 384 295 394 300 405 c 2
 425 700 l 1
 570 700 l 1
 425 385 l 1
 495 385 l 1
 495 300 l 1
 390 300 l 1
 370 255 l 1
 495 255 l 1
 495 170 l 1
 355 170 l 1
 355 0 l 1
 215 0 l 1
EndSplineSet
EndChar

StartChar: brokenbar
Encoding: 166 166 104
Width: 310
Flags: MW
HStem: 680 20G<85 225 225 225>
VStem: 85 140<-200 190 -200 190 310 700>
LayerCount: 2
Fore
SplineSet
85 310 m 1
 85 700 l 1
 225 700 l 1
 225 310 l 1
 85 310 l 1
85 -200 m 1
 85 190 l 1
 225 190 l 1
 225 -200 l 1
 85 -200 l 1
EndSplineSet
EndChar

StartChar: section
Encoding: 167 167 105
Width: 540
Flags: MW
HStem: -210 90<222 278 220.5 332> 620 90<252 298.5 197.5 300>
VStem: 40 135<250 287.5 250 288> 50 140<507.5 562.5 480 582> 350 140<-62.5 -7.5 -82 20> 365 135<217.5 255>
LayerCount: 2
Fore
SplineSet
250 -210 m 0xd4
 194 -210 149 -197 114 -182 c 0
 94 -174 76 -165 60 -154 c 1
 105 -74 l 1
 115 -74 l 1
 125 -83 136 -90 149 -97 c 0
 172 -109 201 -120 240 -120 c 0
 316 -120 350 -85 350 -40 c 0
 350 80 40 49 40 260 c 0
 40 316 61 351 82 374 c 0
 94 387 108 397 125 405 c 1xe8
 111 412 98 422 87 434 c 0
 68 454 50 485 50 530 c 0
 50 634 125 710 270 710 c 0
 327 710 376 697 411 682 c 0
 431 674 449 665 465 655 c 1
 420 575 l 1
 410 575 l 1
 399 583 388 590 375 597 c 0
 352 608 320 620 280 620 c 0
 224 620 190 585 190 540 c 0
 190 420 500 450 500 240 c 0
 500 184 478 149 457 126 c 0
 445 113 431 102 415 95 c 1xd4
 428 88 441 78 452 66 c 0
 471 46 490 15 490 -30 c 0xd8
 490 -134 414 -210 250 -210 c 0xd4
310 155 m 1
 320 158 329 162 337 169 c 0
 352 180 365 200 365 235 c 0
 365 275 332 303 297 322 c 0
 277 333 255 343 230 350 c 1
 219 347 210 343 202 336 c 0
 187 325 175 305 175 270 c 0
 175 230 207 201 242 182 c 0xe4
 262 171 285 162 310 155 c 1
EndSplineSet
EndChar

StartChar: dieresis
Encoding: 168 168 106
Width: 355
Flags: MW
HStem: 570 140<61.5 98.5 256.5 293.5>
VStem: 10 140<621.5 658.5> 205 140<621.5 658.5>
LayerCount: 2
Fore
SplineSet
80 570 m 0
 43 570 10 603 10 640 c 0
 10 677 43 710 80 710 c 0
 117 710 150 677 150 640 c 0
 150 603 117 570 80 570 c 0
275 570 m 0
 238 570 205 603 205 640 c 0
 205 677 238 710 275 710 c 0
 312 710 345 677 345 640 c 0
 345 603 312 570 275 570 c 0
EndSplineSet
EndChar

StartChar: copyright
Encoding: 169 169 107
Width: 910
Flags: MW
HStem: -40 90<369.5 540.5 369.5 575> 125 80<457 496.5> 495 80<452.5 486.5 407.5 487.5> 650 90<369.5 540.5>
VStem: 40 120<262.5 437.5 262.5 458> 265 120<300 400 300 420> 750 120<262.5 437.5>
LayerCount: 2
Fore
SplineSet
455 -40 m 0
 215 -40 40 134 40 350 c 0
 40 566 215 740 455 740 c 0
 695 740 870 566 870 350 c 0
 870 134 695 -40 455 -40 c 0
455 50 m 0
 626 50 750 175 750 350 c 0
 750 525 626 650 455 650 c 0
 284 650 160 525 160 350 c 0
 160 175 284 50 455 50 c 0
475 125 m 0
 350 125 265 210 265 350 c 0
 265 490 350 575 465 575 c 0
 508 575 546 562 573 550 c 0
 589 543 603 534 615 525 c 1
 575 460 l 1
 566 460 l 1
 557 466 548 472 539 477 c 0
 522 486 500 495 475 495 c 0
 430 495 385 450 385 350 c 0
 385 250 429 205 485 205 c 0
 510 205 532 213 549 222 c 0
 558 227 567 233 576 240 c 1
 585 240 l 1
 625 175 l 1
 613 166 599 157 583 150 c 0
 556 137 518 125 475 125 c 0
EndSplineSet
EndChar

StartChar: ordfeminine
Encoding: 170 170 108
Width: 380
Flags: MW
HStem: 350 80<107 186> 490 75<170 225 185 225> 635 75<165 185>
VStem: 25 115<450 470 450 487.5> 225 120<455 490 490 490 565 580 360 598.5>
LayerCount: 2
Fore
SplineSet
145 350 m 0
 69 350 25 395 25 455 c 0
 25 520 70 565 185 565 c 2
 225 565 l 1
 225 580 l 2
 225 617 205 635 165 635 c 0
 146 635 129 627 116 620 c 2
 94 605 l 1
 84 605 l 1
 48 665 l 1
 59 673 72 680 86 687 c 0
 110 698 145 710 185 710 c 0
 296 710 345 660 345 580 c 2
 345 360 l 1
 251 360 l 1
 245 395 l 1
 240 395 l 1
 234 386 226 379 217 372 c 0
 201 361 177 350 145 350 c 0
180 430 m 0
 192 430 204 435 212 442 c 0
 217 445 221 450 225 455 c 1
 225 490 l 1
 185 490 l 2
 155 490 140 480 140 460 c 0
 140 440 153 430 180 430 c 0
EndSplineSet
EndChar

StartChar: guillemotleft
Encoding: 171 171 109
Width: 520
Flags: MW
HStem: -5 21G<235 235> 485 20G<235 235>
VStem: 10 490<115 250>
LayerCount: 2
Fore
SplineSet
235 -5 m 1
 10 250 l 1
 235 505 l 1
 316 430 l 1
 160 250 l 1
 316 70 l 1
 235 -5 l 1
420 40 m 1
 235 250 l 1
 420 460 l 1
 500 385 l 1
 385 250 l 1
 500 115 l 1
 420 40 l 1
EndSplineSet
EndChar

StartChar: logicalnot
Encoding: 172 172 110
Width: 500
Flags: MW
HStem: 320 100<35 355 35 465>
VStem: 355 110<230 320 320 320>
LayerCount: 2
Fore
SplineSet
355 230 m 1
 355 320 l 1
 35 320 l 1
 35 420 l 1
 465 420 l 1
 465 230 l 1
 355 230 l 1
EndSplineSet
EndChar

StartChar: uni00AD
Encoding: 173 173 111
Width: 460
Flags: MW
HStem: 280 100<35 425 35 425>
VStem: 35 390<280 380 280 380>
LayerCount: 2
Fore
SplineSet
35 280 m 1
 35 380 l 1
 425 380 l 1
 425 280 l 1
 35 280 l 1
EndSplineSet
EndChar

StartChar: registered
Encoding: 174 174 112
Width: 910
Flags: MW
HStem: -40 90<369.5 540.5 369.5 575> 275 80<410 449 410 450> 485 80<410 450 410 410> 650 90<369.5 540.5>
VStem: 40 120<262.5 437.5 262.5 458> 290 120<135 275 355 485> 522 118<400 440> 750 120<262.5 437.5>
LayerCount: 2
Fore
SplineSet
455 -40 m 0
 215 -40 40 134 40 350 c 0
 40 566 215 740 455 740 c 0
 695 740 870 566 870 350 c 0
 870 134 695 -40 455 -40 c 0
455 50 m 0
 626 50 750 175 750 350 c 0
 750 525 626 650 455 650 c 0
 284 650 160 525 160 350 c 0
 160 175 284 50 455 50 c 0
290 135 m 1
 290 565 l 1
 450 565 l 2
 581 565 640 505 640 420 c 0
 640 349 600 310 560 295 c 1
 655 135 l 1
 525 135 l 1
 449 275 l 1
 410 275 l 1
 410 135 l 1
 290 135 l 1
410 355 m 1
 450 355 l 2
 501 355 522 380 522 420 c 0
 522 460 501 485 450 485 c 2
 410 485 l 1
 410 355 l 1
EndSplineSet
EndChar

StartChar: macron
Encoding: 175 175 113
Width: 310
Flags: MW
HStem: 570 90<10 300 10 300>
VStem: 10 290<570 660 570 660>
LayerCount: 2
Fore
SplineSet
10 570 m 1
 10 660 l 1
 300 660 l 1
 300 570 l 1
 10 570 l 1
EndSplineSet
EndChar

StartChar: degree
Encoding: 176 176 114
Width: 440
Flags: MW
HStem: 370 80<200 240 200 278> 630 80<200 240>
VStem: 35 115<510 570 510 590> 290 115<510 570>
LayerCount: 2
Fore
SplineSet
220 370 m 0
 104 370 35 440 35 540 c 0
 35 640 104 710 220 710 c 0
 336 710 405 640 405 540 c 0
 405 440 336 370 220 370 c 0
220 450 m 0
 260 450 290 480 290 540 c 0
 290 600 260 630 220 630 c 0
 180 630 150 600 150 540 c 0
 150 480 180 450 220 450 c 0
EndSplineSet
EndChar

StartChar: plusminus
Encoding: 177 177 115
Width: 500
Flags: MW
HStem: 75 100<35 200 35 200 300 465> 300 100<35 200 35 200 300 465>
VStem: 200 100<175 300 175 300 400 565>
LayerCount: 2
Fore
SplineSet
35 75 m 1
 35 175 l 1
 200 175 l 1
 200 300 l 1
 35 300 l 1
 35 400 l 1
 200 400 l 1
 200 565 l 1
 300 565 l 1
 300 400 l 1
 465 400 l 1
 465 300 l 1
 300 300 l 1
 300 175 l 1
 465 175 l 1
 465 75 l 1
 35 75 l 1
EndSplineSet
EndChar

StartChar: uni00B2
Encoding: 178 178 116
Width: 355
Flags: MW
HStem: 360 80<155 320 155 320> 630 80<155 170.5>
VStem: 35 120<360 465.5 440 465.5 440 483> 200 120<569.5 605>
LayerCount: 2
Fore
SplineSet
35 360 m 1
 35 420 l 2
 35 546 200 544 200 595 c 0
 200 615 186 630 155 630 c 0
 136 630 119 622 106 615 c 2
 84 600 l 1
 74 600 l 1
 38 665 l 1
 49 673 62 680 76 687 c 0
 100 698 135 710 175 710 c 0
 271 710 320 660 320 595 c 0
 320 490 155 491 155 440 c 1
 320 440 l 1
 320 360 l 1
 35 360 l 1
EndSplineSet
EndChar

StartChar: uni00B3
Encoding: 179 179 117
Width: 361
Flags: MW
HStem: 350 80<152 166.5 142.5 222> 500 65<81 206> 620 80<51 186 51 301>
VStem: 51 250<620 700 615 700> 196 130<455 475>
LayerCount: 2
Fore
SplineSet
172 350 m 0xe8
 132 350 97 361 73 372 c 0
 59 379 46 386 35 395 c 1
 71 460 l 1
 81 460 l 1
 88 454 96 449 103 445 c 0
 116 437 133 430 152 430 c 0
 181 430 196 445 196 465 c 0
 196 485 182 500 147 500 c 2xe8
 81 500 l 1
 81 560 l 1
 186 620 l 1
 51 620 l 1
 51 700 l 1
 301 700 l 1
 301 615 l 1xf0
 206 565 l 1
 282 560 326 516 326 460 c 0
 326 405 272 350 172 350 c 0xe8
EndSplineSet
EndChar

StartChar: acute
Encoding: 180 180 118
Width: 200
Flags: MW
HStem: 550 150<10 190 55 90>
VStem: 10 180<550 700>
LayerCount: 2
Fore
SplineSet
10 550 m 1
 55 700 l 1
 190 700 l 1
 90 550 l 1
 10 550 l 1
EndSplineSet
EndChar

StartChar: uni00B5
Encoding: 181 181 119
Width: 580
Flags: MW
HStem: -10 95<270 298.5 262.5 300> 0 21G<410 510 410 410> 480 20G<70 210 210 210 370 510 510 510>
VStem: 70 140<-160 20 147.5 180 180 500> 370 140<145 500 0 500>
LayerCount: 2
Fore
SplineSet
70 -200 m 1x78
 70 500 l 1
 210 500 l 1
 210 180 l 2
 210 115 240 85 285 85 c 0
 312 85 333 100 348 115 c 0
 356 124 363 134 370 145 c 1xb8
 370 500 l 1
 510 500 l 1
 510 0 l 1
 410 0 l 1
 400 60 l 1
 395 60 l 1x78
 388 47 378 35 367 25 c 0
 348 6 320 -10 280 -10 c 0
 260 -10 242 -3 230 5 c 0
 223 9 216 14 210 20 c 1xb8
 210 -160 l 1
 170 -200 l 1
 70 -200 l 1x78
EndSplineSet
EndChar

StartChar: paragraph
Encoding: 182 182 120
Width: 580
Flags: MW
HStem: 610 90<340 390 340 340 510 570 510 510>
VStem: 220 120<-200 250 250 250 -200 700> 390 120<-200 610 -200 610>
LayerCount: 2
Fore
SplineSet
220 -200 m 1
 220 250 l 1
 100 250 10 339 10 475 c 0
 10 611 100 700 220 700 c 2
 570 700 l 1
 570 610 l 1
 510 610 l 1
 510 -200 l 1
 390 -200 l 1
 390 610 l 1
 340 610 l 1
 340 -200 l 1
 220 -200 l 1
EndSplineSet
EndChar

StartChar: periodcentered
Encoding: 183 183 121
Width: 300
Flags: MW
HStem: 275 150<130 170>
VStem: 75 150<330 370>
LayerCount: 2
Fore
SplineSet
150 275 m 0
 110 275 75 310 75 350 c 0
 75 390 110 425 150 425 c 0
 190 425 225 390 225 350 c 0
 225 310 190 275 150 275 c 0
EndSplineSet
EndChar

StartChar: cedilla
Encoding: 184 184 122
Width: 215
Flags: MW
HStem: -195 55<82.5 95 72.5 130.5> -80 100<35 85 35 110>
VStem: 35 75<-25 20 -25 20 -25 20> 120 85<-120 -100>
LayerCount: 2
Fore
SplineSet
95 -195 m 0
 70 -195 49 -190 34 -185 c 0
 25 -182 17 -179 10 -175 c 1
 31 -125 l 1
 40 -125 l 2
 39 -125 60 -140 85 -140 c 0
 105 -140 120 -130 120 -110 c 0
 120 -90 105 -80 85 -80 c 2
 35 -80 l 1
 35 20 l 1
 110 20 l 1
 110 -25 l 1
 166 -25 205 -65 205 -110 c 0
 205 -155 166 -195 95 -195 c 0
EndSplineSet
EndChar

StartChar: uni00B9
Encoding: 185 185 123
Width: 315
Flags: MW
HStem: 360 80<35 105 35 105 225 295> 680 20G<115 225 225 225>
VStem: 105 120<440 595 595 595>
LayerCount: 2
Fore
SplineSet
35 360 m 1
 35 440 l 1
 105 440 l 1
 105 595 l 1
 55 570 l 1
 20 620 l 1
 115 700 l 1
 225 700 l 1
 225 440 l 1
 295 440 l 1
 295 360 l 1
 35 360 l 1
EndSplineSet
EndChar

StartChar: ordmasculine
Encoding: 186 186 124
Width: 420
Flags: MW
HStem: 350 80<194.5 224.5 194.5 260> 630 80<194.5 224.5>
VStem: 35 120<492.5 567.5 492.5 582> 265 120<492.5 567.5>
LayerCount: 2
Fore
SplineSet
210 350 m 0
 110 350 35 426 35 530 c 0
 35 634 110 710 210 710 c 0
 310 710 385 634 385 530 c 0
 385 426 310 350 210 350 c 0
210 430 m 0
 239 430 265 455 265 530 c 0
 265 605 239 630 210 630 c 0
 179 630 155 605 155 530 c 0
 155 455 179 430 210 430 c 0
EndSplineSet
EndChar

StartChar: guillemotright
Encoding: 187 187 125
Width: 520
Flags: MW
HStem: -5 21G<285 285> 485 20G<285 285>
VStem: 20 490<115 250 250 385>
LayerCount: 2
Fore
SplineSet
285 -5 m 1
 204 70 l 1
 360 250 l 1
 204 430 l 1
 285 505 l 1
 510 250 l 1
 285 -5 l 1
100 40 m 1
 20 115 l 1
 135 250 l 1
 20 385 l 1
 100 460 l 1
 285 250 l 1
 100 40 l 1
EndSplineSet
EndChar

StartChar: onequarter
Encoding: 188 188 126
Width: 790
GlyphClass: 3
Flags: MW
HStem: 0 140<590 590 710 710> 60 80<520 590 425 425 710 755> 235 105<591 710 591 710> 360 80<40 110 40 110 230 300> 680 20G<130 230 230 230 575 725 725 725>
VStem: 110 120<440 595 595 595> 590 120<0 60 0 60 140 205 205 207.5>
LayerCount: 2
Fore
SplineSet
40 360 m 1x9e
 40 440 l 1
 110 440 l 1
 110 595 l 1
 60 570 l 1
 25 620 l 1
 130 700 l 1
 230 700 l 1
 230 440 l 1
 300 440 l 1
 300 360 l 1
 40 360 l 1x9e
105 0 m 1
 575 700 l 1
 725 700 l 1
 255 0 l 1
 105 0 l 1
590 0 m 1
 590 60 l 1
 425 60 l 1
 425 140 l 1x5e
 595 340 l 1
 710 340 l 1
 710 140 l 1
 755 140 l 1xbe
 755 60 l 1
 710 60 l 1x5e
 710 0 l 1
 590 0 l 1
520 140 m 1xbe
 590 140 l 1
 590 205 l 2
 590 210 591 217 592 224 c 2
 595 235 l 1
 591 235 l 1
 590 231 589 227 587 224 c 0
 584 217 580 209 575 204 c 2
 520 140 l 1xbe
EndSplineSet
Ligature2: "'frac' Diagonal Fractions in Latin lookup 13 subtable" one slash four
Ligature2: "'frac' Diagonal Fractions in Latin lookup 12 subtable" one slash four
Ligature2: "'frac' Diagonal Fractions lookup 11 subtable" one slash four
EndChar

StartChar: onehalf
Encoding: 189 189 127
Width: 805
GlyphClass: 3
Flags: MW
HStem: 0 80<595 760 595 760> 270 80<595 610.5> 360 80<40 110 40 110 230 300> 680 20G<130 230 230 230 575 725 725 725>
VStem: 110 120<440 595 595 595> 475 120<0 105.5 80 105.5 80 123> 640 120<209.5 245>
LayerCount: 2
Fore
SplineSet
40 360 m 1
 40 440 l 1
 110 440 l 1
 110 595 l 1
 60 570 l 1
 25 620 l 1
 130 700 l 1
 230 700 l 1
 230 440 l 1
 300 440 l 1
 300 360 l 1
 40 360 l 1
105 0 m 1
 575 700 l 1
 725 700 l 1
 255 0 l 1
 105 0 l 1
475 0 m 1
 475 60 l 2
 475 186 640 184 640 235 c 0
 640 255 626 270 595 270 c 0
 576 270 559 262 546 255 c 2
 524 240 l 1
 514 240 l 1
 478 305 l 1
 489 313 502 320 516 327 c 0
 540 338 575 350 615 350 c 0
 711 350 760 300 760 235 c 0
 760 130 595 131 595 80 c 1
 760 80 l 1
 760 0 l 1
 475 0 l 1
EndSplineSet
Ligature2: "'frac' Diagonal Fractions in Latin lookup 13 subtable" one slash two
Ligature2: "'frac' Diagonal Fractions in Latin lookup 12 subtable" one slash two
Ligature2: "'frac' Diagonal Fractions lookup 11 subtable" one slash two
EndChar

StartChar: threequarters
Encoding: 190 190 128
Width: 776
GlyphClass: 3
Flags: MW
HStem: 0 140<576 576 696 696> 60 80<506 576 411 411 696 741> 235 105<577 696 577 696> 350 80<142 156.5 132.5 212> 500 65<71 196> 620 80<41 176 41 291>
VStem: 41 250<620 700 615 700> 186 130<455 475> 576 120<0 60 0 60 140 205 205 207.5>
LayerCount: 2
Fore
SplineSet
162 350 m 0x9d80
 122 350 87 361 63 372 c 0
 49 379 36 386 25 395 c 1
 61 460 l 1
 71 460 l 1
 78 454 86 449 93 445 c 0
 106 437 123 430 142 430 c 0
 171 430 186 445 186 465 c 0
 186 485 172 500 137 500 c 2x9d80
 71 500 l 1
 71 560 l 1
 176 620 l 1
 41 620 l 1
 41 700 l 1
 291 700 l 1
 291 615 l 1x9e80
 196 565 l 1
 272 560 316 516 316 460 c 0
 316 405 262 350 162 350 c 0x9d80
91 0 m 1
 561 700 l 1
 711 700 l 1
 241 0 l 1
 91 0 l 1
576 0 m 1
 576 60 l 1
 411 60 l 1
 411 140 l 1x5d80
 581 340 l 1
 696 340 l 1
 696 140 l 1
 741 140 l 1xbd80
 741 60 l 1
 696 60 l 1x5d80
 696 0 l 1
 576 0 l 1
506 140 m 1xbd80
 576 140 l 1
 576 205 l 2
 576 210 577 217 578 224 c 2
 581 235 l 1
 577 235 l 1
 576 231 575 227 573 224 c 0
 570 217 566 209 561 204 c 2
 506 140 l 1xbd80
EndSplineSet
Ligature2: "'frac' Diagonal Fractions in Latin lookup 13 subtable" three slash four
Ligature2: "'frac' Diagonal Fractions in Latin lookup 12 subtable" three slash four
Ligature2: "'frac' Diagonal Fractions lookup 11 subtable" three slash four
EndChar

StartChar: questiondown
Encoding: 191 191 129
Width: 490
Flags: MW
HStem: -210 90<255 318.5 255 319> 360 150<275 315>
VStem: 35 140<-55.5 35 -55.5 70.5> 220 150<415 455>
LayerCount: 2
Fore
SplineSet
295 360 m 0
 255 360 220 395 220 435 c 0
 220 475 255 510 295 510 c 0
 335 510 370 475 370 435 c 0
 370 395 335 360 295 360 c 0
285 -210 m 0
 114 -210 35 -130 35 -20 c 0
 35 161 230 159 230 270 c 2
 230 300 l 1
 360 300 l 1
 360 270 l 2xf0
 360 99 175 100 175 -30 c 0
 175 -81 215 -120 295 -120 c 0
 342 -120 378 -109 401 -98 c 0
 414 -91 426 -84 435 -75 c 1
 445 -75 l 1
 490 -155 l 1
 475 -166 458 -175 438 -183 c 0
 403 -198 353 -210 285 -210 c 0
EndSplineSet
EndChar

StartChar: Agrave
Encoding: 192 192 130
Width: 600
Flags: MW
HStem: 0 21G<15 15 15 155 445 445 445 585> 160 90<225 375 225 400 200 375> 535 165<298 302 298 298> 680 20G<220 380 380 380> 750 150<272 272 272 307 172 352>
VStem: 15 570<0 0>
LayerCount: 2
Fore
SplineSet
272 750 m 1xdc
 172 900 l 1
 307 900 l 1
 352 750 l 1
 272 750 l 1xdc
15 0 m 1
 220 700 l 1
 380 700 l 1
 585 0 l 1
 445 0 l 1
 400 160 l 1
 200 160 l 1
 155 0 l 1
 15 0 l 1
225 250 m 1
 375 250 l 1
 315 460 l 2
 310 476 308 494 305 509 c 2
 302 535 l 1
 298 535 l 1
 294 509 l 2
 291 494 289 475 285 460 c 2xec
 225 250 l 1
EndSplineSet
EndChar

StartChar: Aacute
Encoding: 193 193 131
Width: 600
Flags: MW
HStem: 0 21G<15 15 15 155 445 445 445 585> 160 90<225 375 225 400 200 375> 535 165<298 302 298 298> 680 20G<220 380 380 380> 750 150<237 417 282 317>
VStem: 15 570<0 0>
LayerCount: 2
Fore
SplineSet
237 750 m 1xdc
 282 900 l 1
 417 900 l 1
 317 750 l 1
 237 750 l 1xdc
15 0 m 1
 220 700 l 1
 380 700 l 1
 585 0 l 1
 445 0 l 1
 400 160 l 1
 200 160 l 1
 155 0 l 1
 15 0 l 1
225 250 m 1
 375 250 l 1
 315 460 l 2
 310 476 308 494 305 509 c 2
 302 535 l 1
 298 535 l 1
 294 509 l 2
 291 494 289 475 285 460 c 2xec
 225 250 l 1
EndSplineSet
EndChar

StartChar: Acircumflex
Encoding: 194 194 132
Width: 600
Flags: MW
HStem: 0 21G<15 15 15 155 445 445 445 585> 160 90<225 375 225 400 200 375> 535 165<298 302 298 298> 680 20G<220 380 380 380> 750 134<140 350 140 350 250 365 250 460>
VStem: 15 570<0 0>
LayerCount: 2
Fore
SplineSet
140 750 m 1xdc
 250 884 l 1
 350 884 l 1
 460 750 l 1
 365 750 l 1
 300 820 l 1
 235 750 l 1
 140 750 l 1xdc
15 0 m 1
 220 700 l 1
 380 700 l 1
 585 0 l 1
 445 0 l 1
 400 160 l 1
 200 160 l 1
 155 0 l 1
 15 0 l 1
225 250 m 1
 375 250 l 1
 315 460 l 2
 310 476 308 494 305 509 c 2
 302 535 l 1
 298 535 l 1
 294 509 l 2
 291 494 289 475 285 460 c 2xec
 225 250 l 1
EndSplineSet
EndChar

StartChar: Atilde
Encoding: 195 195 133
Width: 600
Flags: MW
HStem: 0 21G<15 155 15 15 445 585 445 445> 160 90<225 375 225 400 200 375> 535 165<298 302 298 298> 680 20G<220 380 380 380> 755 90<327.5 345 327.5 380.5> 800 90<245 262.5>
VStem: 15 570<0 0>
LayerCount: 2
Fore
SplineSet
205 760 m 2xd6
 196 760 l 1
 140 790 l 1
 145 841 184 890 235 890 c 0xd6
 290 890 310 845 345 845 c 0
 369 844 386 884 385 885 c 2
 394 885 l 1
 450 855 l 1
 445 804 406 755 355 755 c 0xda
 300 755 280 800 245 800 c 0
 220 799 205 761 205 760 c 2xd6
380 700 m 1
 585 0 l 1
 445 0 l 1
 400 160 l 1
 200 160 l 1
 155 0 l 1
 15 0 l 1
 220 700 l 1
 380 700 l 1
225 250 m 1
 375 250 l 1
 315 460 l 2
 310 476 308 494 305 509 c 2
 302 535 l 1
 298 535 l 1
 294 509 l 2
 291 494 289 475 285 460 c 2xe6
 225 250 l 1
EndSplineSet
EndChar

StartChar: Adieresis
Encoding: 196 196 134
Width: 600
Flags: MW
HStem: 0 21G<15 15 15 155 445 445 445 585> 160 90<225 375 225 400 200 375> 535 165<298 302 298 298> 680 20G<220 380 380 380> 760 140<181.5 218.5 376.5 413.5>
VStem: 130 140<811.5 848.5> 325 140<811.5 848.5>
LayerCount: 2
Fore
SplineSet
200 760 m 0xde
 163 760 130 793 130 830 c 0
 130 867 163 900 200 900 c 0
 237 900 270 867 270 830 c 0
 270 793 237 760 200 760 c 0xde
395 760 m 0
 358 760 325 793 325 830 c 0
 325 867 358 900 395 900 c 0
 432 900 465 867 465 830 c 0
 465 793 432 760 395 760 c 0
15 0 m 1
 220 700 l 1
 380 700 l 1
 585 0 l 1
 445 0 l 1
 400 160 l 1
 200 160 l 1
 155 0 l 1
 15 0 l 1
225 250 m 1
 375 250 l 1
 315 460 l 2
 310 476 308 494 305 509 c 2
 302 535 l 1
 298 535 l 1
 294 509 l 2
 291 494 289 475 285 460 c 2xee
 225 250 l 1
EndSplineSet
EndChar

StartChar: Aring
Encoding: 197 197 135
Width: 600
Flags: MW
HStem: 0 21G<15 15 15 155 445 445 445 585> 160 90<225 375 225 400 200 375> 535 165<298 302 298 298> 680 20G<220 380 380 380> 745 65<290 310 290 332.5> 890 65<290 310>
VStem: 190 75<837.5 862.5 837.5 880> 335 75<837.5 862.5>
LayerCount: 2
Fore
SplineSet
300 745 m 0xdf
 235 745 190 790 190 850 c 0
 190 910 235 955 300 955 c 0
 365 955 410 910 410 850 c 0
 410 790 365 745 300 745 c 0xdf
300 810 m 0
 320 810 335 825 335 850 c 0
 335 875 320 890 300 890 c 0
 280 890 265 875 265 850 c 0
 265 825 280 810 300 810 c 0
15 0 m 1
 220 700 l 1
 380 700 l 1
 585 0 l 1
 445 0 l 1
 400 160 l 1
 200 160 l 1
 155 0 l 1
 15 0 l 1
225 250 m 1
 375 250 l 1
 315 460 l 2
 310 476 308 494 305 509 c 2
 302 535 l 1
 298 535 l 1
 294 509 l 2
 291 494 289 475 285 460 c 2xef
 225 250 l 1
EndSplineSet
EndChar

StartChar: AE
Encoding: 198 198 136
Width: 845
Flags: MW
HStem: 0 90<540 820 540 820> 190 90<235 400 235 400 195 400> 320 90<540 760 540 760> 610 90<370 400 370 370 540 820 540 540>
VStem: 400 140<90 190 190 190 280 320 410 610>
LayerCount: 2
Fore
SplineSet
-25 0 m 1
 270 700 l 1
 820 700 l 1
 820 610 l 1
 540 610 l 1
 540 410 l 1
 760 410 l 1
 760 320 l 1
 540 320 l 1
 540 90 l 1
 820 90 l 1
 820 0 l 1
 400 0 l 1
 400 190 l 1
 195 190 l 1
 115 0 l 1
 -25 0 l 1
235 280 m 1
 400 280 l 1
 400 610 l 1
 370 610 l 1
 235 280 l 1
EndSplineSet
EndChar

StartChar: Ccedilla
Encoding: 199 199 137
Width: 535
Flags: MW
HStem: -195 55<307.5 320 297.5 355.5> -80 55<260 363> -10 90<335 335> -4 21G<260 260> 620 90<290 348.5>
VStem: 50 140<244.5 455.5 244.5 477.5> 260 75<-25 -10 -25 -4 -25 -4> 345 85<-120 -100>
LayerCount: 2
Fore
SplineSet
466 17 m 0x00
 435 2 390 -9 335 -10 c 1xde
 335 -25 l 1xdf
 391 -25 430 -65 430 -110 c 0
 430 -155 391 -195 320 -195 c 0
 295 -195 274 -190 259 -185 c 0
 250 -182 242 -179 235 -175 c 1
 256 -125 l 1
 265 -125 l 2
 264 -125 285 -140 310 -140 c 0
 330 -140 345 -130 345 -110 c 0
 345 -90 330 -80 310 -80 c 2xde
 260 -80 l 1x9e
 260 -4 l 1xae
 127 23 50 131 50 350 c 0
 50 605 155 710 320 710 c 0
 377 710 424 697 456 682 c 0
 475 674 491 665 505 655 c 1
 460 575 l 1
 450 575 l 1
 441 583 430 590 418 597 c 0
 397 608 367 620 330 620 c 0
 250 620 190 561 190 350 c 0
 190 139 250 80 340 80 c 0
 377 80 407 91 428 102 c 0
 440 109 451 116 460 125 c 1
 470 125 l 1
 515 45 l 1
 501 34 485 25 466 17 c 0x00
EndSplineSet
EndChar

StartChar: Egrave
Encoding: 200 200 138
Width: 530
Flags: MW
HStem: 0 90<225 505 225 505> 320 90<225 445 225 445> 610 90<225 505 225 225> 750 150<285 285 285 320 185 365>
VStem: 85 140<90 320 410 610>
LayerCount: 2
Fore
SplineSet
285 750 m 1
 185 900 l 1
 320 900 l 1
 365 750 l 1
 285 750 l 1
85 0 m 1
 85 700 l 1
 505 700 l 1
 505 610 l 1
 225 610 l 1
 225 410 l 1
 445 410 l 1
 445 320 l 1
 225 320 l 1
 225 90 l 1
 505 90 l 1
 505 0 l 1
 85 0 l 1
EndSplineSet
EndChar

StartChar: Eacute
Encoding: 201 201 139
Width: 530
Flags: MW
HStem: 0 90<225 505 225 505> 320 90<225 445 225 445> 610 90<225 505 225 225> 750 150<230 410 275 310>
VStem: 85 140<90 320 410 610>
LayerCount: 2
Fore
SplineSet
230 750 m 1
 275 900 l 1
 410 900 l 1
 310 750 l 1
 230 750 l 1
85 0 m 1
 85 700 l 1
 505 700 l 1
 505 610 l 1
 225 610 l 1
 225 410 l 1
 445 410 l 1
 445 320 l 1
 225 320 l 1
 225 90 l 1
 505 90 l 1
 505 0 l 1
 85 0 l 1
EndSplineSet
EndChar

StartChar: Ecircumflex
Encoding: 202 202 140
Width: 530
Flags: MW
HStem: 0 90<225 505 225 505> 320 90<225 445 225 445> 610 90<225 505 225 225> 760 134<142 352 142 352 252 367 252 462>
VStem: 85 140<90 320 410 610>
LayerCount: 2
Fore
SplineSet
142 760 m 1
 252 894 l 1
 352 894 l 1
 462 760 l 1
 367 760 l 1
 302 830 l 1
 237 760 l 1
 142 760 l 1
85 0 m 1
 85 700 l 1
 505 700 l 1
 505 610 l 1
 225 610 l 1
 225 410 l 1
 445 410 l 1
 445 320 l 1
 225 320 l 1
 225 90 l 1
 505 90 l 1
 505 0 l 1
 85 0 l 1
EndSplineSet
EndChar

StartChar: Edieresis
Encoding: 203 203 141
Width: 530
Flags: MW
HStem: 0 90<225 505 225 505> 320 90<225 445 225 445> 610 90<225 505 225 225> 770 140<183.5 220.5 378.5 415.5>
VStem: 132 140<821.5 858.5> 327 140<821.5 858.5>
LayerCount: 2
Fore
SplineSet
202 770 m 0
 165 770 132 803 132 840 c 0
 132 877 165 910 202 910 c 0
 239 910 272 877 272 840 c 0
 272 803 239 770 202 770 c 0
397 770 m 0
 360 770 327 803 327 840 c 0
 327 877 360 910 397 910 c 0
 434 910 467 877 467 840 c 0
 467 803 434 770 397 770 c 0
85 0 m 1
 85 700 l 1
 505 700 l 1
 505 610 l 1
 225 610 l 1
 225 410 l 1
 445 410 l 1
 445 320 l 1
 225 320 l 1
 225 90 l 1
 505 90 l 1
 505 0 l 1
 85 0 l 1
EndSplineSet
EndChar

StartChar: Igrave
Encoding: 204 204 142
Width: 288
Flags: MW
HStem: 0 21G<85 85 85 225> 680 20G<85 225 225 225> 750 150<115 115 115 150 15 195>
VStem: 85 140<0 700 0 700>
LayerCount: 2
Fore
SplineSet
115 750 m 1
 15 900 l 1
 150 900 l 1
 195 750 l 1
 115 750 l 1
85 0 m 1
 85 700 l 1
 225 700 l 1
 225 0 l 1
 85 0 l 1
EndSplineSet
EndChar

StartChar: Iacute
Encoding: 205 205 143
Width: 287
Flags: MW
HStem: 0 21G<85 85 85 225> 680 20G<85 225 225 225> 750 150<92 272 137 172>
VStem: 85 140<0 700 0 700>
LayerCount: 2
Fore
SplineSet
92 750 m 1
 137 900 l 1
 272 900 l 1
 172 750 l 1
 92 750 l 1
85 0 m 1
 85 700 l 1
 225 700 l 1
 225 0 l 1
 85 0 l 1
EndSplineSet
EndChar

StartChar: Icircumflex
Encoding: 206 206 144
Width: 290
Flags: MW
HStem: 0 21G<85 85 85 225> 680 20G<85 225 225 225> 760 134<-14 196 -14 196 96 211 96 306>
VStem: 85 140<0 700 0 700>
LayerCount: 2
Fore
SplineSet
-14 760 m 1
 96 894 l 1
 196 894 l 1
 306 760 l 1
 211 760 l 1
 146 830 l 1
 81 760 l 1
 -14 760 l 1
85 0 m 1
 85 700 l 1
 225 700 l 1
 225 0 l 1
 85 0 l 1
EndSplineSet
EndChar

StartChar: Idieresis
Encoding: 207 207 145
Width: 310
Flags: MW
HStem: 0 21G<85 85 85 225> 680 20G<85 225 225 225> 770 140<37.5 74.5 232.5 269.5>
VStem: -14 140<821.5 858.5> 181 140<821.5 858.5>
LayerCount: 2
Fore
SplineSet
56 770 m 0
 19 770 -14 803 -14 840 c 0
 -14 877 19 910 56 910 c 0
 93 910 126 877 126 840 c 0
 126 803 93 770 56 770 c 0
251 770 m 0
 214 770 181 803 181 840 c 0
 181 877 214 910 251 910 c 0
 288 910 321 877 321 840 c 0
 321 803 288 770 251 770 c 0
85 0 m 1
 85 700 l 1
 225 700 l 1
 225 0 l 1
 85 0 l 1
EndSplineSet
EndChar

StartChar: Eth
Encoding: 208 208 146
Width: 620
Flags: MW
HStem: 0 90<230 260 230 260> 310 100<35 90 35 90 230 325> 610 90<230 260 230 230>
VStem: 90 140<90 90 90 310 410 610> 430 140<250 450>
LayerCount: 2
Fore
SplineSet
90 0 m 1
 90 310 l 1
 35 310 l 1
 35 410 l 1
 90 410 l 1
 90 700 l 1
 260 700 l 2
 460 700 570 590 570 350 c 0
 570 110 460 0 260 0 c 2
 90 0 l 1
230 90 m 1
 260 90 l 2
 370 90 430 150 430 350 c 0
 430 550 370 610 260 610 c 2
 230 610 l 1
 230 410 l 1
 325 410 l 1
 325 310 l 1
 230 310 l 1
 230 90 l 1
EndSplineSet
EndChar

StartChar: Ntilde
Encoding: 209 209 147
Width: 640
Flags: MW
HStem: 0 21G<85 225 85 85 425 575 425 425> 680 20G<85 235 235 235 435 575 575 575> 755 90<347.5 365 347.5 400.5> 800 90<265 282.5>
VStem: 85 140<0 420 0 700> 435 140<280 700 0 700>
LayerCount: 2
Fore
SplineSet
225 760 m 2xdc
 216 760 l 1
 160 790 l 1
 165 841 204 890 255 890 c 0xdc
 310 890 330 845 365 845 c 0
 389 844 406 884 405 885 c 2
 414 885 l 1
 470 855 l 1
 465 804 426 755 375 755 c 0xec
 320 755 300 800 265 800 c 0
 240 799 225 761 225 760 c 2xdc
435 700 m 1
 575 700 l 1
 575 0 l 1
 425 0 l 1
 250 420 l 1
 232 464 l 1
 224 485 l 1
 220 485 l 1
 222 464 l 2
 223 451 225 435 225 420 c 2
 225 0 l 1
 85 0 l 1
 85 700 l 1
 235 700 l 1
 410 280 l 1
 428 236 l 1
 436 215 l 1
 440 215 l 1
 437 236 l 2
 435 248 435 265 435 280 c 2
 435 700 l 1
EndSplineSet
EndChar

StartChar: Ograve
Encoding: 210 210 148
Width: 630
Flags: MW
HStem: -10 90<282.5 347.5 282.5 395> 620 90<282.5 347.5> 750 150<297 297 297 332 197 377>
VStem: 50 140<244.5 455.5 244.5 477.5> 440 140<244.5 455.5>
LayerCount: 2
Fore
SplineSet
297 750 m 1
 197 900 l 1
 332 900 l 1
 377 750 l 1
 297 750 l 1
315 -10 m 0
 155 -10 50 95 50 350 c 0
 50 605 155 710 315 710 c 0
 475 710 580 605 580 350 c 0
 580 95 475 -10 315 -10 c 0
315 80 m 0
 380 80 440 139 440 350 c 0
 440 561 380 620 315 620 c 0
 250 620 190 561 190 350 c 0
 190 139 250 80 315 80 c 0
EndSplineSet
EndChar

StartChar: Oacute
Encoding: 211 211 149
Width: 630
Flags: MW
HStem: -10 90<282.5 347.5 282.5 395> 620 90<282.5 347.5> 750 150<252 432 297 332>
VStem: 50 140<244.5 455.5 244.5 477.5> 440 140<244.5 455.5>
LayerCount: 2
Fore
SplineSet
252 750 m 1
 297 900 l 1
 432 900 l 1
 332 750 l 1
 252 750 l 1
315 -10 m 0
 155 -10 50 95 50 350 c 0
 50 605 155 710 315 710 c 0
 475 710 580 605 580 350 c 0
 580 95 475 -10 315 -10 c 0
315 80 m 0
 380 80 440 139 440 350 c 0
 440 561 380 620 315 620 c 0
 250 620 190 561 190 350 c 0
 190 139 250 80 315 80 c 0
EndSplineSet
EndChar

StartChar: Ocircumflex
Encoding: 212 212 150
Width: 630
Flags: MW
HStem: -10 90<282.5 347.5 282.5 395> 620 90<282.5 347.5> 760 134<155 365 155 365 265 380 265 475>
VStem: 50 140<244.5 455.5 244.5 477.5> 440 140<244.5 455.5>
LayerCount: 2
Fore
SplineSet
155 760 m 1
 265 894 l 1
 365 894 l 1
 475 760 l 1
 380 760 l 1
 315 830 l 1
 250 760 l 1
 155 760 l 1
315 -10 m 0
 155 -10 50 95 50 350 c 0
 50 605 155 710 315 710 c 0
 475 710 580 605 580 350 c 0
 580 95 475 -10 315 -10 c 0
315 80 m 0
 380 80 440 139 440 350 c 0
 440 561 380 620 315 620 c 0
 250 620 190 561 190 350 c 0
 190 139 250 80 315 80 c 0
EndSplineSet
EndChar

StartChar: Otilde
Encoding: 213 213 151
Width: 630
Flags: MW
HStem: -10 90<282.5 347.5 282.5 395> 620 90<282.5 347.5> 765 90<342.5 360 342.5 395.5> 810 90<260 277.5>
VStem: 50 140<244.5 455.5 244.5 477.5> 440 140<244.5 455.5>
LayerCount: 2
Fore
SplineSet
220 770 m 2xdc
 211 770 l 1
 155 800 l 1
 160 851 199 900 250 900 c 0xdc
 305 900 325 855 360 855 c 0
 384 854 401 894 400 895 c 2
 409 895 l 1
 465 865 l 1
 460 814 421 765 370 765 c 0xec
 315 765 295 810 260 810 c 0
 235 809 220 771 220 770 c 2xdc
315 710 m 0
 475 710 580 605 580 350 c 0
 580 95 475 -10 315 -10 c 0
 155 -10 50 95 50 350 c 0
 50 605 155 710 315 710 c 0
315 80 m 0
 380 80 440 139 440 350 c 0
 440 561 380 620 315 620 c 0
 250 620 190 561 190 350 c 0
 190 139 250 80 315 80 c 0
EndSplineSet
EndChar

StartChar: Odieresis
Encoding: 214 214 152
Width: 630
Flags: MW
HStem: -10 90<282.5 347.5 282.5 395> 620 90<282.5 347.5> 770 140<196.5 233.5 391.5 428.5>
VStem: 145 140<821.5 858.5> 340 140<821.5 858.5>
LayerCount: 2
Fore
SplineSet
215 770 m 0
 178 770 145 803 145 840 c 0
 145 877 178 910 215 910 c 0
 252 910 285 877 285 840 c 0
 285 803 252 770 215 770 c 0
410 770 m 0
 373 770 340 803 340 840 c 0
 340 877 373 910 410 910 c 0
 447 910 480 877 480 840 c 0
 480 803 447 770 410 770 c 0
315 -10 m 0
 155 -10 50 95 50 350 c 0
 50 605 155 710 315 710 c 0
 475 710 580 605 580 350 c 0
 580 95 475 -10 315 -10 c 0
315 80 m 0
 380 80 440 139 440 350 c 0
 440 561 380 620 315 620 c 0
 250 620 190 561 190 350 c 0
 190 139 250 80 315 80 c 0
EndSplineSet
EndChar

StartChar: multiply
Encoding: 215 215 153
Width: 440
Flags: MW
HStem: 145 370<105 105 105 335>
VStem: 35 370<215 215 215 445>
LayerCount: 2
Fore
SplineSet
105 145 m 1
 35 215 l 1
 150 330 l 1
 35 445 l 1
 105 515 l 1
 220 400 l 1
 335 515 l 1
 405 445 l 1
 290 330 l 1
 405 215 l 1
 335 145 l 1
 220 260 l 1
 105 145 l 1
EndSplineSet
EndChar

StartChar: Oslash
Encoding: 216 216 154
Width: 630
Flags: MW
HStem: -10 90<300.5 347.5 300.5 395> 0 96<107 107 107 165 50 107> 604 96<523 523> 620 90<282.5 329>
VStem: 50 140<329.5 455.5 329.5 477.5> 440 140<244.5 369.5>
LayerCount: 2
Fore
SplineSet
315 -10 m 0x9c
 263 -10 218 1 179 24 c 1x9c
 165 0 l 1
 50 0 l 1
 107 96 l 1
 70 155 50 237 50 350 c 0
 50 605 155 710 315 710 c 0
 368 710 413 699 450 676 c 1x5c
 465 700 l 1
 580 700 l 1
 523 604 l 1xac
 559 545 580 463 580 350 c 0
 580 95 475 -10 315 -10 c 0x9c
196 246 m 1
 392 578 l 1
 369 609 343 620 315 620 c 0
 250 620 190 561 190 350 c 0
 190 309 192 275 196 246 c 1
315 80 m 0
 380 80 440 139 440 350 c 0
 440 389 438 424 434 453 c 1
 237 122 l 1
 260 91 286 80 315 80 c 0
EndSplineSet
EndChar

StartChar: Ugrave
Encoding: 217 217 155
Width: 640
Flags: MW
HStem: -10 90<290 350 290 398> 680 20G<75 215 215 215 425 565 565 565> 730 150<302 302 302 337 202 382>
VStem: 75 140<230 700> 425 140<230 700>
LayerCount: 2
Fore
SplineSet
302 730 m 1
 202 880 l 1
 337 880 l 1
 382 730 l 1
 302 730 l 1
320 -10 m 0
 164 -10 75 79 75 230 c 2
 75 700 l 1
 215 700 l 1
 215 230 l 2
 215 125 260 80 320 80 c 0
 380 80 425 125 425 230 c 2
 425 700 l 1
 565 700 l 1
 565 230 l 2
 565 79 476 -10 320 -10 c 0
EndSplineSet
EndChar

StartChar: Uacute
Encoding: 218 218 156
Width: 640
Flags: MW
HStem: -10 90<290 350 290 398> 680 20G<75 215 215 215 425 565 565 565> 730 150<267 447 312 347>
VStem: 75 140<230 700> 425 140<230 700>
LayerCount: 2
Fore
SplineSet
267 730 m 1
 312 880 l 1
 447 880 l 1
 347 730 l 1
 267 730 l 1
320 -10 m 0
 164 -10 75 79 75 230 c 2
 75 700 l 1
 215 700 l 1
 215 230 l 2
 215 125 260 80 320 80 c 0
 380 80 425 125 425 230 c 2
 425 700 l 1
 565 700 l 1
 565 230 l 2
 565 79 476 -10 320 -10 c 0
EndSplineSet
EndChar

StartChar: Ucircumflex
Encoding: 219 219 157
Width: 640
Flags: MW
HStem: -10 90<290 350 290 398> 680 20G<75 215 215 215 425 565 565 565> 760 134<160 370 160 370 270 385 270 480>
VStem: 75 140<230 700> 425 140<230 700>
LayerCount: 2
Fore
SplineSet
160 760 m 1
 270 894 l 1
 370 894 l 1
 480 760 l 1
 385 760 l 1
 320 830 l 1
 255 760 l 1
 160 760 l 1
320 -10 m 0
 164 -10 75 79 75 230 c 2
 75 700 l 1
 215 700 l 1
 215 230 l 2
 215 125 260 80 320 80 c 0
 380 80 425 125 425 230 c 2
 425 700 l 1
 565 700 l 1
 565 230 l 2
 565 79 476 -10 320 -10 c 0
EndSplineSet
EndChar

StartChar: Udieresis
Encoding: 220 220 158
Width: 640
Flags: MW
HStem: -10 90<290 350 290 398> 680 20G<75 215 215 215 425 565 565 565> 770 140<201.5 238.5 396.5 433.5>
VStem: 75 140<230 700> 150 140<821.5 858.5> 345 140<821.5 858.5> 425 140<230 700>
LayerCount: 2
Fore
SplineSet
220 770 m 0xf2
 183 770 150 803 150 840 c 0xf2
 150 877 183 910 220 910 c 0
 257 910 290 877 290 840 c 0xea
 290 803 257 770 220 770 c 0xf2
415 770 m 0xf4
 378 770 345 803 345 840 c 0
 345 877 378 910 415 910 c 0
 452 910 485 877 485 840 c 0
 485 803 452 770 415 770 c 0xf4
320 -10 m 0
 164 -10 75 79 75 230 c 2
 75 700 l 1
 215 700 l 1
 215 230 l 2
 215 125 260 80 320 80 c 0
 380 80 425 125 425 230 c 2
 425 700 l 1
 565 700 l 1
 565 230 l 2xf2
 565 79 476 -10 320 -10 c 0
EndSplineSet
EndChar

StartChar: Yacute
Encoding: 221 221 159
Width: 570
Flags: MW
HStem: 0 21G<215 215 215 355> 680 20G<0 145 145 145 433 570 570 570> 730 150<232 412 277 312>
VStem: 215 140<0 230 0 230>
LayerCount: 2
Fore
SplineSet
232 730 m 1
 277 880 l 1
 412 880 l 1
 312 730 l 1
 232 730 l 1
215 0 m 1
 215 230 l 1
 0 700 l 1
 145 700 l 1
 276 385 l 1
 286 355 l 1
 289 340 l 1
 293 340 l 1
 296 355 l 2
 299 364 302 374 306 385 c 2
 433 700 l 1
 570 700 l 1
 355 230 l 1
 355 0 l 1
 215 0 l 1
EndSplineSet
EndChar

StartChar: Thorn
Encoding: 222 222 160
Width: 645
Flags: MW
HStem: 50 90<225 295 225 295> 560 90<225 295 225 295>
VStem: 85 140<-20 50 140 560 650 720> 465 140<280 420>
LayerCount: 2
Fore
SplineSet
85 -20 m 1
 85 720 l 1
 225 720 l 1
 225 650 l 1
 295 650 l 2
 490 650 605 534 605 350 c 0
 605 166 490 50 295 50 c 2
 225 50 l 1
 225 -20 l 1
 85 -20 l 1
225 140 m 1
 295 140 l 2
 395 140 465 210 465 350 c 0
 465 490 395 560 295 560 c 2
 225 560 l 1
 225 140 l 1
EndSplineSet
EndChar

StartChar: germandbls
Encoding: 223 223 161
Width: 620
Flags: MW
HStem: -10 90<367.5 403.5 365 455> 0 20 410 90<20 75 20 75> 620 90<254.5 285.5>
VStem: 75 140<0 410 410 410 500 550 0 592.5> 285 130<375 445 375 450> 325 140<535 577.5> 460 140<140 219.5>
LayerCount: 2
Fore
SplineSet
385 -10 m 0xbd
 350 -10 320 -3 299 5 c 0xbd
 287 9 276 14 265 20 c 1
 300 105 l 1
 310 105 l 1x7d
 315 100 320 95 327 92 c 0
 338 85 355 80 375 80 c 0
 432 80 460 110 460 170 c 0
 460 269 285 281 285 420 c 0xbd
 285 480 325 510 325 560 c 0
 325 595 301 620 270 620 c 0
 239 620 215 595 215 550 c 2
 215 0 l 1
 75 0 l 1
 75 410 l 1
 20 410 l 1
 20 500 l 1
 75 500 l 1
 75 550 l 2
 75 635 151 710 260 710 c 0x7a
 390 710 465 635 465 560 c 0
 465 499 415 470 415 420 c 0
 415 330 600 320 600 170 c 0
 600 66 525 -10 385 -10 c 0xbd
EndSplineSet
EndChar

StartChar: agrave
Encoding: 224 224 162
Width: 540
Flags: MW
HStem: -10 95<227.5 247.5> 0 21G<375 475 375 375> 215 90<235 335 265 335> 420 90<224.5 272.5> 550 150<242 242 242 277 142 322>
VStem: 40 140<127.5 167.5 127.5 193> 335 140<145 215 215 215 305 320 0 355.5>
LayerCount: 2
Fore
SplineSet
242 550 m 1x7a
 142 700 l 1
 277 700 l 1
 322 550 l 1
 242 550 l 1x7a
225 -10 m 0xbe
 105 -10 40 54 40 145 c 0
 40 241 105 305 265 305 c 2
 335 305 l 1
 335 320 l 2
 335 391 305 420 240 420 c 0
 207 420 182 411 163 400 c 0
 152 394 143 387 135 380 c 1
 125 380 l 1
 80 460 l 1
 94 469 110 478 127 485 c 0
 158 497 199 510 250 510 c 0
 394 510 475 430 475 320 c 2
 475 0 l 1
 375 0 l 1
 365 60 l 1
 360 60 l 1x7e
 350 47 339 35 326 25 c 0
 303 6 270 -10 225 -10 c 0xbe
250 85 m 0
 275 85 296 100 311 115 c 0
 320 124 328 134 335 145 c 1
 335 215 l 1
 265 215 l 2
 205 215 180 190 180 145 c 0
 180 110 205 85 250 85 c 0
EndSplineSet
EndChar

StartChar: aacute
Encoding: 225 225 163
Width: 540
Flags: MW
HStem: -10 95<227.5 247.5> 0 21G<375 475 375 375> 215 90<235 335 265 335> 420 90<224.5 272.5> 550 150<207 387 252 287>
VStem: 40 140<127.5 167.5 127.5 193> 335 140<145 215 215 215 305 320 0 355.5>
LayerCount: 2
Fore
SplineSet
207 550 m 1x7a
 252 700 l 1
 387 700 l 1
 287 550 l 1
 207 550 l 1x7a
225 -10 m 0xbe
 105 -10 40 54 40 145 c 0
 40 241 105 305 265 305 c 2
 335 305 l 1
 335 320 l 2
 335 391 305 420 240 420 c 0
 207 420 182 411 163 400 c 0
 152 394 143 387 135 380 c 1
 125 380 l 1
 80 460 l 1
 94 469 110 478 127 485 c 0
 158 497 199 510 250 510 c 0
 394 510 475 430 475 320 c 2
 475 0 l 1
 375 0 l 1
 365 60 l 1
 360 60 l 1x7e
 350 47 339 35 326 25 c 0
 303 6 270 -10 225 -10 c 0xbe
250 85 m 0
 275 85 296 100 311 115 c 0
 320 124 328 134 335 145 c 1
 335 215 l 1
 265 215 l 2
 205 215 180 190 180 145 c 0
 180 110 205 85 250 85 c 0
EndSplineSet
EndChar

StartChar: acircumflex
Encoding: 226 226 164
Width: 540
Flags: MW
HStem: -10 95<227.5 247.5> 0 21G<375 475 375 375> 215 90<235 335 265 335> 420 90<224.5 272.5> 560 134<110 320 110 320 220 335 220 430>
VStem: 40 140<127.5 167.5 127.5 193> 335 140<145 215 215 215 305 320 0 355.5>
LayerCount: 2
Fore
SplineSet
110 560 m 1x7a
 220 694 l 1
 320 694 l 1
 430 560 l 1
 335 560 l 1
 270 630 l 1
 205 560 l 1
 110 560 l 1x7a
225 -10 m 0xbe
 105 -10 40 54 40 145 c 0
 40 241 105 305 265 305 c 2
 335 305 l 1
 335 320 l 2
 335 391 305 420 240 420 c 0
 207 420 182 411 163 400 c 0
 152 394 143 387 135 380 c 1
 125 380 l 1
 80 460 l 1
 94 469 110 478 127 485 c 0
 158 497 199 510 250 510 c 0
 394 510 475 430 475 320 c 2
 475 0 l 1
 375 0 l 1
 365 60 l 1
 360 60 l 1x7e
 350 47 339 35 326 25 c 0
 303 6 270 -10 225 -10 c 0xbe
250 85 m 0
 275 85 296 100 311 115 c 0
 320 124 328 134 335 145 c 1
 335 215 l 1
 265 215 l 2
 205 215 180 190 180 145 c 0
 180 110 205 85 250 85 c 0
EndSplineSet
EndChar

StartChar: atilde
Encoding: 227 227 165
Width: 540
Flags: MW
HStem: -10 95<227.5 247.5> 0 21G<375 475 375 375> 215 90<235 335 265 335> 420 90<224.5 272.5> 566 90<297.5 315 297.5 350.5> 611 90<215 232.5>
VStem: 40 140<127.5 167.5 127.5 193> 335 140<145 215 215 215 305 320 0 355.5>
LayerCount: 2
Fore
SplineSet
175 571 m 2x75
 166 571 l 1
 110 601 l 1
 115 652 154 701 205 701 c 0xb7
 260 701 280 656 315 656 c 0
 339 655 356 695 355 696 c 2
 364 696 l 1
 420 666 l 1
 415 615 376 566 325 566 c 0x79
 270 566 250 611 215 611 c 0
 190 610 175 572 175 571 c 2x75
250 510 m 0
 394 510 475 430 475 320 c 2
 475 0 l 1
 375 0 l 1
 365 60 l 1
 360 60 l 1x75
 350 47 339 35 326 25 c 0
 303 6 270 -10 225 -10 c 0
 105 -10 40 54 40 145 c 0
 40 241 105 305 265 305 c 2
 335 305 l 1
 335 320 l 2
 335 391 305 420 240 420 c 0
 207 420 182 411 163 400 c 0
 152 394 143 387 135 380 c 1
 125 380 l 1
 80 460 l 1
 94 469 110 478 127 485 c 0
 158 497 199 510 250 510 c 0
335 145 m 1
 335 215 l 1
 265 215 l 2
 205 215 180 190 180 145 c 0
 180 110 205 85 250 85 c 0
 275 85 296 100 311 115 c 0
 320 124 328 134 335 145 c 1
EndSplineSet
EndChar

StartChar: adieresis
Encoding: 228 228 166
Width: 540
Flags: MW
HStem: -10 95<227.5 247.5> 0 21G<375 475 375 375> 215 90<235 335 265 335> 420 90<224.5 272.5> 570 140<151.5 188.5 346.5 383.5>
VStem: 40 140<127.5 167.5 127.5 193> 100 140<621.5 658.5> 295 140<621.5 658.5> 335 140<145 215 215 215 305 320 0 355.5>
LayerCount: 2
Fore
SplineSet
170 570 m 0x7a80
 133 570 100 603 100 640 c 0
 100 677 133 710 170 710 c 0
 207 710 240 677 240 640 c 0
 240 603 207 570 170 570 c 0x7a80
365 570 m 0xbd
 328 570 295 603 295 640 c 0
 295 677 328 710 365 710 c 0
 402 710 435 677 435 640 c 0
 435 603 402 570 365 570 c 0xbd
225 -10 m 0
 105 -10 40 54 40 145 c 0
 40 241 105 305 265 305 c 2
 335 305 l 1
 335 320 l 2
 335 391 305 420 240 420 c 0
 207 420 182 411 163 400 c 0
 152 394 143 387 135 380 c 1
 125 380 l 1
 80 460 l 1
 94 469 110 478 127 485 c 0
 158 497 199 510 250 510 c 0
 394 510 475 430 475 320 c 2
 475 0 l 1
 375 0 l 1x7c80
 365 60 l 1
 360 60 l 1x7b
 350 47 339 35 326 25 c 0
 303 6 270 -10 225 -10 c 0
250 85 m 0
 275 85 296 100 311 115 c 0
 320 124 328 134 335 145 c 1
 335 215 l 1
 265 215 l 2xbc80
 205 215 180 190 180 145 c 0
 180 110 205 85 250 85 c 0
EndSplineSet
EndChar

StartChar: aring
Encoding: 229 229 167
Width: 542
Flags: MW
HStem: -10 95<227.5 247.5> 0 21G<375 475 375 375> 215 90<235 335 265 335> 420 90<224.5 272.5> 555 65<260 280 260 302.5> 700 65<260 280>
VStem: 40 140<127.5 167.5 127.5 193> 160 75<647.5 672.5 647.5 690> 305 75<647.5 672.5> 335 140<145 215 215 215 305 320 0 355.5>
LayerCount: 2
Fore
SplineSet
270 555 m 0x7d40
 205 555 160 600 160 660 c 0
 160 720 205 765 270 765 c 0
 335 765 380 720 380 660 c 0x7d80
 380 600 335 555 270 555 c 0x7d40
270 620 m 0
 290 620 305 635 305 660 c 0
 305 685 290 700 270 700 c 0
 250 700 235 685 235 660 c 0
 235 635 250 620 270 620 c 0
225 -10 m 0xbe40
 105 -10 40 54 40 145 c 0
 40 241 105 305 265 305 c 2
 335 305 l 1
 335 320 l 2
 335 391 305 420 240 420 c 0
 207 420 182 411 163 400 c 0
 152 394 143 387 135 380 c 1
 125 380 l 1
 80 460 l 1
 94 469 110 478 127 485 c 0
 158 497 199 510 250 510 c 0
 394 510 475 430 475 320 c 2
 475 0 l 1
 375 0 l 1
 365 60 l 1
 360 60 l 1x7e40
 350 47 339 35 326 25 c 0
 303 6 270 -10 225 -10 c 0xbe40
250 85 m 0
 275 85 296 100 311 115 c 0
 320 124 328 134 335 145 c 1
 335 215 l 1
 265 215 l 2
 205 215 180 190 180 145 c 0
 180 110 205 85 250 85 c 0
EndSplineSet
EndChar

StartChar: ae
Encoding: 230 230 168
Width: 815
Flags: MW
HStem: -10 90<555 610.5> -10 95<227.5 262.5 227.5 270> 205 90<475 635 475 745 475 635> 215 90<235 335 265 335> 420 90<224.5 272.5 535 575>
VStem: 40 140<127.5 167.5 127.5 193> 335 140<163.5 205 163.5 215 163.5 215 305 320 320 337.5 163.5 355.5> 635 140<235 337.5>
LayerCount: 2
Fore
SplineSet
225 -10 m 0xaf
 105 -10 40 54 40 145 c 0
 40 241 105 305 265 305 c 2
 335 305 l 1x9f
 335 320 l 2
 335 391 305 420 240 420 c 0
 207 420 182 411 163 400 c 0
 152 394 143 387 135 380 c 1
 125 380 l 1
 80 460 l 1
 94 469 110 478 127 485 c 0
 158 497 199 510 250 510 c 0
 335 510 379 481 410 450 c 1
 441 481 484 510 555 510 c 0
 690 510 775 425 775 260 c 2
 775 235 l 1
 745 205 l 1
 475 205 l 1
 475 122 515 80 595 80 c 0
 627 80 653 89 672 100 c 0
 683 106 692 113 700 120 c 1
 710 120 l 1
 755 40 l 1
 740 31 724 22 707 15 c 0
 676 2 636 -10 585 -10 c 0
 489 -10 430 29 400 62 c 1
 370 29 315 -10 225 -10 c 0xaf
475 295 m 1
 635 295 l 1
 635 380 595 420 555 420 c 0
 515 420 475 380 475 295 c 1
250 85 m 0x5f
 275 85 296 100 311 115 c 0
 320 124 328 134 335 145 c 1
 335 215 l 1
 265 215 l 2
 205 215 180 190 180 145 c 0
 180 110 205 85 250 85 c 0x5f
EndSplineSet
EndChar

StartChar: ccedilla
Encoding: 231 231 169
Width: 475
Flags: MW
HStem: -195 55<264.5 277 254.5 312.5> -80 55<217 320> -10 90<292 292> -4 21G<217 217> 420 90<253 300.5 199.5 301>
VStem: 40 140<185 315 185 338> 217 75<-25 -10 -25 -4 -25 -4> 302 85<-120 -100>
LayerCount: 2
Fore
SplineSet
407 15 m 0x00
 377 3 340 -9 292 -10 c 1xde
 292 -25 l 1xdf
 348 -25 387 -65 387 -110 c 0
 387 -155 348 -195 277 -195 c 0
 252 -195 231 -190 216 -185 c 0
 207 -182 199 -179 192 -175 c 1
 213 -125 l 1
 222 -125 l 2
 221 -125 242 -140 267 -140 c 0
 287 -140 302 -130 302 -110 c 0
 302 -90 287 -80 267 -80 c 2xde
 217 -80 l 1x9e
 217 -4 l 1xae
 100 18 40 101 40 250 c 0
 40 426 124 510 275 510 c 0
 326 510 366 497 397 485 c 0
 414 478 430 469 445 460 c 1
 400 380 l 1
 390 380 l 1
 382 387 373 394 362 400 c 0
 343 411 317 420 285 420 c 0
 221 420 180 380 180 250 c 0
 180 120 220 80 295 80 c 0
 327 80 353 89 372 100 c 0
 383 106 392 113 400 120 c 1
 410 120 l 1
 455 40 l 1
 440 31 424 22 407 15 c 0x00
EndSplineSet
EndChar

StartChar: egrave
Encoding: 232 232 170
Width: 520
Flags: MW
HStem: -10 90<260 315.5> 205 90<180 340 180 450 180 340> 420 90<240 280> 550 150<235 235 235 270 135 315>
VStem: 40 140<163.5 205 295 337.5 163.5 337.5> 340 140<235 337.5>
LayerCount: 2
Fore
SplineSet
235 550 m 1
 135 700 l 1
 270 700 l 1
 315 550 l 1
 235 550 l 1
290 -10 m 0
 123 -10 40 77 40 250 c 0
 40 425 125 510 260 510 c 0
 395 510 480 425 480 260 c 2
 480 235 l 1
 450 205 l 1
 180 205 l 1
 180 122 220 80 300 80 c 0
 332 80 358 89 377 100 c 0
 388 106 397 113 405 120 c 1
 415 120 l 1
 460 40 l 1
 445 31 429 22 412 15 c 0
 381 2 341 -10 290 -10 c 0
180 295 m 1
 340 295 l 1
 340 380 300 420 260 420 c 0
 220 420 180 380 180 295 c 1
EndSplineSet
EndChar

StartChar: eacute
Encoding: 233 233 171
Width: 520
Flags: MW
HStem: -10 90<260 315.5> 205 90<180 340 180 450 180 340> 420 90<240 280> 550 150<210 390 255 290>
VStem: 40 140<163.5 205 295 337.5 163.5 337.5> 340 140<235 337.5>
LayerCount: 2
Fore
SplineSet
210 550 m 1
 255 700 l 1
 390 700 l 1
 290 550 l 1
 210 550 l 1
290 -10 m 0
 123 -10 40 77 40 250 c 0
 40 425 125 510 260 510 c 0
 395 510 480 425 480 260 c 2
 480 235 l 1
 450 205 l 1
 180 205 l 1
 180 122 220 80 300 80 c 0
 332 80 358 89 377 100 c 0
 388 106 397 113 405 120 c 1
 415 120 l 1
 460 40 l 1
 445 31 429 22 412 15 c 0
 381 2 341 -10 290 -10 c 0
180 295 m 1
 340 295 l 1
 340 380 300 420 260 420 c 0
 220 420 180 380 180 295 c 1
EndSplineSet
EndChar

StartChar: ecircumflex
Encoding: 234 234 172
Width: 520
Flags: MW
HStem: -10 90<260 315.5> 205 90<180 340 180 450 180 340> 420 90<240 280> 560 134<102 312 102 312 212 327 212 422>
VStem: 40 140<163.5 205 295 337.5 163.5 337.5> 340 140<235 337.5>
LayerCount: 2
Fore
SplineSet
102 560 m 1
 212 694 l 1
 312 694 l 1
 422 560 l 1
 327 560 l 1
 262 630 l 1
 197 560 l 1
 102 560 l 1
290 -10 m 0
 123 -10 40 77 40 250 c 0
 40 425 125 510 260 510 c 0
 395 510 480 425 480 260 c 2
 480 235 l 1
 450 205 l 1
 180 205 l 1
 180 122 220 80 300 80 c 0
 332 80 358 89 377 100 c 0
 388 106 397 113 405 120 c 1
 415 120 l 1
 460 40 l 1
 445 31 429 22 412 15 c 0
 381 2 341 -10 290 -10 c 0
180 295 m 1
 340 295 l 1
 340 380 300 420 260 420 c 0
 220 420 180 380 180 295 c 1
EndSplineSet
EndChar

StartChar: edieresis
Encoding: 235 235 173
Width: 520
Flags: MW
HStem: -10 90<260 315.5> 205 90<180 340 180 450 180 340> 420 90<240 280> 570 140<143.5 180.5 338.5 375.5>
VStem: 92 140<621.5 658.5> 287 140<621.5 658.5>
LayerCount: 2
Fore
SplineSet
162 570 m 0
 125 570 92 603 92 640 c 0
 92 677 125 710 162 710 c 0
 199 710 232 677 232 640 c 0
 232 603 199 570 162 570 c 0
357 570 m 0
 320 570 287 603 287 640 c 0
 287 677 320 710 357 710 c 0
 394 710 427 677 427 640 c 0
 427 603 394 570 357 570 c 0
290 -10 m 0
 123 -10 40 77 40 250 c 0
 40 425 125 510 260 510 c 0
 395 510 480 425 480 260 c 2
 480 235 l 1
 450 205 l 1
 180 205 l 1
 180 122 220 80 300 80 c 0
 332 80 358 89 377 100 c 0
 388 106 397 113 405 120 c 1
 415 120 l 1
 460 40 l 1
 445 31 429 22 412 15 c 0
 381 2 341 -10 290 -10 c 0
180 295 m 1
 340 295 l 1
 340 380 300 420 260 420 c 0
 220 420 180 380 180 295 c 1
EndSplineSet
EndChar

StartChar: igrave
Encoding: 236 236 174
Width: 283
Flags: MW
HStem: 0 21G<73 73 73 213> 480 20G<73 213 213 213> 550 150<115 115 115 150 15 195>
VStem: 73 140<0 500 0 500>
LayerCount: 2
Fore
SplineSet
115 550 m 1
 15 700 l 1
 150 700 l 1
 195 550 l 1
 115 550 l 1
73 0 m 1
 73 500 l 1
 213 500 l 1
 213 0 l 1
 73 0 l 1
EndSplineSet
EndChar

StartChar: iacute
Encoding: 237 237 175
Width: 282
Flags: MW
HStem: 0 21G<70 70 70 210> 480 20G<70 210 210 210> 550 150<87 267 132 167>
VStem: 70 140<0 500 0 500>
LayerCount: 2
Fore
SplineSet
87 550 m 1
 132 700 l 1
 267 700 l 1
 167 550 l 1
 87 550 l 1
70 0 m 1
 70 500 l 1
 210 500 l 1
 210 0 l 1
 70 0 l 1
EndSplineSet
EndChar

StartChar: icircumflex
Encoding: 238 238 176
Width: 290
Flags: MW
HStem: 0 21G<75 75 75 215> 480 20G<75 215 215 215> 560 134<-15 195 -15 195 95 210 95 305>
VStem: 75 140<0 500 0 500>
LayerCount: 2
Fore
SplineSet
-15 560 m 1
 95 694 l 1
 195 694 l 1
 305 560 l 1
 210 560 l 1
 145 630 l 1
 80 560 l 1
 -15 560 l 1
75 0 m 1
 75 500 l 1
 215 500 l 1
 215 0 l 1
 75 0 l 1
EndSplineSet
EndChar

StartChar: idieresis
Encoding: 239 239 177
Width: 300
Flags: MW
HStem: 0 21G<80 80 80 220> 480 20G<80 220 220 220> 570 140<31.5 68.5 226.5 263.5>
VStem: -20 140<621.5 658.5> 175 140<621.5 658.5>
LayerCount: 2
Fore
SplineSet
50 570 m 0
 13 570 -20 603 -20 640 c 0
 -20 677 13 710 50 710 c 0
 87 710 120 677 120 640 c 0
 120 603 87 570 50 570 c 0
245 570 m 0
 208 570 175 603 175 640 c 0
 175 677 208 710 245 710 c 0
 282 710 315 677 315 640 c 0
 315 603 282 570 245 570 c 0
80 0 m 1
 80 500 l 1
 220 500 l 1
 220 0 l 1
 80 0 l 1
EndSplineSet
EndChar

StartChar: eth
Encoding: 240 240 178
Width: 545
Flags: MW
HStem: -10 90<239.5 290.5 239.5 337.5> 365 95<239.5 270 180 290.5>
VStem: 35 140<172.5 275 172.5 300> 355 140<172.5 225 225 275>
LayerCount: 2
Fore
SplineSet
265 -10 m 0
 120 -10 35 74 35 225 c 0
 35 375 120 460 240 460 c 0
 300 460 349 435 380 400 c 1
 380 465 358 515 314 549 c 1
 290 490 l 1
 205 525 l 1
 231 588 l 1
 200 596 l 1
 130 610 l 1
 150 695 l 1
 215 680 l 2
 232 676 248 672 264 667 c 1
 290 730 l 1
 375 695 l 1
 348 631 l 1
 449 575 495 482 495 325 c 2
 495 225 l 2
 495 74 410 -10 265 -10 c 0
265 80 m 0
 316 80 355 120 355 225 c 0
 355 325 316 365 265 365 c 0
 214 365 175 325 175 225 c 0
 175 120 214 80 265 80 c 0
EndSplineSet
EndChar

StartChar: ntilde
Encoding: 241 241 179
Width: 575
Flags: MW
HStem: 0 21G<70 210 70 70 370 510 370 370> 415 95<297.5 317.5> 480 20G<70 170 170 170> 576 90<324.5 342 324.5 377.5> 621 90<242 259.5> 686 20G<382 391 391 391>
VStem: 70 140<0 355 0 500> 370 140<0 320 0 352.5>
LayerCount: 2
Fore
SplineSet
202 581 m 2x00
 193 581 l 1
 137 611 l 1
 142 662 181 711 232 711 c 0xb7
 287 711 307 666 342 666 c 0
 366 665 383 705 382 706 c 2
 391 706 l 1
 447 676 l 1
 442 625 403 576 352 576 c 0xab
 297 576 277 621 242 621 c 0
 217 620 202 582 202 581 c 2x00
320 510 m 0
 441 510 510 441 510 320 c 2
 510 0 l 1
 370 0 l 1
 370 320 l 2
 370 385 340 415 295 415 c 0
 267 415 247 400 232 385 c 0
 224 376 217 366 210 355 c 1xb7
 210 0 l 1
 70 0 l 1
 70 500 l 1
 170 500 l 1
 180 440 l 1
 185 440 l 1xcb
 194 453 206 464 219 475 c 0
 242 492 275 510 320 510 c 0
EndSplineSet
EndChar

StartChar: ograve
Encoding: 242 242 180
Width: 540
Flags: MW
HStem: -10 90<244.5 295.5 244.5 342.5> 420 90<244.5 295.5> 550 150<242 242 242 277 142 322>
VStem: 40 140<185 315 185 338> 360 140<185 315>
LayerCount: 2
Fore
SplineSet
242 550 m 1
 142 700 l 1
 277 700 l 1
 322 550 l 1
 242 550 l 1
270 -10 m 0
 125 -10 40 74 40 250 c 0
 40 426 125 510 270 510 c 0
 415 510 500 426 500 250 c 0
 500 74 415 -10 270 -10 c 0
270 80 m 0
 321 80 360 120 360 250 c 0
 360 380 321 420 270 420 c 0
 219 420 180 380 180 250 c 0
 180 120 219 80 270 80 c 0
EndSplineSet
EndChar

StartChar: oacute
Encoding: 243 243 181
Width: 540
Flags: MW
HStem: -10 90<244.5 295.5 244.5 342.5> 420 90<244.5 295.5> 550 150<217 397 262 297>
VStem: 40 140<185 315 185 338> 360 140<185 315>
LayerCount: 2
Fore
SplineSet
217 550 m 1
 262 700 l 1
 397 700 l 1
 297 550 l 1
 217 550 l 1
270 -10 m 0
 125 -10 40 74 40 250 c 0
 40 426 125 510 270 510 c 0
 415 510 500 426 500 250 c 0
 500 74 415 -10 270 -10 c 0
270 80 m 0
 321 80 360 120 360 250 c 0
 360 380 321 420 270 420 c 0
 219 420 180 380 180 250 c 0
 180 120 219 80 270 80 c 0
EndSplineSet
EndChar

StartChar: ocircumflex
Encoding: 244 244 182
Width: 540
Flags: MW
HStem: -10 90<244.5 295.5 244.5 342.5> 420 90<244.5 295.5> 560 134<110 320 110 320 220 335 220 430>
VStem: 40 140<185 315 185 338> 360 140<185 315>
LayerCount: 2
Fore
SplineSet
110 560 m 1
 220 694 l 1
 320 694 l 1
 430 560 l 1
 335 560 l 1
 270 630 l 1
 205 560 l 1
 110 560 l 1
270 -10 m 0
 125 -10 40 74 40 250 c 0
 40 426 125 510 270 510 c 0
 415 510 500 426 500 250 c 0
 500 74 415 -10 270 -10 c 0
270 80 m 0
 321 80 360 120 360 250 c 0
 360 380 321 420 270 420 c 0
 219 420 180 380 180 250 c 0
 180 120 219 80 270 80 c 0
EndSplineSet
EndChar

StartChar: otilde
Encoding: 245 245 183
Width: 540
Flags: MW
HStem: -10 90<244.5 295.5 244.5 342.5> 420 90<244.5 295.5> 566 90<297.5 315 297.5 350.5> 611 90<215 232.5>
VStem: 40 140<185 315 185 338> 360 140<185 315>
LayerCount: 2
Fore
SplineSet
175 571 m 2xdc
 166 571 l 1
 110 601 l 1
 115 652 154 701 205 701 c 0xdc
 260 701 280 656 315 656 c 0
 339 655 356 695 355 696 c 2
 364 696 l 1
 420 666 l 1
 415 615 376 566 325 566 c 0xec
 270 566 250 611 215 611 c 0
 190 610 175 572 175 571 c 2xdc
270 510 m 0
 415 510 500 426 500 250 c 0
 500 74 415 -10 270 -10 c 0
 125 -10 40 74 40 250 c 0
 40 426 125 510 270 510 c 0
270 80 m 0
 321 80 360 120 360 250 c 0
 360 380 321 420 270 420 c 0
 219 420 180 380 180 250 c 0
 180 120 219 80 270 80 c 0
EndSplineSet
EndChar

StartChar: odieresis
Encoding: 246 246 184
Width: 540
Flags: MW
HStem: -10 90<244.5 295.5 244.5 342.5> 420 90<244.5 295.5> 570 140<151.5 188.5 346.5 383.5>
VStem: 100 140<621.5 658.5> 295 140<621.5 658.5>
LayerCount: 2
Fore
SplineSet
170 570 m 0
 133 570 100 603 100 640 c 0
 100 677 133 710 170 710 c 0
 207 710 240 677 240 640 c 0
 240 603 207 570 170 570 c 0
365 570 m 0
 328 570 295 603 295 640 c 0
 295 677 328 710 365 710 c 0
 402 710 435 677 435 640 c 0
 435 603 402 570 365 570 c 0
270 -10 m 0
 125 -10 40 74 40 250 c 0
 40 426 125 510 270 510 c 0
 415 510 500 426 500 250 c 0
 500 74 415 -10 270 -10 c 0
270 80 m 0
 321 80 360 120 360 250 c 0
 360 380 321 420 270 420 c 0
 219 420 180 380 180 250 c 0
 180 120 219 80 270 80 c 0
EndSplineSet
EndChar

StartChar: divide
Encoding: 247 247 185
Width: 470
Flags: MW
HStem: 80 150<215 255> 280 100<30 440 30 440> 430 150<215 255>
VStem: 160 150<135 175 485 525>
CounterMasks: 1 e0
LayerCount: 2
Fore
SplineSet
235 430 m 0
 195 430 160 465 160 505 c 0
 160 545 195 580 235 580 c 0
 275 580 310 545 310 505 c 0
 310 465 275 430 235 430 c 0
30 280 m 1
 30 380 l 1
 440 380 l 1
 440 280 l 1
 30 280 l 1
235 80 m 0
 195 80 160 115 160 155 c 0
 160 195 195 230 235 230 c 0
 275 230 310 195 310 155 c 0
 310 115 275 80 235 80 c 0
EndSplineSet
EndChar

StartChar: oslash
Encoding: 248 248 186
Width: 540
Flags: MW
HStem: -10 90<258.5 295.5 258.5 342.5> 0 68<89 89 89 135 40 89> 420 90<244.5 281.5> 432 68<450 450>
VStem: 40 140<239.5 315 239.5 338> 360 140<185 259.5>
LayerCount: 2
Fore
SplineSet
270 -10 m 0xac
 222 -10 181 -1 147 17 c 1xac
 135 0 l 1
 40 0 l 1
 89 68 l 1
 56 112 40 173 40 250 c 0
 40 426 125 510 270 510 c 0
 318 510 359 501 392 482 c 1x6c
 405 500 l 1
 499 500 l 1
 450 432 l 1x9c
 482 389 500 330 500 250 c 0
 500 74 415 -10 270 -10 c 0xac
182 195 m 1
 327 393 l 1
 312 411 293 420 270 420 c 0
 219 420 180 380 180 250 c 0
 180 229 179 211 182 195 c 1
270 80 m 0
 321 80 360 120 360 250 c 0
 360 269 359 288 357 305 c 1
 213 107 l 1
 228 87 247 80 270 80 c 0
EndSplineSet
EndChar

StartChar: ugrave
Encoding: 249 249 187
Width: 580
Flags: MW
HStem: -10 95<262.5 282.5> 0 21G<410 510 410 410> 480 20G<70 210 210 210 370 510 510 510> 541 150<272 272 272 307 172 352>
VStem: 70 140<180 500> 370 140<145 500 0 500>
LayerCount: 2
Fore
SplineSet
272 541 m 1x7c
 172 691 l 1
 307 691 l 1
 352 541 l 1
 272 541 l 1x7c
260 -10 m 0xbc
 139 -10 70 59 70 180 c 2
 70 500 l 1
 210 500 l 1
 210 180 l 2
 210 115 240 85 285 85 c 0
 312 85 333 100 348 115 c 0
 356 124 363 134 370 145 c 1xbc
 370 500 l 1
 510 500 l 1
 510 0 l 1
 410 0 l 1
 400 60 l 1
 395 60 l 1x7c
 385 47 374 35 361 25 c 0
 338 6 305 -10 260 -10 c 0xbc
EndSplineSet
EndChar

StartChar: uacute
Encoding: 250 250 188
Width: 580
Flags: MW
HStem: -10 95<262.5 282.5> 0 21G<410 510 410 410> 480 20G<70 210 210 210 370 510 510 510> 541 150<237 417 282 317>
VStem: 70 140<180 500> 370 140<145 500 0 500>
LayerCount: 2
Fore
SplineSet
237 541 m 1x7c
 282 691 l 1
 417 691 l 1
 317 541 l 1
 237 541 l 1x7c
260 -10 m 0xbc
 139 -10 70 59 70 180 c 2
 70 500 l 1
 210 500 l 1
 210 180 l 2
 210 115 240 85 285 85 c 0
 312 85 333 100 348 115 c 0
 356 124 363 134 370 145 c 1xbc
 370 500 l 1
 510 500 l 1
 510 0 l 1
 410 0 l 1
 400 60 l 1
 395 60 l 1x7c
 385 47 374 35 361 25 c 0
 338 6 305 -10 260 -10 c 0xbc
EndSplineSet
EndChar

StartChar: ucircumflex
Encoding: 251 251 189
Width: 580
Flags: MW
HStem: -10 95<262.5 282.5> 0 21G<410 510 410 410> 480 20G<70 210 210 210 370 510 510 510> 560 134<130 340 130 340 240 355 240 450>
VStem: 70 140<180 500> 370 140<145 500 0 500>
LayerCount: 2
Fore
SplineSet
130 560 m 1x7c
 240 694 l 1
 340 694 l 1
 450 560 l 1
 355 560 l 1
 290 630 l 1
 225 560 l 1
 130 560 l 1x7c
260 -10 m 0xbc
 139 -10 70 59 70 180 c 2
 70 500 l 1
 210 500 l 1
 210 180 l 2
 210 115 240 85 285 85 c 0
 312 85 333 100 348 115 c 0
 356 124 363 134 370 145 c 1xbc
 370 500 l 1
 510 500 l 1
 510 0 l 1
 410 0 l 1
 400 60 l 1
 395 60 l 1x7c
 385 47 374 35 361 25 c 0
 338 6 305 -10 260 -10 c 0xbc
EndSplineSet
EndChar

StartChar: udieresis
Encoding: 252 252 190
Width: 580
Flags: MW
HStem: -10 95<262.5 282.5> 0 21G<410 510 410 410> 480 20G<70 210 210 210 370 510 510 510> 570 140<171.5 208.5 366.5 403.5>
VStem: 70 140<180 500> 120 140<621.5 658.5> 315 140<621.5 658.5> 370 140<145 500 0 500>
LayerCount: 2
Fore
SplineSet
190 570 m 0x00
 153 570 120 603 120 640 c 0
 120 677 153 710 190 710 c 0
 227 710 260 677 260 640 c 0
 260 603 227 570 190 570 c 0x00
385 570 m 0
 348 570 315 603 315 640 c 0
 315 677 348 710 385 710 c 0
 422 710 455 677 455 640 c 0
 455 603 422 570 385 570 c 0
260 -10 m 0x76
 139 -10 70 59 70 180 c 2
 70 500 l 1
 210 500 l 1
 210 180 l 2
 210 115 240 85 285 85 c 0
 312 85 333 100 348 115 c 0
 356 124 363 134 370 145 c 1x79
 370 500 l 1
 510 500 l 1
 510 0 l 1
 410 0 l 1
 400 60 l 1
 395 60 l 1xb9
 385 47 374 35 361 25 c 0
 338 6 305 -10 260 -10 c 0x76
EndSplineSet
EndChar

StartChar: yacute
Encoding: 253 253 191
Width: 495
Flags: MW
HStem: -210 90<129.5 150.5 127.5 193> 0 21G<184 222 184 184> 480 20G<19 150 150 150 355 495 495 495> 541 150<195 375 240 275>
VStem: 19 476<500 500>
LayerCount: 2
Fore
SplineSet
195 541 m 1
 240 691 l 1
 375 691 l 1
 275 541 l 1
 195 541 l 1
145 -210 m 0
 114 -210 87 -203 67 -195 c 0
 55 -191 44 -186 35 -180 c 1
 70 -95 l 1
 80 -95 l 1
 85 -100 90 -105 96 -108 c 0
 107 -115 120 -120 135 -120 c 0
 166 -120 195 -97 208 -50 c 2
 222 0 l 1
 184 0 l 1
 19 500 l 1
 150 500 l 1
 250 175 l 2
 253 164 255 151 256 140 c 2
 258 120 l 1
 262 120 l 1
 264 140 l 2
 265 151 267 164 270 175 c 2
 355 500 l 1
 495 500 l 1
 330 -50 l 2
 299 -150 241 -210 145 -210 c 0
EndSplineSet
EndChar

StartChar: thorn
Encoding: 254 254 192
Width: 560
Flags: MW
HStem: -10 90<294.5 312.5 273.5 372.5> 420 90<294.5 312.5> 680 20G<110 210 210 210>
VStem: 70 140<-200 20 -200 110 110 390 480 660 660 660> 380 140<185 315>
LayerCount: 2
Fore
SplineSet
70 -200 m 1
 70 660 l 1
 110 700 l 1
 210 700 l 1
 210 480 l 1
 217 485 226 490 237 495 c 0
 254 502 279 510 310 510 c 0
 435 510 520 425 520 250 c 0
 520 75 435 -10 310 -10 c 0
 279 -10 254 -3 237 5 c 0
 226 9 217 14 210 20 c 1
 210 -200 l 1
 70 -200 l 1
285 80 m 0
 340 80 380 120 380 250 c 0
 380 380 340 420 285 420 c 0
 262 420 244 412 231 405 c 2
 210 390 l 1
 210 110 l 1
 217 104 224 99 231 95 c 0
 244 87 262 80 285 80 c 0
EndSplineSet
EndChar

StartChar: ydieresis
Encoding: 255 255 193
Width: 495
Flags: MW
HStem: -210 90<129.5 150.5 127.5 193> 0 21G<184 222 184 184> 480 20G<19 150 150 150 355 495 495 495> 570 140<128.5 165.5 323.5 360.5>
VStem: 77 140<621.5 658.5> 272 140<621.5 658.5>
LayerCount: 2
Fore
SplineSet
147 570 m 0
 110 570 77 603 77 640 c 0
 77 677 110 710 147 710 c 0
 184 710 217 677 217 640 c 0
 217 603 184 570 147 570 c 0
342 570 m 0
 305 570 272 603 272 640 c 0
 272 677 305 710 342 710 c 0
 379 710 412 677 412 640 c 0
 412 603 379 570 342 570 c 0
145 -210 m 0
 114 -210 87 -203 67 -195 c 0
 55 -191 44 -186 35 -180 c 1
 70 -95 l 1
 80 -95 l 1
 85 -100 90 -105 96 -108 c 0
 107 -115 120 -120 135 -120 c 0
 166 -120 195 -97 208 -50 c 2
 222 0 l 1
 184 0 l 1
 19 500 l 1
 150 500 l 1
 250 175 l 2
 253 164 255 151 256 140 c 2
 258 120 l 1
 262 120 l 1
 264 140 l 2
 265 151 267 164 270 175 c 2
 355 500 l 1
 495 500 l 1
 330 -50 l 2
 299 -150 241 -210 145 -210 c 0
EndSplineSet
EndChar

StartChar: Amacron
Encoding: 256 256 194
Width: 600
Flags: MW
HStem: 0 21G<15 15 15 155 445 445 445 585> 160 90<225 375 225 400 200 375> 680 20G<220 380 380 380> 760 90<155 445 155 445>
VStem: 155 290<0 0 760 850>
LayerCount: 2
Fore
SplineSet
155 760 m 1
 155 850 l 1
 445 850 l 1
 445 760 l 1
 155 760 l 1
15 0 m 1
 220 700 l 1
 380 700 l 1
 585 0 l 1
 445 0 l 1
 400 160 l 1
 200 160 l 1
 155 0 l 1
 15 0 l 1
225 250 m 1
 375 250 l 1
 315 460 l 2
 310 476 308 494 305 509 c 2
 302 535 l 1
 298 535 l 1
 294 509 l 2
 291 494 289 475 285 460 c 2
 225 250 l 1
EndSplineSet
EndChar

StartChar: amacron
Encoding: 257 257 195
Width: 540
Flags: MW
HStem: -10 95<227.5 247.5> 0 21G<375 475 375 375> 215 90<235 335 265 335> 420 90<224.5 272.5> 570 90<135 425 135 425>
VStem: 40 140<127.5 167.5 127.5 193> 135 290<380 660 570 660 570 660> 335 140<145 215 215 215 305 320 0 355.5>
LayerCount: 2
Fore
SplineSet
135 570 m 1x00
 135 660 l 1
 425 660 l 1
 425 570 l 1
 135 570 l 1x00
225 -10 m 0x7a
 105 -10 40 54 40 145 c 0
 40 241 105 305 265 305 c 2
 335 305 l 1
 335 320 l 2
 335 391 305 420 240 420 c 0
 207 420 182 411 163 400 c 0
 152 394 143 387 135 380 c 1
 125 380 l 1
 80 460 l 1
 94 469 110 478 127 485 c 0
 158 497 199 510 250 510 c 0
 394 510 475 430 475 320 c 2
 475 0 l 1
 375 0 l 1
 365 60 l 1
 360 60 l 1xbd
 350 47 339 35 326 25 c 0
 303 6 270 -10 225 -10 c 0x7a
250 85 m 0
 275 85 296 100 311 115 c 0
 320 124 328 134 335 145 c 1
 335 215 l 1
 265 215 l 2
 205 215 180 190 180 145 c 0
 180 110 205 85 250 85 c 0
EndSplineSet
EndChar

StartChar: Abreve
Encoding: 258 258 196
Width: 600
Flags: MW
HStem: 0 21G<15 15 15 155 445 445 445 585> 160 90<225 375 225 400 200 375> 535 165<298 302 298 298> 680 20G<220 380 380 380> 760 140<244.5 250 350 355.5>
VStem: 140 110<874.5 900 874.5 900> 350 110<874.5 900>
LayerCount: 2
Fore
SplineSet
300 760 m 0xde
 189 760 140 809 140 900 c 1
 250 900 l 1
 250 849 269 830 300 830 c 0
 331 830 350 849 350 900 c 1
 460 900 l 1
 460 809 411 760 300 760 c 0xde
15 0 m 1
 220 700 l 1
 380 700 l 1
 585 0 l 1
 445 0 l 1
 400 160 l 1
 200 160 l 1
 155 0 l 1
 15 0 l 1
225 250 m 1
 375 250 l 1
 315 460 l 2
 310 476 308 494 305 509 c 2
 302 535 l 1
 298 535 l 1
 294 509 l 2
 291 494 289 475 285 460 c 2xee
 225 250 l 1
EndSplineSet
EndChar

StartChar: abreve
Encoding: 259 259 197
Width: 540
Flags: MW
HStem: -10 95<227.5 247.5> 0 21G<375 475 375 375> 215 90<235 335 265 335> 420 90<224.5 272.5> 551 140<214.5 220 320 325.5>
VStem: 40 140<127.5 167.5 127.5 193> 110 110<665.5 691 665.5 691> 320 110<665.5 691> 335 140<145 215 215 215 305 320 0 355.5>
LayerCount: 2
Fore
SplineSet
270 551 m 0x7a80
 159 551 110 600 110 691 c 1
 220 691 l 1
 220 640 239 621 270 621 c 0
 301 621 320 640 320 691 c 1
 430 691 l 1x7b
 430 600 381 551 270 551 c 0x7a80
225 -10 m 0xbc80
 105 -10 40 54 40 145 c 0
 40 241 105 305 265 305 c 2
 335 305 l 1
 335 320 l 2
 335 391 305 420 240 420 c 0
 207 420 182 411 163 400 c 0
 152 394 143 387 135 380 c 1
 125 380 l 1
 80 460 l 1
 94 469 110 478 127 485 c 0
 158 497 199 510 250 510 c 0
 394 510 475 430 475 320 c 2
 475 0 l 1
 375 0 l 1
 365 60 l 1
 360 60 l 1x7c80
 350 47 339 35 326 25 c 0
 303 6 270 -10 225 -10 c 0xbc80
250 85 m 0
 275 85 296 100 311 115 c 0
 320 124 328 134 335 145 c 1
 335 215 l 1
 265 215 l 2
 205 215 180 190 180 145 c 0
 180 110 205 85 250 85 c 0
EndSplineSet
EndChar

StartChar: Aogonek
Encoding: 260 260 198
Width: 600
Flags: MW
HStem: -185 70<547.5 552.5> 0 21G<15 155 15 15 445 486 445 445 585 590 590 590> 160 90<225 375 225 400 200 375> 535 165<298 302 298 298> 680 20G<220 380 380 380>
VStem: 430 90<-90 -81.5> 611 9<-160 -93>
LayerCount: 2
Fore
SplineSet
611 -93 m 2xee
 620 -93 l 1
 620 -160 l 1
 614 -165 607 -170 599 -173 c 0
 584 -180 565 -185 540 -185 c 0
 464 -185 430 -151 430 -95 c 0
 430 -68 443 -44 458 -27 c 0
 466 -17 475 -8 486 0 c 1
 445 0 l 1
 400 160 l 1
 200 160 l 1
 155 0 l 1
 15 0 l 1
 220 700 l 1
 380 700 l 1
 585 0 l 1
 590 0 l 1
 577 -7 565 -15 555 -23 c 0
 536 -38 520 -57 520 -80 c 0
 520 -100 535 -115 560 -115 c 0
 590 -115 612 -93 611 -93 c 2xee
225 250 m 1
 375 250 l 1
 315 460 l 2
 310 476 308 494 305 509 c 2
 302 535 l 1
 298 535 l 1
 294 509 l 2
 291 494 289 475 285 460 c 2xf6
 225 250 l 1
EndSplineSet
EndChar

StartChar: aogonek
Encoding: 261 261 199
Width: 530
Flags: MW
HStem: -185 70<437.5 442.5> -10 95<227.5 247.5> 0 21G<375 376 375 375 475 480 480 480> 215 90<235 335 265 335> 420 90<224.5 272.5>
VStem: 40 140<127.5 167.5 127.5 193> 320 90<-90 -81.5> 335 140<145 215 215 215 305 320 0 355.5> 501 9<-160 -93>
LayerCount: 2
Fore
SplineSet
501 -93 m 2x00
 510 -93 l 1
 510 -160 l 1
 504 -165 497 -170 489 -173 c 0
 474 -180 455 -185 430 -185 c 0
 354 -185 320 -151 320 -95 c 0
 320 -68 333 -44 348 -27 c 0
 356 -17 365 -8 376 0 c 1
 375 0 l 1
 365 60 l 1
 360 60 l 1x5a
 350 47 339 35 326 25 c 0x5d
 303 6 270 -10 225 -10 c 0
 105 -10 40 54 40 145 c 0
 40 241 105 305 265 305 c 2
 335 305 l 1
 335 320 l 2
 335 391 305 420 240 420 c 0
 207 420 182 411 163 400 c 0
 152 394 143 387 135 380 c 1
 125 380 l 1
 80 460 l 1
 94 469 110 478 127 485 c 0
 158 497 199 510 250 510 c 0
 394 510 475 430 475 320 c 2
 475 0 l 1
 480 0 l 1xba80
 467 -7 455 -15 445 -23 c 0
 426 -38 410 -57 410 -80 c 0
 410 -100 425 -115 450 -115 c 0
 480 -115 502 -93 501 -93 c 2x00
335 145 m 1xba80
 335 215 l 1
 265 215 l 2
 205 215 180 190 180 145 c 0
 180 110 205 85 250 85 c 0
 275 85 296 100 311 115 c 0
 320 124 328 134 335 145 c 1xba80
EndSplineSet
EndChar

StartChar: Cacute
Encoding: 262 262 200
Width: 535
Flags: MW
HStem: -10 90<295 358.5 295 358.5> 620 90<290 348.5> 750 150<270 450 315 350>
VStem: 50 140<244.5 455.5 244.5 477.5>
LayerCount: 2
Fore
SplineSet
270 750 m 1
 315 900 l 1
 450 900 l 1
 350 750 l 1
 270 750 l 1
330 -10 m 0
 154 -10 50 95 50 350 c 0
 50 605 155 710 320 710 c 0
 377 710 424 697 456 682 c 0
 475 674 491 665 505 655 c 1
 460 575 l 1
 450 575 l 1
 441 583 430 590 418 597 c 0
 397 608 367 620 330 620 c 0
 250 620 190 561 190 350 c 0
 190 139 250 80 340 80 c 0
 377 80 407 91 428 102 c 0
 440 109 451 116 460 125 c 1
 470 125 l 1
 515 45 l 1
 501 34 485 25 466 17 c 0
 434 2 387 -10 330 -10 c 0
EndSplineSet
EndChar

StartChar: cacute
Encoding: 263 263 201
Width: 475
Flags: MW
HStem: -10 90<257.5 310.5> 420 90<253 300.5 199.5 301> 550 150<207 387 252 287>
VStem: 40 140<185 315 185 338>
LayerCount: 2
Fore
SplineSet
207 550 m 1
 252 700 l 1
 387 700 l 1
 287 550 l 1
 207 550 l 1
285 -10 m 0
 124 -10 40 74 40 250 c 0
 40 426 124 510 275 510 c 0
 326 510 366 497 397 485 c 0
 414 478 430 469 445 460 c 1
 400 380 l 1
 390 380 l 1
 382 387 373 394 362 400 c 0
 343 411 317 420 285 420 c 0
 221 420 180 380 180 250 c 0
 180 120 220 80 295 80 c 0
 327 80 353 89 372 100 c 0
 383 106 392 113 400 120 c 1
 410 120 l 1
 455 40 l 1
 440 31 424 22 407 15 c 0
 376 2 336 -10 285 -10 c 0
EndSplineSet
EndChar

StartChar: Ccaron
Encoding: 268 268 202
Width: 535
Flags: MW
HStem: -10 90<295 358.5 295 358.5> 620 90<290 348.5> 766 134<142 252 142 352>
VStem: 50 140<244.5 455.5 244.5 477.5>
LayerCount: 2
Fore
SplineSet
252 766 m 1
 142 900 l 1
 237 900 l 1
 302 830 l 1
 367 900 l 1
 462 900 l 1
 352 766 l 1
 252 766 l 1
330 -10 m 0
 154 -10 50 95 50 350 c 0
 50 605 155 710 320 710 c 0
 377 710 424 697 456 682 c 0
 475 674 491 665 505 655 c 1
 460 575 l 1
 450 575 l 1
 441 583 430 590 418 597 c 0
 397 608 367 620 330 620 c 0
 250 620 190 561 190 350 c 0
 190 139 250 80 340 80 c 0
 377 80 407 91 428 102 c 0
 440 109 451 116 460 125 c 1
 470 125 l 1
 515 45 l 1
 501 34 485 25 466 17 c 0
 434 2 387 -10 330 -10 c 0
EndSplineSet
EndChar

StartChar: ccaron
Encoding: 269 269 203
Width: 475
Flags: MW
HStem: -10 90<257.5 310.5> 420 90<253 300.5 199.5 301> 566 134<100 210 100 310>
VStem: 40 140<185 315 185 338>
LayerCount: 2
Fore
SplineSet
210 566 m 1
 100 700 l 1
 195 700 l 1
 260 630 l 1
 325 700 l 1
 420 700 l 1
 310 566 l 1
 210 566 l 1
285 -10 m 0
 124 -10 40 74 40 250 c 0
 40 426 124 510 275 510 c 0
 326 510 366 497 397 485 c 0
 414 478 430 469 445 460 c 1
 400 380 l 1
 390 380 l 1
 382 387 373 394 362 400 c 0
 343 411 317 420 285 420 c 0
 221 420 180 380 180 250 c 0
 180 120 220 80 295 80 c 0
 327 80 353 89 372 100 c 0
 383 106 392 113 400 120 c 1
 410 120 l 1
 455 40 l 1
 440 31 424 22 407 15 c 0
 376 2 336 -10 285 -10 c 0
EndSplineSet
EndChar

StartChar: Dcaron
Encoding: 270 270 204
Width: 615
Flags: MW
HStem: 0 90<225 255 225 255> 610 90<225 255 225 225> 766 134<122 232 122 332>
VStem: 85 140<90 90 90 610> 425 140<250 450>
LayerCount: 2
Fore
SplineSet
232 766 m 1
 122 900 l 1
 217 900 l 1
 282 830 l 1
 347 900 l 1
 442 900 l 1
 332 766 l 1
 232 766 l 1
85 0 m 1
 85 700 l 1
 255 700 l 2
 455 700 565 590 565 350 c 0
 565 110 455 0 255 0 c 2
 85 0 l 1
225 90 m 1
 255 90 l 2
 365 90 425 150 425 350 c 0
 425 550 365 610 255 610 c 2
 225 610 l 1
 225 90 l 1
EndSplineSet
EndChar

StartChar: dcaron
Encoding: 271 271 205
Width: 655
Flags: MW
HStem: -10 95<242.5 262.5> 0 21G<390 490 390 390> 420 90<247.5 265.5 187.5 286.5> 680 20G<390 490 490 490 572.5 602.5>
VStem: 40 140<187.5 315 187.5 337.5> 350 140<145 390 390 390 480 660 660 660> 535 110<515 655.5 629.5 655.5 609.5 660.5>
LayerCount: 2
Fore
SplineSet
240 -10 m 0x00
 125 -10 40 75 40 250 c 0
 40 425 125 510 250 510 c 0
 281 510 303 502 322 495 c 2
 350 480 l 1
 350 660 l 1
 390 700 l 1
 490 700 l 1
 490 0 l 1
 390 0 l 1
 380 60 l 1
 375 60 l 1xbc
 365 47 354 35 341 25 c 0
 318 6 285 -10 240 -10 c 0x00
565 484 m 1
 535 515 l 1
 544 522 553 529 560 537 c 0
 572 552 585 570 585 590 c 1x7e
 560 590 535 614 535 645 c 0
 535 676 560 700 585 700 c 0
 620 700 645 675 645 636 c 0
 645 583 625 545 605 520 c 0
 593 505 580 493 565 484 c 1
265 85 m 0
 292 85 313 100 328 115 c 0
 336 124 343 134 350 145 c 1
 350 390 l 1
 329 405 l 2
 316 412 298 420 275 420 c 0
 220 420 180 380 180 250 c 0
 180 125 220 85 265 85 c 0
EndSplineSet
EndChar

StartChar: Dcroat
Encoding: 272 272 206
Width: 620
Flags: MW
HStem: 0 90<230 260 230 260> 310 100<35 90 35 90 230 325> 610 90<230 260 230 230>
VStem: 90 140<90 90 90 310 410 610> 430 140<250 450>
LayerCount: 2
Fore
SplineSet
90 0 m 1
 90 310 l 1
 35 310 l 1
 35 410 l 1
 90 410 l 1
 90 700 l 1
 260 700 l 2
 460 700 570 590 570 350 c 0
 570 110 460 0 260 0 c 2
 90 0 l 1
230 90 m 1
 260 90 l 2
 370 90 430 150 430 350 c 0
 430 550 370 610 260 610 c 2
 230 610 l 1
 230 410 l 1
 325 410 l 1
 325 310 l 1
 230 310 l 1
 230 90 l 1
EndSplineSet
EndChar

StartChar: dcroat
Encoding: 273 273 207
Width: 560
Flags: MW
HStem: -10 95<242.5 262.5> 0 21G<390 490 390 390> 390 90<247.5 265.5 187.5 286.5> 520 90<255 350 255 350 490 545> 520 180<255 490 255 490 390 490 390 545>
VStem: 40 140<180.5 292.5 180.5 315> 350 140<145 360 360 360 450 520 0 520 610 660 660 660>
LayerCount: 2
Fore
SplineSet
240 -10 m 0x00
 125 -10 40 75 40 235 c 0
 40 395 125 480 250 480 c 0
 281 480 303 472 322 465 c 2
 350 450 l 1
 350 520 l 1
 255 520 l 1x76
 255 610 l 1
 350 610 l 1
 350 660 l 1x6e
 390 700 l 1
 490 700 l 1x76
 490 610 l 1
 545 610 l 1x6e
 545 520 l 1
 490 520 l 1
 490 0 l 1
 390 0 l 1
 380 60 l 1
 375 60 l 1xae
 365 47 354 35 341 25 c 0
 318 6 285 -10 240 -10 c 0x00
265 85 m 0
 292 85 313 100 328 115 c 0
 336 124 343 134 350 145 c 1
 350 360 l 1
 329 375 l 2
 316 382 298 390 275 390 c 0
 220 390 180 350 180 235 c 0
 180 126 220 85 265 85 c 0
EndSplineSet
EndChar

StartChar: Emacron
Encoding: 274 274 208
Width: 520
Flags: MW
HStem: 0 90<225 505 225 505> 320 90<225 445 225 445> 610 90<225 505 225 225> 770 90<147 437 147 437>
VStem: 147 290<770 860 770 860>
LayerCount: 2
Fore
SplineSet
147 770 m 1
 147 860 l 1
 437 860 l 1
 437 770 l 1
 147 770 l 1
85 0 m 1
 85 700 l 1
 505 700 l 1
 505 610 l 1
 225 610 l 1
 225 410 l 1
 445 410 l 1
 445 320 l 1
 225 320 l 1
 225 90 l 1
 505 90 l 1
 505 0 l 1
 85 0 l 1
EndSplineSet
EndChar

StartChar: emacron
Encoding: 275 275 209
Width: 520
Flags: MW
HStem: -10 90<260 315.5> 205 90<180 340 180 450 180 340> 420 90<240 280> 570 90<127 417 127 417>
VStem: 127 290<570 660 570 660>
LayerCount: 2
Fore
SplineSet
127 570 m 1
 127 660 l 1
 417 660 l 1
 417 570 l 1
 127 570 l 1
290 -10 m 0
 123 -10 40 77 40 250 c 0
 40 425 125 510 260 510 c 0
 395 510 480 425 480 260 c 2
 480 235 l 1
 450 205 l 1
 180 205 l 1
 180 122 220 80 300 80 c 0
 332 80 358 89 377 100 c 0
 388 106 397 113 405 120 c 1
 415 120 l 1
 460 40 l 1
 445 31 429 22 412 15 c 0
 381 2 341 -10 290 -10 c 0
180 295 m 1
 340 295 l 1
 340 380 300 420 260 420 c 0
 220 420 180 380 180 295 c 1
EndSplineSet
EndChar

StartChar: Edotaccent
Encoding: 278 278 210
Width: 520
Flags: MW
HStem: 0 90<225 505 225 505> 320 90<225 445 225 445> 610 90<225 505 225 225> 760 150<282 322>
VStem: 227 150<815 855>
LayerCount: 2
Fore
SplineSet
302 760 m 0
 262 760 227 795 227 835 c 0
 227 875 262 910 302 910 c 0
 342 910 377 875 377 835 c 0
 377 795 342 760 302 760 c 0
85 0 m 1
 85 700 l 1
 505 700 l 1
 505 610 l 1
 225 610 l 1
 225 410 l 1
 445 410 l 1
 445 320 l 1
 225 320 l 1
 225 90 l 1
 505 90 l 1
 505 0 l 1
 85 0 l 1
EndSplineSet
EndChar

StartChar: edotaccent
Encoding: 279 279 211
Width: 520
Flags: MW
HStem: -10 90<260 315.5> 205 90<180 340 180 450 180 340> 420 90<240 280> 560 150<242 282>
VStem: 187 150<615 655>
LayerCount: 2
Fore
SplineSet
262 560 m 0
 222 560 187 595 187 635 c 0
 187 675 222 710 262 710 c 0
 302 710 337 675 337 635 c 0
 337 595 302 560 262 560 c 0
290 -10 m 0
 123 -10 40 77 40 250 c 0
 40 425 125 510 260 510 c 0
 395 510 480 425 480 260 c 2
 480 235 l 1
 450 205 l 1
 180 205 l 1
 180 122 220 80 300 80 c 0
 332 80 358 89 377 100 c 0
 388 106 397 113 405 120 c 1
 415 120 l 1
 460 40 l 1
 445 31 429 22 412 15 c 0
 381 2 341 -10 290 -10 c 0
180 295 m 1
 340 295 l 1
 340 380 300 420 260 420 c 0
 220 420 180 380 180 295 c 1
EndSplineSet
EndChar

StartChar: Eogonek
Encoding: 280 280 212
Width: 530
Flags: MW
HStem: -185 70<332.5 337.5> 0 90<225 271 375 505 375 375> 320 90<225 445 225 445> 610 90<225 505 225 225>
VStem: 85 140<90 320 410 610> 215 90<-90 -81.5> 396 9<-160 -93>
LayerCount: 2
Fore
SplineSet
505 610 m 1x7a
 225 610 l 1
 225 410 l 1
 445 410 l 1
 445 320 l 1
 225 320 l 1
 225 90 l 1x7a
 505 90 l 1
 505 0 l 1
 375 0 l 1
 362 -7 350 -15 340 -23 c 0
 321 -38 305 -57 305 -80 c 0
 305 -100 320 -115 345 -115 c 0
 375 -115 397 -93 396 -93 c 2
 405 -93 l 1
 405 -160 l 1
 399 -165 392 -170 384 -173 c 0
 369 -180 350 -185 325 -185 c 0
 249 -185 215 -151 215 -95 c 0
 215 -68 228 -44 243 -27 c 0
 251 -17 260 -8 271 0 c 1xf6
 85 0 l 1
 85 700 l 1
 505 700 l 1
 505 610 l 1x7a
EndSplineSet
EndChar

StartChar: eogonek
Encoding: 281 281 213
Width: 520
Flags: MW
HStem: -185 70<297.5 302.5> -6 21G 205 90<180 340 180 450 180 340> 420 90<240 280>
VStem: 40 140<175 205 295 337.5> 180 90<-90 -81.5> 340 140<235 337.5> 361 9<-160 -93>
LayerCount: 2
Fore
SplineSet
480 235 m 1x00
 450 205 l 1
 180 205 l 1xf5
 180 122 220 80 300 80 c 0
 332 80 358 89 377 100 c 0
 388 106 397 113 405 120 c 1
 415 120 l 1
 460 40 l 1
 445 31 429 22 412 15 c 0
 389 5 361 -4 326 -8 c 1
 319 -13 311 -18 305 -23 c 0
 286 -38 270 -57 270 -80 c 0
 270 -100 285 -115 310 -115 c 0
 340 -115 362 -93 361 -93 c 2
 370 -93 l 1
 370 -160 l 1
 364 -165 357 -170 349 -173 c 0
 334 -180 315 -185 290 -185 c 0
 214 -185 180 -151 180 -95 c 0
 180 -68 193 -44 208 -27 c 0xfa
 214 -19 221 -12 229 -6 c 1
 103 14 40 100 40 250 c 0
 40 425 125 510 260 510 c 0
 395 510 480 425 480 260 c 2
 480 235 l 1x00
180 295 m 1
 340 295 l 1
 340 380 300 420 260 420 c 0
 220 420 180 380 180 295 c 1
EndSplineSet
EndChar

StartChar: Ecaron
Encoding: 282 282 214
Width: 530
Flags: MW
HStem: 0 90<225 505 225 505> 320 90<225 445 225 445> 610 90<225 505 225 225> 766 134<152 262 152 362>
VStem: 85 140<90 320 410 610>
LayerCount: 2
Fore
SplineSet
262 766 m 1
 152 900 l 1
 247 900 l 1
 312 830 l 1
 377 900 l 1
 472 900 l 1
 362 766 l 1
 262 766 l 1
85 0 m 1
 85 700 l 1
 505 700 l 1
 505 610 l 1
 225 610 l 1
 225 410 l 1
 445 410 l 1
 445 320 l 1
 225 320 l 1
 225 90 l 1
 505 90 l 1
 505 0 l 1
 85 0 l 1
EndSplineSet
EndChar

StartChar: ecaron
Encoding: 283 283 215
Width: 520
Flags: MW
HStem: -10 90<260 315.5> 205 90<180 340 180 450 180 340> 420 90<240 280> 566 134<102 212 102 312>
VStem: 40 140<163.5 205 295 337.5 163.5 337.5> 340 140<235 337.5>
LayerCount: 2
Fore
SplineSet
212 566 m 1
 102 700 l 1
 197 700 l 1
 262 630 l 1
 327 700 l 1
 422 700 l 1
 312 566 l 1
 212 566 l 1
290 -10 m 0
 123 -10 40 77 40 250 c 0
 40 425 125 510 260 510 c 0
 395 510 480 425 480 260 c 2
 480 235 l 1
 450 205 l 1
 180 205 l 1
 180 122 220 80 300 80 c 0
 332 80 358 89 377 100 c 0
 388 106 397 113 405 120 c 1
 415 120 l 1
 460 40 l 1
 445 31 429 22 412 15 c 0
 381 2 341 -10 290 -10 c 0
180 295 m 1
 340 295 l 1
 340 380 300 420 260 420 c 0
 220 420 180 380 180 295 c 1
EndSplineSet
EndChar

StartChar: Gbreve
Encoding: 286 286 216
Width: 590
Flags: MW
HStem: -10 90<295 346.5 295 362.5> 300 90<285 390 285 490> 620 90<290 348.5> 750 140<256.5 262 362 367.5>
VStem: 152 110<864.5 890 864.5 890> 362 110<864.5 890>
LayerCount: 2
Fore
SplineSet
312 750 m 0
 201 750 152 799 152 890 c 1
 262 890 l 1
 262 839 281 820 312 820 c 0
 343 820 362 839 362 890 c 1
 472 890 l 1
 472 799 423 750 312 750 c 0
330 -10 m 0
 154 -10 50 95 50 350 c 0
 50 605 155 710 320 710 c 0
 377 710 424 697 456 682 c 0
 475 674 491 665 505 655 c 1
 460 575 l 1
 450 575 l 1
 441 583 430 590 418 597 c 0
 397 608 367 620 330 620 c 0
 250 620 190 561 190 350 c 0
 190 139 250 80 340 80 c 0
 353 80 364 82 374 85 c 0
 379 86 385 88 390 90 c 1
 390 300 l 1
 285 300 l 1
 285 390 l 1
 490 390 l 1
 530 350 l 1
 530 45 l 1
 516 34 499 25 479 17 c 0
 444 2 395 -10 330 -10 c 0
EndSplineSet
EndChar

StartChar: gbreve
Encoding: 287 287 217
Width: 590
Flags: MW
HStem: -210 90<228.5 277.5 227.5 330> -10 90<247.5 265.5 247.5 350> 480 20G<390 490 490 490> 560 70<291.5 322.5 291.5 362.5> 560 140<251.5 257 357 362.5>
VStem: 40 140<185 312.5 185 337.5> 147 110<674.5 700 674.5 700> 350 140<-10 20 20 20 110 355 355 355> 357 110<674.5 700>
LayerCount: 2
Fore
SplineSet
307 560 m 0x00
 196 560 147 609 147 700 c 1
 257 700 l 1xf480
 257 649 276 630 307 630 c 0xea80
 338 630 357 649 357 700 c 1
 467 700 l 1
 467 609 418 560 307 560 c 0x00
255 -210 m 0xea80
 202 -210 159 -198 128 -185 c 0
 110 -178 94 -169 80 -160 c 1
 125 -80 l 1
 135 -80 l 1
 143 -87 153 -94 164 -100 c 0
 183 -111 210 -120 245 -120 c 0
 310 -120 350 -81 350 -10 c 2
 350 20 l 1
 341 14 332 9 322 5 c 0
 303 -3 281 -10 250 -10 c 0
 125 -10 40 75 40 250 c 0
 40 425 125 510 240 510 c 0
 285 510 318 492 341 475 c 0
 354 464 365 453 375 440 c 1
 380 440 l 1xed
 390 500 l 1
 490 500 l 1
 490 -10 l 2
 490 -125 405 -210 255 -210 c 0xea80
275 80 m 0
 298 80 316 87 329 95 c 0
 336 99 343 104 350 110 c 1
 350 355 l 1
 343 366 336 376 328 385 c 0
 313 400 292 415 265 415 c 0
 220 415 180 375 180 250 c 0
 180 120 220 80 275 80 c 0
EndSplineSet
EndChar

StartChar: Gcommaaccent
Encoding: 290 290 218
Width: 590
Flags: MW
HStem: -174 125<315.5 337> -10 90<295 346.5 295 362.5> 300 90<285 390 285 490> 620 90<290 348.5>
VStem: 50 140<244.5 455.5 244.5 477.5> 267 130<-130 -100.5 -153.5 -95.5> 390 140<90 300 300 300>
LayerCount: 2
Fore
SplineSet
330 -10 m 0x7a
 154 -10 50 95 50 350 c 0
 50 605 155 710 320 710 c 0
 377 710 424 697 456 682 c 0
 475 674 491 665 505 655 c 1
 460 575 l 1
 450 575 l 1
 441 583 430 590 418 597 c 0
 397 608 367 620 330 620 c 0
 250 620 190 561 190 350 c 0
 190 139 250 80 340 80 c 0
 353 80 364 82 374 85 c 0
 379 86 385 88 390 90 c 1
 390 300 l 1
 285 300 l 1
 285 390 l 1
 490 390 l 1
 530 350 l 1
 530 45 l 1
 516 34 499 25 479 17 c 0
 444 2 395 -10 330 -10 c 0x7a
312 -289 m 1xfc
 282 -255 l 1
 292 -248 301 -240 309 -231 c 0
 324 -216 337 -197 337 -174 c 1
 294 -174 267 -146 267 -114 c 0
 267 -77 295 -49 327 -49 c 0
 370 -49 397 -77 397 -124 c 0
 397 -183 375 -223 354 -250 c 0
 342 -266 328 -279 312 -289 c 1xfc
EndSplineSet
EndChar

StartChar: gcommaaccent
Encoding: 291 291 219
Width: 560
Flags: MW
HStem: -210 90<228.5 277.5 227.5 330> -10 90<247.5 265.5 247.5 350> 480 20G<390 490 490 490> 560 125<240 261.5 240 266>
VStem: 180 130<611.5 641 606.5 664.5> 350 140<-10 20 20 20 110 355 355 355>
LayerCount: 2
Fore
SplineSet
265 800 m 1
 295 766 l 1
 285 759 276 751 268 742 c 0
 253 727 240 708 240 685 c 1
 283 685 310 657 310 625 c 0
 310 588 282 560 250 560 c 0
 207 560 180 588 180 635 c 0
 180 694 202 734 223 761 c 0
 235 777 249 790 265 800 c 1
255 -210 m 0
 202 -210 159 -198 128 -185 c 0
 110 -178 94 -169 80 -160 c 1
 125 -80 l 1
 135 -80 l 1
 143 -87 153 -94 164 -100 c 0
 183 -111 210 -120 245 -120 c 0
 310 -120 350 -81 350 -10 c 2
 350 20 l 1
 341 14 332 9 322 5 c 0
 303 -3 281 -10 250 -10 c 0
 125 -10 40 75 40 250 c 0
 40 425 125 510 240 510 c 0
 285 510 318 492 341 475 c 0
 354 464 365 453 375 440 c 1
 380 440 l 1xfc
 390 500 l 1
 490 500 l 1
 490 -10 l 2
 490 -125 405 -210 255 -210 c 0
275 80 m 0
 298 80 316 87 329 95 c 0
 336 99 343 104 350 110 c 1
 350 355 l 1
 343 366 336 376 328 385 c 0
 313 400 292 415 265 415 c 0
 220 415 180 375 180 250 c 0
 180 120 220 80 275 80 c 0
EndSplineSet
EndChar

StartChar: hbar
Encoding: 295 295 220
Width: 575
Flags: MW
HStem: 0 21G<75 75 75 215 375 375 375 515> 355 95<307.5 322.5> 500 90<20 75 20 75 215 340> 680 20G<115 215 215 215>
VStem: 75 140<0 295 405 500 590 660 660 660> 375 140<0 260 0 292.5>
LayerCount: 2
Fore
SplineSet
75 0 m 1
 75 500 l 1
 20 500 l 1
 20 590 l 1
 75 590 l 1
 75 660 l 1
 115 700 l 1
 215 700 l 1
 215 590 l 1
 340 590 l 1
 340 500 l 1
 215 500 l 1
 215 405 l 1
 223 413 233 420 244 427 c 0
 263 438 290 450 325 450 c 0
 446 450 515 381 515 260 c 2
 515 0 l 1
 375 0 l 1
 375 260 l 2
 375 325 345 355 300 355 c 0
 272 355 252 340 237 325 c 0
 229 316 222 306 215 295 c 1
 215 0 l 1
 75 0 l 1
EndSplineSet
EndChar

StartChar: Itilde
Encoding: 296 296 221
Width: 305
Flags: MW
HStem: 0 21G<85 85 85 225> 680 20G<85 225 225 225> 785 90<183.5 201 183.5 236.5> 830 90<101 118.5>
VStem: 85 140<0 700 0 700>
LayerCount: 2
Fore
SplineSet
250 915 m 1x00
 306 885 l 1
 301 834 262 785 211 785 c 0xd8
 156 785 136 830 101 830 c 0
 76 829 61 791 61 790 c 2
 52 790 l 1
 -4 820 l 1
 1 871 40 920 91 920 c 0xe8
 146 920 166 875 201 875 c 0
 225 874 242 914 241 915 c 2
 250 915 l 1x00
85 0 m 1
 85 700 l 1
 225 700 l 1
 225 0 l 1
 85 0 l 1
EndSplineSet
EndChar

StartChar: itilde
Encoding: 297 297 222
Width: 285
Flags: MW
HStem: 0 21G<75 75 75 215> 480 20G<75 215 215 215> 585 90<172.5 190 172.5 225.5> 630 90<90 107.5>
VStem: 75 140<0 500 0 500>
LayerCount: 2
Fore
SplineSet
239 715 m 1x00
 295 685 l 1
 290 634 251 585 200 585 c 0xd8
 145 585 125 630 90 630 c 0
 65 629 50 591 50 590 c 2
 41 590 l 1
 -15 620 l 1
 -10 671 29 720 80 720 c 0xe8
 135 720 155 675 190 675 c 0
 214 674 231 714 230 715 c 2
 239 715 l 1x00
75 0 m 1
 75 500 l 1
 215 500 l 1
 215 0 l 1
 75 0 l 1
EndSplineSet
EndChar

StartChar: Imacron
Encoding: 298 298 223
Width: 300
Flags: MW
HStem: 0 21G<85 85 85 225> 680 20G<85 225 225 225> 760 90<6 296 6 296>
VStem: 85 140<0 700 0 700>
LayerCount: 2
Fore
SplineSet
6 760 m 1
 6 850 l 1
 296 850 l 1
 296 760 l 1
 6 760 l 1
85 0 m 1
 85 700 l 1
 225 700 l 1
 225 0 l 1
 85 0 l 1
EndSplineSet
EndChar

StartChar: imacron
Encoding: 299 299 224
Width: 290
Flags: MW
HStem: 0 21G<75 75 75 215> 480 20G<75 215 215 215> 560 90<0 290 0 290>
VStem: 75 140<0 500 0 500>
LayerCount: 2
Fore
SplineSet
0 560 m 1
 0 650 l 1
 290 650 l 1
 290 560 l 1
 0 560 l 1
75 0 m 1
 75 500 l 1
 215 500 l 1
 215 0 l 1
 75 0 l 1
EndSplineSet
EndChar

StartChar: Iogonek
Encoding: 302 302 225
Width: 315
Flags: MW
HStem: -185 70<187.5 192.5> 0 21G<85 126 85 85 225 230 230 230> 680 20G<85 225 225 225>
VStem: 85 140<0 700 0 700> 251 9<-160 -93>
LayerCount: 2
Fore
SplineSet
251 -93 m 2
 260 -93 l 1
 260 -160 l 1
 254 -165 247 -170 239 -173 c 0
 224 -180 205 -185 180 -185 c 0
 104 -185 70 -151 70 -95 c 0
 70 -68 83 -44 98 -27 c 0
 106 -17 115 -8 126 0 c 1
 85 0 l 1
 85 700 l 1
 225 700 l 1
 225 0 l 1
 230 0 l 1
 217 -7 205 -15 195 -23 c 0
 176 -38 160 -57 160 -80 c 0
 160 -100 175 -115 200 -115 c 0
 230 -115 252 -93 251 -93 c 2
EndSplineSet
EndChar

StartChar: iogonek
Encoding: 303 303 226
Width: 290
Flags: MW
HStem: -185 70<172.5 177.5> 0 21G<70 111 70 70 210 215 215 215> 480 20G<70 210 210 210> 565 150<120 160>
VStem: 65 150<620 660> 70 140<0 500 0 500> 236 9<-160 -93>
LayerCount: 2
Fore
SplineSet
140 565 m 0x00
 100 565 65 600 65 640 c 0
 65 680 100 715 140 715 c 0
 180 715 215 680 215 640 c 0
 215 600 180 565 140 565 c 0x00
236 -93 m 2xf8
 245 -93 l 1
 245 -160 l 1
 239 -165 232 -170 224 -173 c 0
 209 -180 190 -185 165 -185 c 0
 89 -185 55 -151 55 -95 c 0
 55 -68 68 -44 83 -27 c 0
 91 -17 100 -8 111 0 c 1xf4
 70 0 l 1
 70 500 l 1
 210 500 l 1
 210 0 l 1
 215 0 l 1
 202 -7 190 -15 180 -23 c 0
 161 -38 145 -57 145 -80 c 0
 145 -100 160 -115 185 -115 c 0xf6
 215 -115 237 -93 236 -93 c 2xf8
EndSplineSet
EndChar

StartChar: Idotaccent
Encoding: 304 304 227
Width: 300
Flags: MW
HStem: 0 21G<85 85 85 225> 680 20G<85 225 225 225> 760 150<130 170>
VStem: 85 140<0 700 0 700>
LayerCount: 2
Fore
SplineSet
150 760 m 0
 110 760 75 795 75 835 c 0
 75 875 110 910 150 910 c 0
 190 910 225 875 225 835 c 0
 225 795 190 760 150 760 c 0
85 0 m 1
 85 700 l 1
 225 700 l 1
 225 0 l 1
 85 0 l 1
EndSplineSet
EndChar

StartChar: dotlessi
Encoding: 305 305 228
Width: 280
Flags: MW
HStem: 0 21G<70 70 70 210> 480 20G<70 210 210 210>
VStem: 70 140<0 500 0 500>
LayerCount: 2
Fore
SplineSet
70 0 m 1
 70 500 l 1
 210 500 l 1
 210 0 l 1
 70 0 l 1
EndSplineSet
EndChar

StartChar: ij
Encoding: 307 307 229
Width: 535
Flags: MW
HStem: -200 90<254.5 280 252.5 332.5> 0 21G<70 210 70 70> 410 90<210 325 210 210> 565 150<120 160 375 415>
VStem: 65 150<620 660> 320 150<620 660>
LayerCount: 2
Fore
SplineSet
140 565 m 0
 100 565 65 600 65 640 c 0
 65 680 100 715 140 715 c 0
 180 715 215 680 215 640 c 0
 215 600 180 565 140 565 c 0
395 565 m 0
 355 565 320 600 320 640 c 0
 320 680 355 715 395 715 c 0
 435 715 470 680 470 640 c 0
 470 600 435 565 395 565 c 0
270 -200 m 0
 239 -200 212 -193 192 -185 c 0
 180 -181 169 -176 160 -170 c 1
 195 -85 l 1
 205 -85 l 1
 210 -90 215 -95 221 -98 c 0
 232 -105 245 -110 260 -110 c 0
 300 -110 325 -86 325 -30 c 2
 325 410 l 1
 210 410 l 1
 210 0 l 1
 70 0 l 1
 70 500 l 1
 465 500 l 1
 465 -30 l 2xfc
 465 -130 395 -200 270 -200 c 0
EndSplineSet
EndChar

StartChar: Jcircumflex
Encoding: 308 308 230
Width: 450
Flags: MW
HStem: -10 90<130 170 128.5 222.5> 680 20G<235 375 375 375> 740 134<140 350 140 350 250 365 250 460>
VStem: 235 140<190 700>
LayerCount: 2
Fore
SplineSet
140 740 m 1
 250 874 l 1
 350 874 l 1
 460 740 l 1
 365 740 l 1
 300 810 l 1
 235 740 l 1
 140 740 l 1
150 -10 m 0
 110 -10 72 1 45 12 c 0
 28 19 13 26 0 35 c 1
 40 120 l 1
 50 120 l 1
 59 113 68 106 78 100 c 0
 95 89 117 80 140 80 c 0
 200 80 235 114 235 190 c 2
 235 700 l 1
 375 700 l 1
 375 190 l 2
 375 70 295 -10 150 -10 c 0
EndSplineSet
EndChar

StartChar: jcircumflex
Encoding: 309 309 231
Width: 298
Flags: MW
HStem: -200 90<19.5 45 17.5 97.5> 480 20G<90 230 230 230> 550 134<-7 203 -7 203 103 218 103 313>
VStem: 90 140<-30 500>
LayerCount: 2
Fore
SplineSet
-7 550 m 1
 103 684 l 1
 203 684 l 1
 313 550 l 1
 218 550 l 1
 153 620 l 1
 88 550 l 1
 -7 550 l 1
35 -200 m 0
 4 -200 -23 -193 -43 -185 c 0
 -55 -181 -66 -176 -75 -170 c 1
 -40 -85 l 1
 -30 -85 l 1
 -25 -90 -20 -95 -14 -98 c 0
 -3 -105 10 -110 25 -110 c 0
 65 -110 90 -86 90 -30 c 2
 90 500 l 1
 230 500 l 1
 230 -30 l 2
 230 -130 160 -200 35 -200 c 0
EndSplineSet
EndChar

StartChar: Kcommaaccent
Encoding: 310 310 232
Width: 585
Flags: MW
HStem: -125 125<300.5 322> 0 21G<85 85 85 225 296 333.5 420 420 420 580> 680 20G<85 225 225 225 410 565 565 565>
VStem: 85 140<0 330 390 700> 252 130<-81 -51.5 -104.5 -46.5>
LayerCount: 2
Fore
SplineSet
85 0 m 1x70
 85 700 l 1
 225 700 l 1
 225 390 l 1
 410 700 l 1
 565 700 l 1
 355 365 l 1
 580 0 l 1
 420 0 l 1
 225 330 l 1
 225 0 l 1
 85 0 l 1x70
297 -240 m 1xb8
 267 -206 l 1
 277 -199 286 -191 294 -182 c 0
 309 -167 322 -148 322 -125 c 1
 279 -125 252 -97 252 -65 c 0
 252 -28 280 0 312 0 c 0
 355 0 382 -28 382 -75 c 0
 382 -134 360 -174 339 -201 c 0
 327 -217 313 -230 297 -240 c 1xb8
EndSplineSet
EndChar

StartChar: kcommaaccent
Encoding: 311 311 233
Width: 510
Flags: MW
HStem: -216 21G<227 227> -135 125<260.5 282> 0 21G<70 70 70 210 350 350 350 505> 480 20G<340 495 495 495> 680 20G<110 210 210 210>
VStem: 70 140<0 235 285 660 660 660> 212 130<-91 -61.5 -114.5 -56.5>
LayerCount: 2
Fore
SplineSet
70 0 m 1
 70 660 l 1
 110 700 l 1
 210 700 l 1
 210 285 l 1
 340 500 l 1
 495 500 l 1
 335 260 l 1
 505 0 l 1
 350 0 l 1
 210 235 l 1
 210 0 l 1
 70 0 l 1
257 -250 m 1
 227 -216 l 1
 237 -209 246 -201 254 -192 c 0
 269 -177 282 -158 282 -135 c 1
 239 -135 212 -107 212 -75 c 0
 212 -38 240 -10 272 -10 c 0
 315 -10 342 -38 342 -85 c 0
 342 -144 320 -184 299 -211 c 0
 287 -227 273 -240 257 -250 c 1
EndSplineSet
EndChar

StartChar: kgreenlandic
Encoding: 312 312 234
Width: 510
Flags: MW
HStem: 0 21G<70 70 70 210 350 350 350 505> 480 20G<110 210 210 210 340 495 495 495>
VStem: 70 140<0 235 285 460 460 460>
LayerCount: 2
Fore
SplineSet
70 0 m 1
 70 460 l 1
 110 500 l 1
 210 500 l 1
 210 285 l 1
 340 500 l 1
 495 500 l 1
 335 260 l 1
 505 0 l 1
 350 0 l 1
 210 235 l 1
 210 0 l 1
 70 0 l 1
EndSplineSet
EndChar

StartChar: Lacute
Encoding: 313 313 235
Width: 505
Flags: MW
HStem: 0 90<225 495 225 495> 680 20G<85 225 225 225> 750 150<120 300 165 200>
VStem: 85 140<90 700 90 700 90 700>
LayerCount: 2
Fore
SplineSet
120 750 m 1
 165 900 l 1
 300 900 l 1
 200 750 l 1
 120 750 l 1
85 0 m 1
 85 700 l 1
 225 700 l 1
 225 90 l 1
 495 90 l 1
 495 0 l 1
 85 0 l 1
EndSplineSet
EndChar

StartChar: lacute
Encoding: 314 314 236
Width: 282
Flags: MW
HStem: 0 21G<70 70 70 210> 680 20G<110 210 210 210> 750 150<97 277 142 177>
VStem: 70 140<0 660 660 660>
LayerCount: 2
Fore
SplineSet
97 750 m 1
 142 900 l 1
 277 900 l 1
 177 750 l 1
 97 750 l 1
70 0 m 1
 70 660 l 1
 110 700 l 1
 210 700 l 1
 210 0 l 1
 70 0 l 1
EndSplineSet
EndChar

StartChar: Lcommaaccent
Encoding: 315 315 237
Width: 505
Flags: MW
HStem: -174 125<285.5 307> 0 90<225 495 225 495> 680 20G<85 225 225 225>
VStem: 85 140<90 700 90 700 90 700> 237 130<-130 -100.5 -153.5 -95.5>
LayerCount: 2
Fore
SplineSet
85 0 m 1
 85 700 l 1
 225 700 l 1
 225 90 l 1
 495 90 l 1
 495 0 l 1
 85 0 l 1
282 -289 m 1
 252 -255 l 1
 262 -248 271 -240 279 -231 c 0
 294 -216 307 -197 307 -174 c 1
 264 -174 237 -146 237 -114 c 0
 237 -77 265 -49 297 -49 c 0
 340 -49 367 -77 367 -124 c 0
 367 -183 345 -223 324 -250 c 0
 312 -266 298 -279 282 -289 c 1
EndSplineSet
EndChar

StartChar: lcommaaccent
Encoding: 316 316 238
Width: 280
Flags: MW
HStem: -174 125<123.5 145> 0 21G<70 70 70 210> 680 20G<110 210 210 210>
VStem: 70 140<0 660 660 660> 75 130<-130 -100.5 -153.5 -95.5>
LayerCount: 2
Fore
SplineSet
70 0 m 1xf0
 70 660 l 1
 110 700 l 1
 210 700 l 1
 210 0 l 1
 70 0 l 1xf0
120 -289 m 1xe8
 90 -255 l 1
 100 -248 109 -240 117 -231 c 0
 132 -216 145 -197 145 -174 c 1
 102 -174 75 -146 75 -114 c 0
 75 -77 103 -49 135 -49 c 0
 178 -49 205 -77 205 -124 c 0
 205 -183 183 -223 162 -250 c 0
 150 -266 136 -279 120 -289 c 1xe8
EndSplineSet
EndChar

StartChar: Lcaron
Encoding: 317 317 239
Width: 505
Flags: MW
HStem: 0 90<225 495 225 495> 575 125<328.5 350>
VStem: 85 140<90 700 90 700 90 700> 280 130<619 648.5 595.5 653.5>
LayerCount: 2
Fore
SplineSet
85 0 m 1
 85 700 l 1
 225 700 l 1
 225 90 l 1
 495 90 l 1
 495 0 l 1
 85 0 l 1
325 460 m 1
 295 494 l 1
 305 501 314 509 322 518 c 0
 337 533 350 552 350 575 c 1
 307 575 280 603 280 635 c 0
 280 672 308 700 340 700 c 0
 383 700 410 672 410 625 c 0
 410 566 388 526 367 499 c 0
 355 483 341 470 325 460 c 1
EndSplineSet
EndChar

StartChar: lcaron
Encoding: 318 318 240
Width: 410
Flags: MW
HStem: 0 21G<70 70 70 210> 575 125<318.5 340> 680 20G<110 210 210 210 314 351.5>
VStem: 70 140<0 660 660 660> 270 130<619 648.5 595.5 653.5>
LayerCount: 2
Fore
SplineSet
70 0 m 1xb8
 70 660 l 1
 110 700 l 1
 210 700 l 1
 210 0 l 1
 70 0 l 1xb8
315 460 m 1
 285 494 l 1
 295 501 304 509 312 518 c 0
 327 533 340 552 340 575 c 1xd8
 297 575 270 603 270 635 c 0
 270 672 298 700 330 700 c 0
 373 700 400 672 400 625 c 0
 400 566 378 526 357 499 c 0
 345 483 331 470 315 460 c 1
EndSplineSet
EndChar

StartChar: ldot
Encoding: 320 320 241
Width: 415
Flags: MW
HStem: 0 21G<70 70 70 210> 275 150<310 350> 680 20G<110 210 210 210>
VStem: 70 140<0 660 660 660> 255 150<330 370>
LayerCount: 2
Fore
SplineSet
70 0 m 1
 70 660 l 1
 110 700 l 1
 210 700 l 1
 210 0 l 1
 70 0 l 1
330 275 m 0
 290 275 255 310 255 350 c 0
 255 390 290 425 330 425 c 0
 370 425 405 390 405 350 c 0
 405 310 370 275 330 275 c 0
EndSplineSet
Ligature2: "Ligature Substitution lookup 22 subtable" l periodcentered
EndChar

StartChar: Lslash
Encoding: 321 321 242
Width: 510
Flags: MW
HStem: 0 90<230 500 230 500> 680 20G<90 230 230 230>
VStem: 90 140<90 250 250 250 483 700>
LayerCount: 2
Fore
SplineSet
90 0 m 1
 90 250 l 1
 35 210 l 1
 35 340 l 1
 90 380 l 1
 90 700 l 1
 230 700 l 1
 230 483 l 1
 320 550 l 1
 320 420 l 1
 230 353 l 1
 230 90 l 1
 500 90 l 1
 500 0 l 1
 90 0 l 1
EndSplineSet
EndChar

StartChar: lslash
Encoding: 322 322 243
Width: 325
Flags: MW
HStem: 0 21G<95 95 95 235> 680 20G<135 235 235 235>
VStem: 95 140<0 250 250 250 493 660 660 660>
LayerCount: 2
Fore
SplineSet
95 0 m 1
 95 250 l 1
 45 210 l 1
 45 340 l 1
 95 380 l 1
 95 660 l 1
 135 700 l 1
 235 700 l 1
 235 493 l 1
 305 550 l 1
 305 420 l 1
 235 363 l 1
 235 0 l 1
 95 0 l 1
EndSplineSet
EndChar

StartChar: Nacute
Encoding: 323 323 244
Width: 660
Flags: MW
HStem: 0 21G<85 85 85 225 425 425 425 575> 680 20G<85 235 235 235 435 575 575 575> 740 150<267 447 312 347>
VStem: 85 140<0 420 0 700> 435 140<280 700 0 700>
LayerCount: 2
Fore
SplineSet
267 740 m 1
 312 890 l 1
 447 890 l 1
 347 740 l 1
 267 740 l 1
85 0 m 1
 85 700 l 1
 235 700 l 1
 410 280 l 1
 428 236 l 1
 436 215 l 1
 440 215 l 1
 437 236 l 2
 435 248 435 265 435 280 c 2
 435 700 l 1
 575 700 l 1
 575 0 l 1
 425 0 l 1
 250 420 l 1
 232 464 l 1
 224 485 l 1
 220 485 l 1
 222 464 l 2
 223 451 225 435 225 420 c 2
 225 0 l 1
 85 0 l 1
EndSplineSet
EndChar

StartChar: nacute
Encoding: 324 324 245
Width: 575
Flags: MW
HStem: 0 21G<70 70 70 210 370 370 370 510> 415 95<297.5 317.5> 480 20G<70 170 170 170> 550 150<235 415 280 315>
VStem: 70 140<0 355 0 500> 370 140<0 320 0 352.5>
LayerCount: 2
Fore
SplineSet
235 550 m 1xbc
 280 700 l 1
 415 700 l 1
 315 550 l 1
 235 550 l 1xbc
70 0 m 1
 70 500 l 1
 170 500 l 1
 180 440 l 1
 185 440 l 1xbc
 194 453 206 464 219 475 c 0
 242 492 275 510 320 510 c 0
 441 510 510 441 510 320 c 2
 510 0 l 1
 370 0 l 1
 370 320 l 2
 370 385 340 415 295 415 c 0
 267 415 247 400 232 385 c 0
 224 376 217 366 210 355 c 1xdc
 210 0 l 1
 70 0 l 1
EndSplineSet
EndChar

StartChar: Ncommaaccent
Encoding: 325 325 246
Width: 660
Flags: MW
HStem: -125 125<313.5 335> 0 21G<85 85 85 225 309 346.5 425 425 425 575> 680 20G<85 235 235 235 435 575 575 575>
VStem: 85 140<0 420 0 700> 265 130<-81 -51.5 -104.5 -46.5> 435 140<280 700 0 700>
CounterMasks: 1 1c
LayerCount: 2
Fore
SplineSet
85 0 m 1x7c
 85 700 l 1
 235 700 l 1
 410 280 l 1
 428 236 l 1
 436 215 l 1
 440 215 l 1
 437 236 l 2
 435 248 435 265 435 280 c 2
 435 700 l 1
 575 700 l 1
 575 0 l 1
 425 0 l 1
 250 420 l 1
 232 464 l 1
 224 485 l 1
 220 485 l 1
 222 464 l 2
 223 451 225 435 225 420 c 2
 225 0 l 1
 85 0 l 1x7c
310 -240 m 1
 280 -206 l 1
 290 -199 299 -191 307 -182 c 0
 322 -167 335 -148 335 -125 c 1
 292 -125 265 -97 265 -65 c 0
 265 -28 293 0 325 0 c 0
 368 0 395 -28 395 -75 c 0xbc
 395 -134 373 -174 352 -201 c 0
 340 -217 326 -230 310 -240 c 1
EndSplineSet
EndChar

StartChar: ncommaaccent
Encoding: 326 326 247
Width: 575
Flags: MW
HStem: -216 21G<242 242> -135 125<275.5 297> 0 21G<70 70 70 210 370 370 370 510> 415 95<297.5 317.5> 480 20G<70 170 170 170>
VStem: 70 140<0 355 0 500> 227 130<-91 -61.5 -114.5 -56.5> 370 140<0 320 0 352.5>
LayerCount: 2
Fore
SplineSet
70 0 m 1xad
 70 500 l 1
 170 500 l 1
 180 440 l 1
 185 440 l 1xad
 194 453 206 464 219 475 c 0
 242 492 275 510 320 510 c 0
 441 510 510 441 510 320 c 2
 510 0 l 1
 370 0 l 1
 370 320 l 2
 370 385 340 415 295 415 c 0
 267 415 247 400 232 385 c 0
 224 376 217 366 210 355 c 1xb5
 210 0 l 1
 70 0 l 1xad
272 -250 m 1xef
 242 -216 l 1
 252 -209 261 -201 269 -192 c 0
 284 -177 297 -158 297 -135 c 1
 254 -135 227 -107 227 -75 c 0
 227 -38 255 -10 287 -10 c 0
 330 -10 357 -38 357 -85 c 0
 357 -144 335 -184 314 -211 c 0
 302 -227 288 -240 272 -250 c 1xef
EndSplineSet
EndChar

StartChar: Ncaron
Encoding: 327 327 248
Width: 660
Flags: MW
HStem: 0 21G<85 85 85 225 425 425 425 575> 680 20G<85 235 235 235 435 575 575 575> 756 134<170 280 170 380>
VStem: 85 140<0 420 0 700> 435 140<280 700 0 700>
LayerCount: 2
Fore
SplineSet
280 756 m 1
 170 890 l 1
 265 890 l 1
 330 820 l 1
 395 890 l 1
 490 890 l 1
 380 756 l 1
 280 756 l 1
85 0 m 1
 85 700 l 1
 235 700 l 1
 410 280 l 1
 428 236 l 1
 436 215 l 1
 440 215 l 1
 437 236 l 2
 435 248 435 265 435 280 c 2
 435 700 l 1
 575 700 l 1
 575 0 l 1
 425 0 l 1
 250 420 l 1
 232 464 l 1
 224 485 l 1
 220 485 l 1
 222 464 l 2
 223 451 225 435 225 420 c 2
 225 0 l 1
 85 0 l 1
EndSplineSet
EndChar

StartChar: ncaron
Encoding: 328 328 249
Width: 575
Flags: MW
HStem: 0 21G<70 70 70 210 370 370 370 510> 415 95<297.5 317.5> 480 20G<70 170 170 170> 566 134<127 237 127 337>
VStem: 70 140<0 355 0 500> 370 140<0 320 0 352.5>
LayerCount: 2
Fore
SplineSet
237 566 m 1xbc
 127 700 l 1
 222 700 l 1
 287 630 l 1
 352 700 l 1
 447 700 l 1
 337 566 l 1
 237 566 l 1xbc
70 0 m 1
 70 500 l 1
 170 500 l 1
 180 440 l 1
 185 440 l 1xbc
 194 453 206 464 219 475 c 0
 242 492 275 510 320 510 c 0
 441 510 510 441 510 320 c 2
 510 0 l 1
 370 0 l 1
 370 320 l 2
 370 385 340 415 295 415 c 0
 267 415 247 400 232 385 c 0
 224 376 217 366 210 355 c 1xdc
 210 0 l 1
 70 0 l 1
EndSplineSet
EndChar

StartChar: Omacron
Encoding: 332 332 250
Width: 630
Flags: MW
HStem: -10 90<282.5 347.5 282.5 395> 620 90<282.5 347.5> 770 90<170 460 170 460>
VStem: 170 290<770 860 770 860>
LayerCount: 2
Fore
SplineSet
170 770 m 1
 170 860 l 1
 460 860 l 1
 460 770 l 1
 170 770 l 1
315 -10 m 0
 155 -10 50 95 50 350 c 0
 50 605 155 710 315 710 c 0
 475 710 580 605 580 350 c 0
 580 95 475 -10 315 -10 c 0
315 80 m 0
 380 80 440 139 440 350 c 0
 440 561 380 620 315 620 c 0
 250 620 190 561 190 350 c 0
 190 139 250 80 315 80 c 0
EndSplineSet
EndChar

StartChar: omacron
Encoding: 333 333 251
Width: 540
Flags: MW
HStem: -10 90<244.5 295.5 244.5 342.5> 420 90<244.5 295.5> 570 90<125 415 125 415>
VStem: 125 290<570 660 570 660>
LayerCount: 2
Fore
SplineSet
125 570 m 1
 125 660 l 1
 415 660 l 1
 415 570 l 1
 125 570 l 1
270 -10 m 0
 125 -10 40 74 40 250 c 0
 40 426 125 510 270 510 c 0
 415 510 500 426 500 250 c 0
 500 74 415 -10 270 -10 c 0
270 80 m 0
 321 80 360 120 360 250 c 0
 360 380 321 420 270 420 c 0
 219 420 180 380 180 250 c 0
 180 120 219 80 270 80 c 0
EndSplineSet
EndChar

StartChar: Ohungarumlaut
Encoding: 336 336 252
Width: 630
Flags: MW
HStem: -10 90<282.5 347.5 282.5 395> 620 90<282.5 347.5> 750 150<202 357 247 267 402 422 247 357>
VStem: 50 140<244.5 455.5 244.5 477.5> 440 140<244.5 455.5>
LayerCount: 2
Fore
SplineSet
202 750 m 1
 247 900 l 1
 357 900 l 1
 267 750 l 1
 202 750 l 1
357 750 m 1
 402 900 l 1
 512 900 l 1
 422 750 l 1
 357 750 l 1
315 -10 m 0
 155 -10 50 95 50 350 c 0
 50 605 155 710 315 710 c 0
 475 710 580 605 580 350 c 0
 580 95 475 -10 315 -10 c 0
315 80 m 0
 380 80 440 139 440 350 c 0
 440 561 380 620 315 620 c 0
 250 620 190 561 190 350 c 0
 190 139 250 80 315 80 c 0
EndSplineSet
EndChar

StartChar: ohungarumlaut
Encoding: 337 337 253
Width: 540
Flags: MW
HStem: -10 90<244.5 295.5 244.5 342.5> 420 90<244.5 295.5> 550 150<147 302 192 212 347 367 192 302>
VStem: 40 140<185 315 185 338> 360 140<185 315>
LayerCount: 2
Fore
SplineSet
147 550 m 1
 192 700 l 1
 302 700 l 1
 212 550 l 1
 147 550 l 1
302 550 m 1
 347 700 l 1
 457 700 l 1
 367 550 l 1
 302 550 l 1
270 -10 m 0
 125 -10 40 74 40 250 c 0
 40 426 125 510 270 510 c 0
 415 510 500 426 500 250 c 0
 500 74 415 -10 270 -10 c 0
270 80 m 0
 321 80 360 120 360 250 c 0
 360 380 321 420 270 420 c 0
 219 420 180 380 180 250 c 0
 180 120 219 80 270 80 c 0
EndSplineSet
EndChar

StartChar: OE
Encoding: 338 338 254
Width: 835
Flags: MW
HStem: 0 90<264.5 400 370 400 540 810> 320 90<540 750 540 750> 610 90<309.5 810 370 400 540 810 540 540>
VStem: 50 140<250 450 250 470> 400 140<90 320 410 610>
LayerCount: 2
Fore
SplineSet
370 0 m 2
 159 0 50 110 50 350 c 0
 50 590 159 700 370 700 c 2
 810 700 l 1
 810 610 l 1
 540 610 l 1
 540 410 l 1
 750 410 l 1
 750 320 l 1
 540 320 l 1
 540 90 l 1
 810 90 l 1
 810 0 l 1
 370 0 l 2
370 90 m 2
 400 90 l 1
 400 610 l 1
 370 610 l 2
 249 610 190 550 190 350 c 0
 190 150 249 90 370 90 c 2
EndSplineSet
EndChar

StartChar: oe
Encoding: 339 339 255
Width: 845
Flags: MW
HStem: -10 90<244.5 295.5 244.5 305.5 585 640.5> 205 90<505 665 505 775 505 665> 420 90<244.5 295.5 565 605>
VStem: 40 140<185 315 185 338> 360 145<185 205 295 315> 665 140<235 337.5>
CounterMasks: 1 e0
LayerCount: 2
Fore
SplineSet
270 -10 m 0
 125 -10 40 74 40 250 c 0
 40 426 125 510 270 510 c 0
 330 510 390 485 430 440 c 1
 470 485 525 510 585 510 c 0
 720 510 805 425 805 260 c 2
 805 235 l 1
 775 205 l 1
 505 205 l 1
 505 122 545 80 625 80 c 0
 657 80 683 89 702 100 c 0
 713 106 722 113 730 120 c 1
 740 120 l 1
 785 40 l 1
 770 31 754 22 737 15 c 0
 706 2 666 -10 615 -10 c 0
 535 -10 470 15 430 60 c 1
 390 15 341 -10 270 -10 c 0
270 80 m 0
 321 80 360 120 360 250 c 0
 360 380 321 420 270 420 c 0
 219 420 180 380 180 250 c 0
 180 120 219 80 270 80 c 0
505 295 m 1
 665 295 l 1
 665 380 625 420 585 420 c 0
 545 420 505 380 505 295 c 1
EndSplineSet
EndChar

StartChar: Racute
Encoding: 340 340 256
Width: 600
Flags: MW
HStem: 0 21G<85 85 85 225 425 425 425 585> 250 90<225 275 275 280 225 275> 610 90<225 275 225 225> 750 150<235 415 280 315>
VStem: 85 140<0 250 340 610> 405 140<433 523>
LayerCount: 2
Fore
SplineSet
235 750 m 1
 280 900 l 1
 415 900 l 1
 315 750 l 1
 235 750 l 1
85 0 m 1
 85 700 l 1
 275 700 l 2
 464 700 545 620 545 475 c 0
 545 391 512 342 480 313 c 0
 461 296 439 283 415 275 c 1
 585 0 l 1
 425 0 l 1
 280 250 l 1
 225 250 l 1
 225 0 l 1
 85 0 l 1
225 340 m 1
 275 340 l 2
 366 340 405 379 405 475 c 0
 405 571 366 610 275 610 c 2
 225 610 l 1
 225 340 l 1
EndSplineSet
EndChar

StartChar: racute
Encoding: 341 341 257
Width: 395
Flags: MW
HStem: 0 21G<70 70 70 210> 410 100<297.5 303.5> 480 20G<70 170 170 170 395 395> 550 150<172 352 217 252>
VStem: 70 140<0 350 0 500>
LayerCount: 2
Fore
SplineSet
172 550 m 1xb8
 217 700 l 1
 352 700 l 1
 252 550 l 1
 172 550 l 1xb8
70 0 m 1
 70 500 l 1
 170 500 l 1
 180 440 l 1
 185 440 l 1xb8
 194 453 206 464 219 475 c 0
 242 492 275 510 320 510 c 0xd8
 337 510 356 508 371 505 c 0
 379 503 387 501 395 500 c 1
 375 400 l 1
 365 400 l 2xb8
 358 401 350 403 343 405 c 0
 330 408 312 410 295 410 c 0
 267 410 247 395 232 380 c 0
 224 371 217 361 210 350 c 1xd8
 210 0 l 1
 70 0 l 1
EndSplineSet
EndChar

StartChar: Rcommaaccent
Encoding: 342 342 258
Width: 590
Flags: MW
HStem: -125 125<280.5 302> 0 21G<85 85 85 225 276 313.5 425 425 425 585> 250 90<225 275 275 280 225 275> 610 90<225 275 225 225>
VStem: 85 140<0 250 340 610> 232 130<-81 -51.5 -104.5 -46.5> 405 140<433 523>
LayerCount: 2
Fore
SplineSet
85 0 m 1x7a
 85 700 l 1
 275 700 l 2
 464 700 545 620 545 475 c 0
 545 391 512 342 480 313 c 0
 461 296 439 283 415 275 c 1
 585 0 l 1
 425 0 l 1
 280 250 l 1
 225 250 l 1
 225 0 l 1
 85 0 l 1x7a
225 340 m 1
 275 340 l 2
 366 340 405 379 405 475 c 0
 405 571 366 610 275 610 c 2
 225 610 l 1
 225 340 l 1
277 -240 m 1xb6
 247 -206 l 1
 257 -199 266 -191 274 -182 c 0
 289 -167 302 -148 302 -125 c 1
 259 -125 232 -97 232 -65 c 0
 232 -28 260 0 292 0 c 0
 335 0 362 -28 362 -75 c 0
 362 -134 340 -174 319 -201 c 0
 307 -217 293 -230 277 -240 c 1xb6
EndSplineSet
EndChar

StartChar: rcommaaccent
Encoding: 343 343 259
Width: 395
Flags: MW
HStem: -164 125<123.5 145> 0 21G<70 70 70 210> 410 100<297.5 303.5> 480 20G<70 170 170 170 395 395>
VStem: 70 140<0 350 0 500> 75 130<-120 -90.5 -143.5 -85.5>
LayerCount: 2
Fore
SplineSet
70 0 m 1xd8
 70 500 l 1
 170 500 l 1
 180 440 l 1
 185 440 l 1xd8
 194 453 206 464 219 475 c 0
 242 492 275 510 320 510 c 0xe8
 337 510 356 508 371 505 c 0
 379 503 387 501 395 500 c 1
 375 400 l 1
 365 400 l 2xd8
 358 401 350 403 343 405 c 0
 330 408 312 410 295 410 c 0
 267 410 247 395 232 380 c 0
 224 371 217 361 210 350 c 1xe8
 210 0 l 1
 70 0 l 1xd8
120 -279 m 1xd4
 90 -245 l 1
 100 -238 109 -230 117 -221 c 0
 132 -206 145 -187 145 -164 c 1
 102 -164 75 -136 75 -104 c 0
 75 -67 103 -39 135 -39 c 0
 178 -39 205 -67 205 -114 c 0
 205 -173 183 -213 162 -240 c 0
 150 -256 136 -269 120 -279 c 1xd4
EndSplineSet
EndChar

StartChar: Rcaron
Encoding: 344 344 260
Width: 600
Flags: MW
HStem: 0 21G<85 85 85 225 425 425 425 585> 250 90<225 275 275 280 225 275> 610 90<225 275 225 225> 766 134<127 237 127 337>
VStem: 85 140<0 250 340 610> 405 140<433 523>
LayerCount: 2
Fore
SplineSet
237 766 m 1
 127 900 l 1
 222 900 l 1
 287 830 l 1
 352 900 l 1
 447 900 l 1
 337 766 l 1
 237 766 l 1
85 0 m 1
 85 700 l 1
 275 700 l 2
 464 700 545 620 545 475 c 0
 545 391 512 342 480 313 c 0
 461 296 439 283 415 275 c 1
 585 0 l 1
 425 0 l 1
 280 250 l 1
 225 250 l 1
 225 0 l 1
 85 0 l 1
225 340 m 1
 275 340 l 2
 366 340 405 379 405 475 c 0
 405 571 366 610 275 610 c 2
 225 610 l 1
 225 340 l 1
EndSplineSet
EndChar

StartChar: rcaron
Encoding: 345 345 261
Width: 405
Flags: MW
HStem: 0 21G<70 70 70 210> 410 100<297.5 303.5> 480 20G<70 170 170 170 395 395> 566 134<75 185 75 285>
VStem: 70 140<0 350 0 500>
LayerCount: 2
Fore
SplineSet
185 566 m 1xb8
 75 700 l 1
 170 700 l 1
 235 630 l 1
 300 700 l 1
 395 700 l 1
 285 566 l 1
 185 566 l 1xb8
70 0 m 1
 70 500 l 1
 170 500 l 1
 180 440 l 1
 185 440 l 1xb8
 194 453 206 464 219 475 c 0
 242 492 275 510 320 510 c 0xd8
 337 510 356 508 371 505 c 0
 379 503 387 501 395 500 c 1
 375 400 l 1
 365 400 l 2xb8
 358 401 350 403 343 405 c 0
 330 408 312 410 295 410 c 0
 267 410 247 395 232 380 c 0
 224 371 217 361 210 350 c 1xd8
 210 0 l 1
 70 0 l 1
EndSplineSet
EndChar

StartChar: Sacute
Encoding: 346 346 262
Width: 535
Flags: MW
HStem: -10 90<213.5 280 213.5 332> 620 90<255 308.5> 750 150<215 395 260 295>
VStem: 40 140<460.5 552.5 460.5 572.5> 360 140<150 249.5>
LayerCount: 2
Fore
SplineSet
215 750 m 1
 260 900 l 1
 395 900 l 1
 295 750 l 1
 215 750 l 1
250 -10 m 0
 177 -10 124 2 88 17 c 0
 67 25 49 34 35 45 c 1
 80 125 l 1
 90 125 l 1
 100 116 112 109 126 102 c 0
 150 91 187 80 240 80 c 0
 320 80 360 120 360 180 c 0
 360 319 40 295 40 520 c 0
 40 625 125 710 275 710 c 0
 343 710 393 697 428 682 c 0
 448 674 465 665 480 655 c 1
 435 575 l 1
 425 575 l 1
 416 583 404 590 391 597 c 0
 368 608 332 620 285 620 c 0
 225 620 180 575 180 530 c 0
 180 391 500 415 500 190 c 0
 500 75 414 -10 250 -10 c 0
EndSplineSet
EndChar

StartChar: sacute
Encoding: 347 347 263
Width: 485
Flags: MW
HStem: -10 90<205 255.5 198.5 312.5> 420 90<232 278 177.5 278.5> 550 150<177 357 222 257>
VStem: 40 140<328 382.5 328 402.5> 315 140<120.5 178.5>
LayerCount: 2
Fore
SplineSet
177 550 m 1
 222 700 l 1
 357 700 l 1
 257 550 l 1
 177 550 l 1
235 -10 m 0
 175 -10 123 2 87 15 c 0
 66 22 47 31 30 40 c 1
 75 120 l 1
 85 120 l 1
 96 113 108 106 121 100 c 0
 144 89 177 80 220 80 c 0
 291 80 315 105 315 136 c 0
 315 221 40 190 40 360 c 0
 40 445 105 510 250 510 c 0
 306 510 351 497 386 485 c 0
 406 478 424 469 440 460 c 1
 395 380 l 1
 385 380 l 1
 375 387 364 394 351 400 c 0
 328 411 297 420 260 420 c 0
 204 420 180 395 180 370 c 0
 180 286 455 316 455 146 c 0
 455 55 390 -10 235 -10 c 0
EndSplineSet
EndChar

StartChar: Scedilla
Encoding: 350 350 264
Width: 535
Flags: MW
HStem: -195 55<262.5 275 252.5 310.5> -80 55<215 318> -9 89<215 215> 620 90<255 308.5>
VStem: 40 140<460.5 552.5 460.5 572.5> 215 75<-25 -9 -9 -9> 300 85<-120 -100> 360 140<150 249.5>
LayerCount: 2
Fore
SplineSet
500 190 m 0xbd
 500 85 428 5 290 -8 c 1xbd
 290 -25 l 1xfd
 346 -25 385 -65 385 -110 c 0
 385 -155 346 -195 275 -195 c 0
 250 -195 229 -190 214 -185 c 0
 205 -182 197 -179 190 -175 c 1
 211 -125 l 1
 220 -125 l 2
 219 -125 240 -140 265 -140 c 0
 285 -140 300 -130 300 -110 c 0
 300 -90 285 -80 265 -80 c 2xfe
 215 -80 l 1xfd
 215 -9 l 1
 160 -6 118 5 88 17 c 0
 67 25 49 34 35 45 c 1
 80 125 l 1
 90 125 l 1
 100 116 112 109 126 102 c 0
 150 91 187 80 240 80 c 0
 320 80 360 120 360 180 c 0
 360 319 40 295 40 520 c 0
 40 625 125 710 275 710 c 0
 343 710 393 697 428 682 c 0
 448 674 465 665 480 655 c 1
 435 575 l 1
 425 575 l 1
 416 583 404 590 391 597 c 0
 368 608 332 620 285 620 c 0
 225 620 180 575 180 530 c 0
 180 391 500 415 500 190 c 0xbd
EndSplineSet
Substitution2: "'locl' Localized Forms in Latin lookup 3 subtable" Scommaaccent
Substitution2: "'locl' Localized Forms in Latin lookup 2 subtable" Scommaaccent
Substitution2: "'aalt' Access All Alternates lookup 0 subtable" Scommaaccent
EndChar

StartChar: scedilla
Encoding: 351 351 265
Width: 485
Flags: MW
HStem: -195 55<244.5 257 234.5 292.5> -80 55<197 300> -9 21G<272 272> -8 21G<197 197> -8 88<197 255.5> 420 90<232 278 177.5 278.5>
VStem: 40 140<328 382.5 328 402.5> 197 75<-25 -9 -25 -8 -25 -8> 282 85<-120 -100> 315 140<120.5 178.5>
LayerCount: 2
Fore
SplineSet
455 146 m 0x00
 455 63 400 1 272 -9 c 1xd540
 272 -25 l 1xd580
 328 -25 367 -65 367 -110 c 0
 367 -155 328 -195 257 -195 c 0
 232 -195 211 -190 196 -185 c 0
 187 -182 179 -179 172 -175 c 1
 193 -125 l 1
 202 -125 l 2
 201 -125 222 -140 247 -140 c 0
 267 -140 282 -130 282 -110 c 0
 282 -90 267 -80 247 -80 c 2xd540
 197 -80 l 1x9540
 197 -8 l 1x8f40
 153 -5 115 5 87 15 c 0
 66 22 47 31 30 40 c 1
 75 120 l 1
 85 120 l 1
 96 113 108 106 121 100 c 0
 144 89 177 80 220 80 c 0
 291 80 315 105 315 136 c 0xa740
 315 221 40 190 40 360 c 0
 40 445 105 510 250 510 c 0
 306 510 351 497 386 485 c 0
 406 478 424 469 440 460 c 1
 395 380 l 1
 385 380 l 1
 375 387 364 394 351 400 c 0
 328 411 297 420 260 420 c 0
 204 420 180 395 180 370 c 0
 180 286 455 316 455 146 c 0x00
EndSplineSet
Substitution2: "'locl' Localized Forms in Latin lookup 3 subtable" scommaaccent
Substitution2: "'locl' Localized Forms in Latin lookup 2 subtable" scommaaccent
Substitution2: "'aalt' Access All Alternates lookup 0 subtable" scommaaccent
EndChar

StartChar: Scaron
Encoding: 352 352 266
Width: 535
Flags: MW
HStem: -10 90<213.5 280 213.5 332> 620 90<255 308.5> 766 134<107 217 107 317>
VStem: 40 140<460.5 552.5 460.5 572.5> 360 140<150 249.5>
LayerCount: 2
Fore
SplineSet
217 766 m 1
 107 900 l 1
 202 900 l 1
 267 830 l 1
 332 900 l 1
 427 900 l 1
 317 766 l 1
 217 766 l 1
250 -10 m 0
 177 -10 124 2 88 17 c 0
 67 25 49 34 35 45 c 1
 80 125 l 1
 90 125 l 1
 100 116 112 109 126 102 c 0
 150 91 187 80 240 80 c 0
 320 80 360 120 360 180 c 0
 360 319 40 295 40 520 c 0
 40 625 125 710 275 710 c 0
 343 710 393 697 428 682 c 0
 448 674 465 665 480 655 c 1
 435 575 l 1
 425 575 l 1
 416 583 404 590 391 597 c 0
 368 608 332 620 285 620 c 0
 225 620 180 575 180 530 c 0
 180 391 500 415 500 190 c 0
 500 75 414 -10 250 -10 c 0
EndSplineSet
EndChar

StartChar: scaron
Encoding: 353 353 267
Width: 485
Flags: MW
HStem: -10 90<205 255.5 198.5 312.5> 420 90<232 278 177.5 278.5> 566 134<80 190 80 290>
VStem: 40 140<328 382.5 328 402.5> 315 140<120.5 178.5>
LayerCount: 2
Fore
SplineSet
190 566 m 1
 80 700 l 1
 175 700 l 1
 240 630 l 1
 305 700 l 1
 400 700 l 1
 290 566 l 1
 190 566 l 1
235 -10 m 0
 175 -10 123 2 87 15 c 0
 66 22 47 31 30 40 c 1
 75 120 l 1
 85 120 l 1
 96 113 108 106 121 100 c 0
 144 89 177 80 220 80 c 0
 291 80 315 105 315 136 c 0
 315 221 40 190 40 360 c 0
 40 445 105 510 250 510 c 0
 306 510 351 497 386 485 c 0
 406 478 424 469 440 460 c 1
 395 380 l 1
 385 380 l 1
 375 387 364 394 351 400 c 0
 328 411 297 420 260 420 c 0
 204 420 180 395 180 370 c 0
 180 286 455 316 455 146 c 0
 455 55 390 -10 235 -10 c 0
EndSplineSet
EndChar

StartChar: Tcaron
Encoding: 356 356 268
Width: 510
Flags: MW
HStem: 0 21G<185 185 185 325> 610 90<10 185 10 500 325 325 325 500> 766 134<95 205 95 305>
VStem: 185 140<0 610 0 610>
LayerCount: 2
Fore
SplineSet
205 766 m 1
 95 900 l 1
 190 900 l 1
 255 830 l 1
 320 900 l 1
 415 900 l 1
 305 766 l 1
 205 766 l 1
185 0 m 1
 185 610 l 1
 10 610 l 1
 10 700 l 1
 500 700 l 1
 500 610 l 1
 325 610 l 1
 325 0 l 1
 185 0 l 1
EndSplineSet
EndChar

StartChar: tcaron
Encoding: 357 357 269
Width: 510
Flags: MW
HStem: -10 90<259.5 285> 410 90<220 335 220 335> 495 125<418.5 440>
VStem: 80 140<160 410> 370 130<539 568.5 515.5 573.5>
LayerCount: 2
Fore
SplineSet
265 -10 m 0xd8
 149 -10 80 60 80 160 c 2
 80 410 l 1
 15 410 l 1
 15 470 l 1
 165 620 l 1
 220 620 l 1
 220 500 l 1
 335 500 l 1
 335 410 l 1
 220 410 l 1
 220 160 l 2
 220 104 244 80 275 80 c 0
 298 80 318 89 334 100 c 0
 343 106 352 113 360 120 c 1
 370 120 l 1
 415 40 l 1
 401 31 386 22 370 15 c 0
 342 2 305 -10 265 -10 c 0xd8
415 380 m 1
 385 414 l 1
 395 421 404 429 412 438 c 0
 427 453 440 472 440 495 c 1
 397 495 370 523 370 555 c 0
 370 592 398 620 430 620 c 0
 473 620 500 592 500 545 c 0xb8
 500 486 478 446 457 419 c 0
 445 403 431 390 415 380 c 1
EndSplineSet
EndChar

StartChar: Umacron
Encoding: 362 362 270
Width: 640
Flags: MW
HStem: -10 90<290 350 290 398> 680 20G<75 215 215 215 425 565 565 565> 760 90<175 465 175 465>
VStem: 75 140<230 700> 425 140<230 700>
LayerCount: 2
Fore
SplineSet
175 760 m 1
 175 850 l 1
 465 850 l 1
 465 760 l 1
 175 760 l 1
320 -10 m 0
 164 -10 75 79 75 230 c 2
 75 700 l 1
 215 700 l 1
 215 230 l 2
 215 125 260 80 320 80 c 0
 380 80 425 125 425 230 c 2
 425 700 l 1
 565 700 l 1
 565 230 l 2
 565 79 476 -10 320 -10 c 0
EndSplineSet
EndChar

StartChar: umacron
Encoding: 363 363 271
Width: 580
Flags: MW
HStem: -10 95<262.5 282.5> 0 21G<410 510 410 410> 480 20G<70 210 210 210 370 510 510 510> 561 90<145 435 145 435>
VStem: 70 140<180 500> 370 140<145 500 0 500>
LayerCount: 2
Fore
SplineSet
145 561 m 1x7c
 145 651 l 1
 435 651 l 1
 435 561 l 1
 145 561 l 1x7c
260 -10 m 0xbc
 139 -10 70 59 70 180 c 2
 70 500 l 1
 210 500 l 1
 210 180 l 2
 210 115 240 85 285 85 c 0
 312 85 333 100 348 115 c 0
 356 124 363 134 370 145 c 1xbc
 370 500 l 1
 510 500 l 1
 510 0 l 1
 410 0 l 1
 400 60 l 1
 395 60 l 1x7c
 385 47 374 35 361 25 c 0
 338 6 305 -10 260 -10 c 0xbc
EndSplineSet
EndChar

StartChar: Uring
Encoding: 366 366 272
Width: 640
Flags: MW
HStem: -10 90<290 350 290 398> 680 20G<75 215 215 215 425 565 565 565> 735 65<310 330 310 352.5> 880 65<310 330>
VStem: 210 75<827.5 852.5 827.5 870> 355 75<827.5 852.5>
LayerCount: 2
Fore
SplineSet
320 735 m 0
 255 735 210 780 210 840 c 0
 210 900 255 945 320 945 c 0
 385 945 430 900 430 840 c 0
 430 780 385 735 320 735 c 0
320 800 m 0
 340 800 355 815 355 840 c 0
 355 865 340 880 320 880 c 0
 300 880 285 865 285 840 c 0
 285 815 300 800 320 800 c 0
320 -10 m 0
 164 -10 75 79 75 230 c 2
 75 700 l 1
 215 700 l 1
 215 230 l 2
 215 125 260 80 320 80 c 0
 380 80 425 125 425 230 c 2
 425 700 l 1
 565 700 l 1
 565 230 l 2
 565 79 476 -10 320 -10 c 0
EndSplineSet
EndChar

StartChar: uring
Encoding: 367 367 273
Width: 590
Flags: MW
HStem: -10 95<262.5 282.5> 0 21G<410 510 410 410> 480 20G<70 210 210 210 370 510 510 510> 545 65<285 305 285 327.5> 690 65<285 305>
VStem: 70 140<180 500> 185 75<637.5 662.5 637.5 680> 330 75<637.5 662.5> 370 140<145 500 0 500>
LayerCount: 2
Fore
SplineSet
295 545 m 0x00
 230 545 185 590 185 650 c 0
 185 710 230 755 295 755 c 0
 360 755 405 710 405 650 c 0
 405 590 360 545 295 545 c 0x00
295 610 m 0
 315 610 330 625 330 650 c 0
 330 675 315 690 295 690 c 0
 275 690 260 675 260 650 c 0
 260 625 275 610 295 610 c 0
260 -10 m 0x7b
 139 -10 70 59 70 180 c 2
 70 500 l 1
 210 500 l 1
 210 180 l 2
 210 115 240 85 285 85 c 0
 312 85 333 100 348 115 c 0
 356 124 363 134 370 145 c 1x7c80
 370 500 l 1
 510 500 l 1
 510 0 l 1
 410 0 l 1
 400 60 l 1
 395 60 l 1xbc80
 385 47 374 35 361 25 c 0
 338 6 305 -10 260 -10 c 0x7b
EndSplineSet
EndChar

StartChar: Uhungarumlaut
Encoding: 368 368 274
Width: 640
Flags: MW
HStem: -10 90<290 350 290 398> 680 20G<75 215 215 215 425 565 565 565> 740 150<197 352 242 262 397 417 242 352>
VStem: 75 140<230 700> 425 140<230 700>
LayerCount: 2
Fore
SplineSet
197 740 m 1
 242 890 l 1
 352 890 l 1
 262 740 l 1
 197 740 l 1
352 740 m 1
 397 890 l 1
 507 890 l 1
 417 740 l 1
 352 740 l 1
320 -10 m 0
 164 -10 75 79 75 230 c 2
 75 700 l 1
 215 700 l 1
 215 230 l 2
 215 125 260 80 320 80 c 0
 380 80 425 125 425 230 c 2
 425 700 l 1
 565 700 l 1
 565 230 l 2
 565 79 476 -10 320 -10 c 0
EndSplineSet
EndChar

StartChar: uhungarumlaut
Encoding: 369 369 275
Width: 580
Flags: MW
HStem: -10 95<262.5 282.5> 0 21G<410 510 410 410> 480 20G<70 210 210 210 370 510 510 510> 541 150<167 322 212 232 367 387 212 322>
VStem: 70 140<180 500> 370 140<145 500 0 500>
LayerCount: 2
Fore
SplineSet
167 541 m 1x7c
 212 691 l 1
 322 691 l 1
 232 541 l 1
 167 541 l 1x7c
322 541 m 1
 367 691 l 1
 477 691 l 1
 387 541 l 1
 322 541 l 1
260 -10 m 0xbc
 139 -10 70 59 70 180 c 2
 70 500 l 1
 210 500 l 1
 210 180 l 2
 210 115 240 85 285 85 c 0
 312 85 333 100 348 115 c 0
 356 124 363 134 370 145 c 1xbc
 370 500 l 1
 510 500 l 1
 510 0 l 1
 410 0 l 1
 400 60 l 1
 395 60 l 1x7c
 385 47 374 35 361 25 c 0
 338 6 305 -10 260 -10 c 0xbc
EndSplineSet
EndChar

StartChar: Uogonek
Encoding: 370 370 276
Width: 640
Flags: MW
HStem: -185 70<342.5 347.5> -7 21G 680 20G<75 215 215 215 425 565 565 565>
VStem: 75 140<230 700> 225 90<-90 -81.5> 406 9<-160 -93> 425 140<230 700>
LayerCount: 2
Fore
SplineSet
425 700 m 1
 565 700 l 1
 565 230 l 2
 565 98 497 13 374 -6 c 0
 366 -11 357 -17 350 -23 c 0
 331 -38 315 -57 315 -80 c 0
 315 -100 330 -115 355 -115 c 0
 385 -115 407 -93 406 -93 c 2
 415 -93 l 1
 415 -160 l 1
 409 -165 402 -170 394 -173 c 0
 379 -180 360 -185 335 -185 c 0
 259 -185 225 -151 225 -95 c 0
 225 -68 238 -44 253 -27 c 0
 259 -20 265 -13 272 -7 c 1
 146 10 75 95 75 230 c 2
 75 700 l 1
 215 700 l 1
 215 230 l 2
 215 125 260 80 320 80 c 0
 380 80 425 125 425 230 c 2
 425 700 l 1
EndSplineSet
EndChar

StartChar: uogonek
Encoding: 371 371 277
Width: 585
Flags: MW
HStem: -185 70<472.5 477.5> -10 95<262.5 282.5> 0 21G<410 411 410 410 510 515 515 515> 480 20G<70 210 210 210 370 510 510 510>
VStem: 70 140<180 500> 355 90<-90 -81.5> 370 140<145 500 0 500> 536 9<-160 -93>
LayerCount: 2
Fore
SplineSet
536 -93 m 2x00
 545 -93 l 1
 545 -160 l 1
 539 -165 532 -170 524 -173 c 0
 509 -180 490 -185 465 -185 c 0
 389 -185 355 -151 355 -95 c 0
 355 -68 368 -44 383 -27 c 0
 391 -17 400 -8 411 0 c 1
 410 0 l 1
 400 60 l 1
 395 60 l 1xdc
 385 47 374 35 361 25 c 0xda
 338 6 305 -10 260 -10 c 0
 139 -10 70 59 70 180 c 2
 70 500 l 1
 210 500 l 1
 210 180 l 2
 210 115 240 85 285 85 c 0
 312 85 333 100 348 115 c 0
 356 124 363 134 370 145 c 1
 370 500 l 1
 510 500 l 1
 510 0 l 1
 515 0 l 1xbd
 502 -7 490 -15 480 -23 c 0
 461 -38 445 -57 445 -80 c 0
 445 -100 460 -115 485 -115 c 0
 515 -115 537 -93 536 -93 c 2x00
EndSplineSet
EndChar

StartChar: Ydieresis
Encoding: 376 376 278
Width: 570
Flags: MW
HStem: 0 21G<215 215 215 355> 680 20G<0 145 145 145 433 570 570 570> 770 140<166.5 203.5 361.5 398.5>
VStem: 115 140<821.5 858.5> 310 140<821.5 858.5>
LayerCount: 2
Fore
SplineSet
185 770 m 0
 148 770 115 803 115 840 c 0
 115 877 148 910 185 910 c 0
 222 910 255 877 255 840 c 0
 255 803 222 770 185 770 c 0
380 770 m 0
 343 770 310 803 310 840 c 0
 310 877 343 910 380 910 c 0
 417 910 450 877 450 840 c 0
 450 803 417 770 380 770 c 0
215 0 m 1
 215 230 l 1
 0 700 l 1
 145 700 l 1
 276 385 l 1
 286 355 l 1
 289 340 l 1
 293 340 l 1
 296 355 l 2
 299 364 302 374 306 385 c 2
 433 700 l 1
 570 700 l 1
 355 230 l 1
 355 0 l 1
 215 0 l 1
EndSplineSet
EndChar

StartChar: Zacute
Encoding: 377 377 279
Width: 525
Flags: MW
HStem: 0 90<195 490 195 490> 610 90<35 325 35 485> 750 150<200 380 245 280>
VStem: 35 455<0 90 0 95 0 95>
LayerCount: 2
Fore
SplineSet
200 750 m 1
 245 900 l 1
 380 900 l 1
 280 750 l 1
 200 750 l 1
35 0 m 1
 35 95 l 1
 325 610 l 1
 35 610 l 1
 35 700 l 1
 485 700 l 1
 485 605 l 1
 195 90 l 1
 490 90 l 1
 490 0 l 1
 35 0 l 1
EndSplineSet
EndChar

StartChar: zacute
Encoding: 378 378 280
Width: 470
Flags: MW
HStem: 0 90<175 435 175 435> 410 90<35 280 35 430> 550 150<167 347 212 247>
VStem: 35 400<0 90 0 95 0 95 0 500>
LayerCount: 2
Fore
SplineSet
167 550 m 1
 212 700 l 1
 347 700 l 1
 247 550 l 1
 167 550 l 1
35 0 m 1
 35 95 l 1
 280 410 l 1
 35 410 l 1
 35 500 l 1
 430 500 l 1
 430 405 l 1
 175 90 l 1
 435 90 l 1
 435 0 l 1
 35 0 l 1
EndSplineSet
EndChar

StartChar: Zdotaccent
Encoding: 379 379 281
Width: 525
Flags: MW
HStem: 0 90<195 490 195 490> 610 90<35 325 35 485> 760 150<242 282>
VStem: 187 150<815 855>
LayerCount: 2
Fore
SplineSet
262 760 m 0
 222 760 187 795 187 835 c 0
 187 875 222 910 262 910 c 0
 302 910 337 875 337 835 c 0
 337 795 302 760 262 760 c 0
35 0 m 1
 35 95 l 1
 325 610 l 1
 35 610 l 1
 35 700 l 1
 485 700 l 1
 485 605 l 1
 195 90 l 1
 490 90 l 1
 490 0 l 1
 35 0 l 1
EndSplineSet
EndChar

StartChar: zdotaccent
Encoding: 380 380 282
Width: 470
Flags: MW
HStem: 0 90<175 435 175 435> 410 90<35 280 35 430> 560 150<210 250>
VStem: 155 150<615 655>
LayerCount: 2
Fore
SplineSet
230 560 m 0
 190 560 155 595 155 635 c 0
 155 675 190 710 230 710 c 0
 270 710 305 675 305 635 c 0
 305 595 270 560 230 560 c 0
35 0 m 1
 35 95 l 1
 280 410 l 1
 35 410 l 1
 35 500 l 1
 430 500 l 1
 430 405 l 1
 175 90 l 1
 435 90 l 1
 435 0 l 1
 35 0 l 1
EndSplineSet
EndChar

StartChar: Zcaron
Encoding: 381 381 283
Width: 525
Flags: MW
HStem: 0 90<195 490 195 490> 610 90<35 325 35 485> 766 134<102 212 102 312>
VStem: 35 455<0 90 0 95 0 95>
LayerCount: 2
Fore
SplineSet
212 766 m 1
 102 900 l 1
 197 900 l 1
 262 830 l 1
 327 900 l 1
 422 900 l 1
 312 766 l 1
 212 766 l 1
35 0 m 1
 35 95 l 1
 325 610 l 1
 35 610 l 1
 35 700 l 1
 485 700 l 1
 485 605 l 1
 195 90 l 1
 490 90 l 1
 490 0 l 1
 35 0 l 1
EndSplineSet
EndChar

StartChar: zcaron
Encoding: 382 382 284
Width: 470
Flags: MW
HStem: 0 90<175 435 175 435> 410 90<35 280 35 430> 566 134<70 180 70 280>
VStem: 35 400<0 90 0 95 0 95 0 500>
LayerCount: 2
Fore
SplineSet
180 566 m 1
 70 700 l 1
 165 700 l 1
 230 630 l 1
 295 700 l 1
 390 700 l 1
 280 566 l 1
 180 566 l 1
35 0 m 1
 35 95 l 1
 280 410 l 1
 35 410 l 1
 35 500 l 1
 430 500 l 1
 430 405 l 1
 175 90 l 1
 435 90 l 1
 435 0 l 1
 35 0 l 1
EndSplineSet
EndChar

StartChar: florin
Encoding: 402 402 285
Width: 427
Flags: MW
HStem: -200 90<-2.5 25 -2.5 69.5> 410 90<68 115 60 123 263 380> 620 90<321.5 350.5>
VStem: -100 582 125 140
LayerCount: 2
Fore
SplineSet
7 -200 m 0xf0
 -24 -200 -50 -193 -69 -185 c 0
 -80 -181 -91 -176 -100 -170 c 1
 -58 -85 l 1
 -48 -85 l 1
 -44 -90 -39 -95 -33 -98 c 0
 -24 -105 -10 -110 5 -110 c 0
 45 -110 72 -86 77 -30 c 2
 115 410 l 1
 60 410 l 1
 68 500 l 1
 123 500 l 1
 127 540 l 2
 138 640 212 710 337 710 c 0
 377 710 412 697 439 685 c 0
 454 678 469 669 482 660 c 1
 430 580 l 1
 420 580 l 1
 413 587 405 594 396 600 c 0
 381 611 362 620 339 620 c 0
 304 620 271 591 267 540 c 2
 263 500 l 1xe8
 388 500 l 1
 380 410 l 1
 255 410 l 1
 217 -30 l 2
 208 -130 132 -200 7 -200 c 0xf0
EndSplineSet
EndChar

StartChar: Scommaaccent
Encoding: 536 536 286
Width: 535
Flags: MW
HStem: -169 125<268.5 290> -10 90<213.5 280 213.5 332> 620 90<255 308.5>
VStem: 40 140<460.5 552.5 460.5 572.5> 220 130<-125 -95.5 -148.5 -90.5> 360 140<150 249.5>
LayerCount: 2
Fore
SplineSet
250 -10 m 0
 177 -10 124 2 88 17 c 0
 67 25 49 34 35 45 c 1
 80 125 l 1
 90 125 l 1
 100 116 112 109 126 102 c 0
 150 91 187 80 240 80 c 0
 320 80 360 120 360 180 c 0
 360 319 40 295 40 520 c 0
 40 625 125 710 275 710 c 0
 343 710 393 697 428 682 c 0
 448 674 465 665 480 655 c 1
 435 575 l 1
 425 575 l 1
 416 583 404 590 391 597 c 0
 368 608 332 620 285 620 c 0
 225 620 180 575 180 530 c 0
 180 391 500 415 500 190 c 0
 500 75 414 -10 250 -10 c 0
265 -284 m 1
 235 -250 l 1
 245 -243 254 -235 262 -226 c 0
 277 -211 290 -192 290 -169 c 1
 247 -169 220 -141 220 -109 c 0
 220 -72 248 -44 280 -44 c 0
 323 -44 350 -72 350 -119 c 0
 350 -178 328 -218 307 -245 c 0
 295 -261 281 -274 265 -284 c 1
EndSplineSet
EndChar

StartChar: scommaaccent
Encoding: 537 537 287
Width: 475
Flags: MW
HStem: -169 125<228.5 250> -10 90<205 255.5 198.5 312.5> 420 90<232 278 177.5 278.5>
VStem: 40 140<328 382.5> 180 130<-125 -95.5 -148.5 -90.5> 315 140<120.5 178.5>
LayerCount: 2
Fore
SplineSet
235 -10 m 0x74
 175 -10 123 2 87 15 c 0
 66 22 47 31 30 40 c 1
 75 120 l 1
 85 120 l 1
 96 113 108 106 121 100 c 0
 144 89 177 80 220 80 c 0
 291 80 315 105 315 136 c 0
 315 221 40 190 40 360 c 0
 40 445 105 510 250 510 c 0
 306 510 351 497 386 485 c 0
 406 478 424 469 440 460 c 1
 395 380 l 1
 385 380 l 1
 375 387 364 394 351 400 c 0
 328 411 297 420 260 420 c 0
 204 420 180 395 180 370 c 0
 180 286 455 316 455 146 c 0
 455 55 390 -10 235 -10 c 0x74
225 -284 m 1xe8
 195 -250 l 1
 205 -243 214 -235 222 -226 c 0
 237 -211 250 -192 250 -169 c 1
 207 -169 180 -141 180 -109 c 0
 180 -72 208 -44 240 -44 c 0
 283 -44 310 -72 310 -119 c 0
 310 -178 288 -218 267 -245 c 0
 255 -261 241 -274 225 -284 c 1xe8
EndSplineSet
EndChar

StartChar: uni021A
Encoding: 538 538 288
Width: 510
Flags: MW
HStem: -174 125<238.5 260> 0 21G<185 185 185 325> 610 90<10 185 10 500 325 325 325 500>
VStem: 185 140<0 610 0 610> 190 130<-130 -100.5 -153.5 -95.5>
LayerCount: 2
Fore
SplineSet
185 0 m 1xf0
 185 610 l 1
 10 610 l 1
 10 700 l 1
 500 700 l 1
 500 610 l 1
 325 610 l 1
 325 0 l 1
 185 0 l 1xf0
235 -289 m 1xe8
 205 -255 l 1
 215 -248 224 -240 232 -231 c 0
 247 -216 260 -197 260 -174 c 1
 217 -174 190 -146 190 -114 c 0
 190 -77 218 -49 250 -49 c 0
 293 -49 320 -77 320 -124 c 0
 320 -183 298 -223 277 -250 c 0
 265 -266 251 -279 235 -289 c 1xe8
EndSplineSet
EndChar

StartChar: uni021B
Encoding: 539 539 289
Width: 415
Flags: MW
HStem: -174 125<233.5 255> -10 90<259.5 285> 410 90<220 335 220 335>
VStem: 80 140<160 410> 185 130<-130 -100.5 -153.5 -95.5>
LayerCount: 2
Fore
SplineSet
265 -10 m 0xf0
 149 -10 80 60 80 160 c 2
 80 410 l 1
 15 410 l 1
 15 470 l 1
 165 620 l 1
 220 620 l 1
 220 500 l 1
 335 500 l 1
 335 410 l 1
 220 410 l 1
 220 160 l 2
 220 104 244 80 275 80 c 0
 298 80 318 89 334 100 c 0
 343 106 352 113 360 120 c 1
 370 120 l 1
 415 40 l 1
 401 31 386 22 370 15 c 0
 342 2 305 -10 265 -10 c 0xf0
230 -289 m 1xe8
 200 -255 l 1
 210 -248 219 -240 227 -231 c 0
 242 -216 255 -197 255 -174 c 1
 212 -174 185 -146 185 -114 c 0
 185 -77 213 -49 245 -49 c 0
 288 -49 315 -77 315 -124 c 0
 315 -183 293 -223 272 -250 c 0
 260 -266 246 -279 230 -289 c 1xe8
EndSplineSet
EndChar

StartChar: uni02BC
Encoding: 700 700 290
Width: 110
Flags: MW
HStem: 635 125<28.5 50>
VStem: -20 130<679 708.5 655.5 713.5>
LayerCount: 2
Fore
SplineSet
25 520 m 1
 -5 554 l 1
 5 561 14 569 22 578 c 0
 37 593 50 612 50 635 c 1
 7 635 -20 663 -20 695 c 0
 -20 732 8 760 40 760 c 0
 83 760 110 732 110 685 c 0
 110 626 88 586 67 559 c 0
 55 543 41 530 25 520 c 1
EndSplineSet
EndChar

StartChar: circumflex
Encoding: 710 710 291
Width: 340
Flags: MW
HStem: 560 134<10 220 10 220 120 235 120 330>
VStem: 10 320<560 560>
LayerCount: 2
Fore
SplineSet
10 560 m 1
 120 694 l 1
 220 694 l 1
 330 560 l 1
 235 560 l 1
 170 630 l 1
 105 560 l 1
 10 560 l 1
EndSplineSet
EndChar

StartChar: caron
Encoding: 711 711 292
Width: 340
Flags: MW
HStem: 566 134<10 120 10 220>
VStem: 10 320<700 700>
LayerCount: 2
Fore
SplineSet
120 566 m 1
 10 700 l 1
 105 700 l 1
 170 630 l 1
 235 700 l 1
 330 700 l 1
 220 566 l 1
 120 566 l 1
EndSplineSet
EndChar

StartChar: breve
Encoding: 728 728 293
Width: 340
Flags: MW
HStem: 560 70<154.5 185.5 154.5 225.5> 560 140<114.5 120 220 225.5>
VStem: 10 110<674.5 700 674.5 700> 220 110<674.5 700>
LayerCount: 2
Fore
SplineSet
170 560 m 0x70
 59 560 10 609 10 700 c 1
 120 700 l 1x70
 120 649 139 630 170 630 c 0xb0
 201 630 220 649 220 700 c 1
 330 700 l 1
 330 609 281 560 170 560 c 0x70
EndSplineSet
EndChar

StartChar: dotaccent
Encoding: 729 729 294
Width: 170
Flags: MW
HStem: 560 150<65 105>
VStem: 10 150<615 655>
LayerCount: 2
Fore
SplineSet
85 560 m 0
 45 560 10 595 10 635 c 0
 10 675 45 710 85 710 c 0
 125 710 160 675 160 635 c 0
 160 595 125 560 85 560 c 0
EndSplineSet
EndChar

StartChar: ring
Encoding: 730 730 295
Width: 240
Flags: MW
HStem: 545 65<110 130 110 152.5> 690 65<110 130>
VStem: 10 75<637.5 662.5 637.5 680> 155 75<637.5 662.5>
LayerCount: 2
Fore
SplineSet
120 545 m 0
 55 545 10 590 10 650 c 0
 10 710 55 755 120 755 c 0
 185 755 230 710 230 650 c 0
 230 590 185 545 120 545 c 0
120 610 m 0
 140 610 155 625 155 650 c 0
 155 675 140 690 120 690 c 0
 100 690 85 675 85 650 c 0
 85 625 100 610 120 610 c 0
EndSplineSet
EndChar

StartChar: ogonek
Encoding: 731 731 296
Width: 210
Flags: MW
HStem: -185 70<127.5 132.5> -93 93<66 200 66 200>
VStem: 10 90<-90 -81.5> 191 9<-160 -93>
LayerCount: 2
Fore
SplineSet
120 -185 m 0
 44 -185 10 -151 10 -95 c 0
 10 -68 23 -44 38 -27 c 0
 46 -17 55 -8 66 0 c 1
 170 0 l 1
 157 -7 145 -15 135 -23 c 0
 116 -38 100 -57 100 -80 c 0
 100 -100 115 -115 140 -115 c 0
 170 -115 192 -93 191 -93 c 2
 200 -93 l 1
 200 -160 l 1
 194 -165 187 -170 179 -173 c 0
 164 -180 145 -185 120 -185 c 0
EndSplineSet
EndChar

StartChar: tilde
Encoding: 732 732 297
Width: 330
Flags: MW
HStem: 585 90<197.5 215 197.5 250.5> 630 90<115 132.5>
VStem: 10 310<620 685>
LayerCount: 2
Fore
SplineSet
264 715 m 1x00
 320 685 l 1
 315 634 276 585 225 585 c 0x60
 170 585 150 630 115 630 c 0
 90 629 75 591 75 590 c 2
 66 590 l 1
 10 620 l 1
 15 671 54 720 105 720 c 0xa0
 160 720 180 675 215 675 c 0
 239 674 256 714 255 715 c 2
 264 715 l 1x00
EndSplineSet
EndChar

StartChar: hungarumlaut
Encoding: 733 733 298
Width: 330
Flags: MW
HStem: 550 150<10 165 55 75 210 230 55 165>
VStem: 10 310<550 700>
LayerCount: 2
Fore
SplineSet
10 550 m 1
 55 700 l 1
 165 700 l 1
 75 550 l 1
 10 550 l 1
165 550 m 1
 210 700 l 1
 320 700 l 1
 230 550 l 1
 165 550 l 1
EndSplineSet
EndChar

StartChar: gravecomb
Encoding: 768 768 299
Width: 0
Flags: MW
HStem: 550 150<-90 -90 -90 -55 -190 -10>
VStem: -190 180<550 700>
LayerCount: 2
Fore
SplineSet
-90 550 m 1
 -190 700 l 1
 -55 700 l 1
 -10 550 l 1
 -90 550 l 1
EndSplineSet
EndChar

StartChar: acutecomb
Encoding: 769 769 300
Width: 0
Flags: MW
HStem: 550 150<-190 -10 -145 -110>
VStem: -190 180<550 700>
LayerCount: 2
Fore
SplineSet
-190 550 m 1
 -145 700 l 1
 -10 700 l 1
 -110 550 l 1
 -190 550 l 1
EndSplineSet
EndChar

StartChar: uni0302
Encoding: 770 770 301
Width: 0
Flags: MW
HStem: 560 134<-330 -120 -330 -120 -220 -105 -220 -10>
VStem: -330 320<560 560>
LayerCount: 2
Fore
SplineSet
-330 560 m 1
 -220 694 l 1
 -120 694 l 1
 -10 560 l 1
 -105 560 l 1
 -170 630 l 1
 -235 560 l 1
 -330 560 l 1
EndSplineSet
EndChar

StartChar: tildecomb
Encoding: 771 771 302
Width: 0
Flags: MW
HStem: 585 90<-132.5 -115 -132.5 -79.5> 630 90<-215 -197.5>
VStem: -320 310<620 685>
LayerCount: 2
Fore
SplineSet
-66 715 m 1x00
 -10 685 l 1
 -15 634 -54 585 -105 585 c 0x60
 -160 585 -180 630 -215 630 c 0
 -240 629 -255 591 -255 590 c 2
 -264 590 l 1
 -320 620 l 1
 -315 671 -276 720 -225 720 c 0xa0
 -170 720 -150 675 -115 675 c 0
 -91 674 -74 714 -75 715 c 2
 -66 715 l 1x00
EndSplineSet
EndChar

StartChar: uni0304
Encoding: 772 772 303
Width: 0
Flags: MW
HStem: 570 90<-300 -10 -300 -10>
VStem: -300 290<570 660 570 660>
LayerCount: 2
Fore
SplineSet
-300 570 m 1
 -300 660 l 1
 -10 660 l 1
 -10 570 l 1
 -300 570 l 1
EndSplineSet
EndChar

StartChar: uni0306
Encoding: 774 774 304
Width: 0
Flags: MW
HStem: 560 70<-185.5 -154.5 -185.5 -114.5> 560 140<-225.5 -220 -120 -114.5>
VStem: -330 110<674.5 700 674.5 700> -120 110<674.5 700>
LayerCount: 2
Fore
SplineSet
-170 560 m 0x70
 -281 560 -330 609 -330 700 c 1
 -220 700 l 1x70
 -220 649 -201 630 -170 630 c 0xb0
 -139 630 -120 649 -120 700 c 1
 -10 700 l 1
 -10 609 -59 560 -170 560 c 0x70
EndSplineSet
EndChar

StartChar: uni0307
Encoding: 775 775 305
Width: 0
Flags: MW
HStem: 560 150<-105 -65>
VStem: -160 150<615 655>
LayerCount: 2
Fore
SplineSet
-85 560 m 0
 -125 560 -160 595 -160 635 c 0
 -160 675 -125 710 -85 710 c 0
 -45 710 -10 675 -10 635 c 0
 -10 595 -45 560 -85 560 c 0
EndSplineSet
EndChar

StartChar: uni0308
Encoding: 776 776 306
Width: 0
Flags: MW
HStem: 570 140<-293.5 -256.5 -98.5 -61.5>
VStem: -345 140<621.5 658.5> -150 140<621.5 658.5>
LayerCount: 2
Fore
SplineSet
-275 570 m 0
 -312 570 -345 603 -345 640 c 0
 -345 677 -312 710 -275 710 c 0
 -238 710 -205 677 -205 640 c 0
 -205 603 -238 570 -275 570 c 0
-80 570 m 0
 -117 570 -150 603 -150 640 c 0
 -150 677 -117 710 -80 710 c 0
 -43 710 -10 677 -10 640 c 0
 -10 603 -43 570 -80 570 c 0
EndSplineSet
EndChar

StartChar: uni030A
Encoding: 778 778 307
Width: 0
Flags: MW
HStem: 545 65<-130 -110 -130 -87.5> 690 65<-130 -110>
VStem: -230 75<637.5 662.5 637.5 680> -85 75<637.5 662.5>
LayerCount: 2
Fore
SplineSet
-120 545 m 0
 -185 545 -230 590 -230 650 c 0
 -230 710 -185 755 -120 755 c 0
 -55 755 -10 710 -10 650 c 0
 -10 590 -55 545 -120 545 c 0
-120 610 m 0
 -100 610 -85 625 -85 650 c 0
 -85 675 -100 690 -120 690 c 0
 -140 690 -155 675 -155 650 c 0
 -155 625 -140 610 -120 610 c 0
EndSplineSet
EndChar

StartChar: uni030B
Encoding: 779 779 308
Width: 0
Flags: MW
HStem: 550 150<-320 -165 -275 -255 -120 -100 -275 -165>
VStem: -320 310<550 700>
LayerCount: 2
Fore
SplineSet
-320 550 m 1
 -275 700 l 1
 -165 700 l 1
 -255 550 l 1
 -320 550 l 1
-165 550 m 1
 -120 700 l 1
 -10 700 l 1
 -100 550 l 1
 -165 550 l 1
EndSplineSet
EndChar

StartChar: uni030C
Encoding: 780 780 309
Width: 0
Flags: MW
HStem: 566 134<-330 -220 -330 -120>
VStem: -330 320<700 700>
LayerCount: 2
Fore
SplineSet
-220 566 m 1
 -330 700 l 1
 -235 700 l 1
 -170 630 l 1
 -105 700 l 1
 -10 700 l 1
 -120 566 l 1
 -220 566 l 1
EndSplineSet
EndChar

StartChar: uni0326
Encoding: 806 806 310
Width: 0
Flags: MW
HStem: -216 21G<-125 -125> -135 125<-91.5 -70>
VStem: -140 130<-91 -61.5 -114.5 -56.5>
LayerCount: 2
Fore
SplineSet
-95 -250 m 1
 -125 -216 l 1
 -115 -209 -106 -201 -98 -192 c 0
 -83 -177 -70 -158 -70 -135 c 1
 -113 -135 -140 -107 -140 -75 c 0
 -140 -38 -112 -10 -80 -10 c 0
 -37 -10 -10 -38 -10 -85 c 0
 -10 -144 -32 -184 -53 -211 c 0
 -65 -227 -79 -240 -95 -250 c 1
EndSplineSet
EndChar

StartChar: uni0327
Encoding: 807 807 311
Width: 0
Flags: MW
HStem: -195 55<-132.5 -120 -142.5 -84.5> -80 100<-180 -130 -180 -105>
VStem: -180 75<-25 20 -25 20 -25 20> -95 85<-120 -100>
LayerCount: 2
Fore
SplineSet
-120 -195 m 0
 -145 -195 -166 -190 -181 -185 c 0
 -190 -182 -198 -179 -205 -175 c 1
 -184 -125 l 1
 -175 -125 l 2
 -176 -125 -155 -140 -130 -140 c 0
 -110 -140 -95 -130 -95 -110 c 0
 -95 -90 -110 -80 -130 -80 c 2
 -180 -80 l 1
 -180 20 l 1
 -105 20 l 1
 -105 -25 l 1
 -49 -25 -10 -65 -10 -110 c 0
 -10 -155 -49 -195 -120 -195 c 0
EndSplineSet
EndChar

StartChar: uni0328
Encoding: 808 808 312
Width: 0
Flags: MW
HStem: -185 70<-82.5 -77.5> -93 93<-144 -10 -144 -10>
VStem: -200 90<-90 -81.5> -19 9<-160 -93>
LayerCount: 2
Fore
SplineSet
-90 -185 m 0
 -166 -185 -200 -151 -200 -95 c 0
 -200 -68 -187 -44 -172 -27 c 0
 -164 -17 -155 -8 -144 0 c 1
 -40 0 l 1
 -53 -7 -65 -15 -75 -23 c 0
 -94 -38 -110 -57 -110 -80 c 0
 -110 -100 -95 -115 -70 -115 c 0
 -40 -115 -18 -93 -19 -93 c 2
 -10 -93 l 1
 -10 -160 l 1
 -16 -165 -23 -170 -31 -173 c 0
 -46 -180 -65 -185 -90 -185 c 0
EndSplineSet
EndChar

StartChar: uni0335
Encoding: 821 821 313
Width: 0
Flags: MW
HStem: 290 90<-420 -100 -420 -100>
VStem: -420 320<290 380 290 380>
LayerCount: 2
Fore
SplineSet
-420 290 m 1
 -420 380 l 1
 -100 380 l 1
 -100 290 l 1
 -420 290 l 1
EndSplineSet
EndChar

StartChar: uni0400
Encoding: 1024 1024 314
Width: 530
Flags: MW
HStem: 0 90<225 505 225 505> 320 90<225 445 225 445> 610 90<225 505 225 225> 750 150<273 273 273 308 173 353>
VStem: 85 140<90 320 410 610>
LayerCount: 2
Fore
SplineSet
273 750 m 1
 173 900 l 1
 308 900 l 1
 353 750 l 1
 273 750 l 1
85 0 m 1
 85 700 l 1
 505 700 l 1
 505 610 l 1
 225 610 l 1
 225 410 l 1
 445 410 l 1
 445 320 l 1
 225 320 l 1
 225 90 l 1
 505 90 l 1
 505 0 l 1
 85 0 l 1
EndSplineSet
EndChar

StartChar: uni0401
Encoding: 1025 1025 315
Width: 530
Flags: MW
HStem: 0 90<225 505 225 505> 320 90<225 445 225 445> 610 90<225 505 225 225> 770 140<196.5 233.5 391.5 428.5>
VStem: 145 140<821.5 858.5> 340 140<821.5 858.5>
LayerCount: 2
Fore
SplineSet
215 770 m 0
 178 770 145 803 145 840 c 0
 145 877 178 910 215 910 c 0
 252 910 285 877 285 840 c 0
 285 803 252 770 215 770 c 0
410 770 m 0
 373 770 340 803 340 840 c 0
 340 877 373 910 410 910 c 0
 447 910 480 877 480 840 c 0
 480 803 447 770 410 770 c 0
85 0 m 1
 85 700 l 1
 505 700 l 1
 505 610 l 1
 225 610 l 1
 225 410 l 1
 445 410 l 1
 445 320 l 1
 225 320 l 1
 225 90 l 1
 505 90 l 1
 505 0 l 1
 85 0 l 1
EndSplineSet
EndChar

StartChar: uni0402
Encoding: 1026 1026 316
Width: 670
Flags: MW
HStem: -30 90<422.5 440.5 418 493> -10 21G<350 350> 0 21G<130 270 130 130> 370 90<372.5 403.5> 610 90<0 130 0 440 270 270 270 440>
VStem: 130 140<0 355 0 445 445 610> 480 140<140 255 90 293.5>
LayerCount: 2
Fore
SplineSet
435 -30 m 0x00
 410 -30 389 -25 374 -20 c 0x5e
 365 -17 357 -14 350 -10 c 1
 365 70 l 1
 375 70 l 2x9e
 379 68 384 66 389 65 c 0
 399 62 411 60 425 60 c 0
 456 60 480 84 480 140 c 2x3e
 480 255 l 2
 480 332 442 370 365 370 c 0
 337 370 314 366 297 362 c 2
 270 355 l 1
 270 0 l 1
 130 0 l 1x9e
 130 610 l 1
 0 610 l 1
 0 700 l 1
 440 700 l 1
 440 610 l 1
 270 610 l 1
 270 445 l 1
 281 447 292 449 304 452 c 0
 325 456 355 460 390 460 c 0
 541 460 620 380 620 255 c 2
 620 140 l 2
 620 40 551 -30 435 -30 c 0x00
EndSplineSet
EndChar

StartChar: uni0403
Encoding: 1027 1027 317
Width: 515
Flags: MW
HStem: 0 21G<85 85 85 225> 610 90<225 505 225 225> 750 150<268 448 313 348>
VStem: 85 140<0 610 0 700 0 700>
LayerCount: 2
Fore
SplineSet
268 750 m 1
 313 900 l 1
 448 900 l 1
 348 750 l 1
 268 750 l 1
85 0 m 1
 85 700 l 1
 505 700 l 1
 505 610 l 1
 225 610 l 1
 225 0 l 1
 85 0 l 1
EndSplineSet
EndChar

StartChar: uni0404
Encoding: 1028 1028 318
Width: 535
Flags: MW
HStem: -10 90<297.5 358.5 297.5 358.5> 310 90<190 415 190 415> 620 90<292.5 348.5>
VStem: 50 140<310 310 310 400 310 477.5>
LayerCount: 2
Fore
SplineSet
330 -10 m 0
 154 -10 50 95 50 350 c 0
 50 605 155 710 320 710 c 0
 377 710 424 697 456 682 c 0
 475 674 491 665 505 655 c 1
 460 575 l 1
 450 575 l 1
 441 583 430 590 418 597 c 0
 397 608 367 620 330 620 c 0
 255 620 201 570 190 400 c 1
 415 400 l 1
 415 310 l 1
 190 310 l 1
 201 130 255 80 340 80 c 0
 377 80 407 91 428 102 c 0
 440 109 451 116 460 125 c 1
 470 125 l 1
 515 45 l 1
 501 34 485 25 466 17 c 0
 434 2 387 -10 330 -10 c 0
EndSplineSet
EndChar

StartChar: uni0405
Encoding: 1029 1029 319
Width: 535
Flags: MW
HStem: -10 90<213.5 280 213.5 332> 620 90<255 308.5>
VStem: 40 140<460.5 552.5 460.5 572.5> 360 140<150 249.5>
LayerCount: 2
Fore
SplineSet
250 -10 m 0
 177 -10 124 2 88 17 c 0
 67 25 49 34 35 45 c 1
 80 125 l 1
 90 125 l 1
 100 116 112 109 126 102 c 0
 150 91 187 80 240 80 c 0
 320 80 360 120 360 180 c 0
 360 319 40 295 40 520 c 0
 40 625 125 710 275 710 c 0
 343 710 393 697 428 682 c 0
 448 674 465 665 480 655 c 1
 435 575 l 1
 425 575 l 1
 416 583 404 590 391 597 c 0
 368 608 332 620 285 620 c 0
 225 620 180 575 180 530 c 0
 180 391 500 415 500 190 c 0
 500 75 414 -10 250 -10 c 0
EndSplineSet
EndChar

StartChar: uni0406
Encoding: 1030 1030 320
Width: 310
Flags: MW
HStem: 0 21G<85 85 85 225> 680 20G<85 225 225 225>
VStem: 85 140<0 700 0 700>
LayerCount: 2
Fore
SplineSet
85 0 m 1
 85 700 l 1
 225 700 l 1
 225 0 l 1
 85 0 l 1
EndSplineSet
EndChar

StartChar: uni0407
Encoding: 1031 1031 321
Width: 310
Flags: MW
HStem: 0 21G<85 85 85 225> 680 20G<85 225 225 225> 770 140<38.5 75.5 233.5 270.5>
VStem: -13 140<821.5 858.5> 182 140<821.5 858.5>
LayerCount: 2
Fore
SplineSet
57 770 m 0
 20 770 -13 803 -13 840 c 0
 -13 877 20 910 57 910 c 0
 94 910 127 877 127 840 c 0
 127 803 94 770 57 770 c 0
252 770 m 0
 215 770 182 803 182 840 c 0
 182 877 215 910 252 910 c 0
 289 910 322 877 322 840 c 0
 322 803 289 770 252 770 c 0
85 0 m 1
 85 700 l 1
 225 700 l 1
 225 0 l 1
 85 0 l 1
EndSplineSet
EndChar

StartChar: uni0408
Encoding: 1032 1032 322
Width: 450
Flags: MW
HStem: -10 90<130 170 128.5 222.5> 680 20G<235 375 375 375>
VStem: 235 140<190 700>
LayerCount: 2
Fore
SplineSet
150 -10 m 0
 110 -10 72 1 45 12 c 0
 28 19 13 26 0 35 c 1
 40 120 l 1
 50 120 l 1
 59 113 68 106 78 100 c 0
 95 89 117 80 140 80 c 0
 200 80 235 114 235 190 c 2
 235 700 l 1
 375 700 l 1
 375 190 l 2
 375 70 295 -10 150 -10 c 0
EndSplineSet
EndChar

StartChar: uni0409
Encoding: 1033 1033 323
Width: 910
Flags: MW
HStem: -10 90<48 125> 0 90<550 620 550 620> 360 90<550 620 550 620> 610 90<260 410 260 260>
VStem: 410 140<90 90 90 360 450 610 610 610> 750 140<177 273>
LayerCount: 2
Fore
SplineSet
75 -10 m 0x00
 56 -10 40 -7 27 -3 c 2
 5 5 l 1
 15 85 l 1
 25 85 l 1
 34 82 l 2
 41 81 46 80 50 80 c 0
 74 80 92 100 95 160 c 2x7c
 125 700 l 1
 550 700 l 1
 550 450 l 1
 620 450 l 2
 809 450 890 370 890 225 c 0
 890 80 809 0 620 0 c 2
 410 0 l 1xbc
 410 610 l 1
 260 610 l 1
 235 160 l 2
 228 49 175 -10 75 -10 c 0x00
550 90 m 1xbc
 620 90 l 2
 711 90 750 129 750 225 c 0
 750 321 711 360 620 360 c 2
 550 360 l 1
 550 90 l 1xbc
EndSplineSet
EndChar

StartChar: uni040A
Encoding: 1034 1034 324
Width: 920
Flags: MW
HStem: 0 90<560 630 560 630> 340 90<225 420 225 420 560 630> 680 20G<85 225 225 225 420 560 560 560>
VStem: 85 140<0 340 430 700> 420 140<90 90 90 340 430 700> 760 140<172.5 257.5>
LayerCount: 2
Fore
SplineSet
85 0 m 1
 85 700 l 1
 225 700 l 1
 225 430 l 1
 420 430 l 1
 420 700 l 1
 560 700 l 1
 560 430 l 1
 630 430 l 2
 819 430 900 350 900 215 c 0
 900 80 819 0 630 0 c 2
 420 0 l 1
 420 340 l 1
 225 340 l 1
 225 0 l 1
 85 0 l 1
560 90 m 1
 630 90 l 2
 721 90 760 130 760 215 c 0
 760 300 721 340 630 340 c 2
 560 340 l 1
 560 90 l 1
EndSplineSet
EndChar

StartChar: uni040B
Encoding: 1035 1035 325
Width: 670
Flags: MW
HStem: 0 21G<130 130 130 270 480 480 480 620> 370 90<372.5 403.5> 610 90<0 130 0 440 270 270 270 440>
VStem: 130 140<0 355 445 610> 480 140<0 255 0 293.5>
LayerCount: 2
Fore
SplineSet
130 0 m 1
 130 610 l 1
 0 610 l 1
 0 700 l 1
 440 700 l 1
 440 610 l 1
 270 610 l 1
 270 445 l 1
 281 447 292 449 304 452 c 0
 325 456 355 460 390 460 c 0
 541 460 620 380 620 255 c 2
 620 0 l 1
 480 0 l 1
 480 255 l 2
 480 332 442 370 365 370 c 0
 337 370 314 366 297 362 c 2
 270 355 l 1
 270 0 l 1
 130 0 l 1
EndSplineSet
EndChar

StartChar: uni040C
Encoding: 1036 1036 326
Width: 615
Flags: MW
HStem: -10 21G<469.5 518.5> -10 90<469.5 557.5> 0 21G<85 225 85 85> 315 90<225 255 255 270 225 255> 620 90<454.5 542.5> 680 20G<85 225 225 225> 690 20G<454.5 502.5> 750 150<258 438 303 338>
VStem: 85 140<0 315 0 405 405 700>
LayerCount: 2
Fore
SplineSet
258 750 m 1x3380
 303 900 l 1
 438 900 l 1
 338 750 l 1
 258 750 l 1x3380
505 -10 m 0x9380
 434 -10 392 34 380 90 c 2x9380
 345 250 l 2
 334 295 315 315 270 315 c 2
 225 315 l 1
 225 0 l 1
 85 0 l 1
 85 700 l 1
 225 700 l 1x3580
 225 405 l 1
 255 405 l 2
 306 405 324 424 335 475 c 2
 365 610 l 2
 377 666 419 710 490 710 c 0
 515 710 536 706 551 702 c 2
 575 695 l 1
 565 615 l 1
 560 615 l 2
 559 616 557 616 554 617 c 0
 550 618 545 620 540 620 c 0
 521 620 510 608 505 585 c 2
 480 470 l 2
 469 423 444 398 420 383 c 0
 406 374 391 368 375 365 c 1
 393 362 410 355 425 346 c 0
 452 330 479 302 490 255 c 2
 520 115 l 2
 525 92 537 80 556 80 c 0
 559 80 564 81 569 82 c 2
 575 85 l 1
 580 85 l 1
 590 5 l 1x5980
 568 -3 l 2
 553 -7 532 -10 505 -10 c 0x9380
EndSplineSet
EndChar

StartChar: uni040D
Encoding: 1037 1037 327
Width: 660
Flags: MW
HStem: 0 21G<85 85 85 220 435 435 435 575> 680 20G<85 225 225 225 440 575 575 575> 750 150<290 290 290 325 190 370>
VStem: 85 140<297.5 305 305 700> 435 140<0 395 395 402.5>
LayerCount: 2
Fore
SplineSet
290 750 m 1
 190 900 l 1
 325 900 l 1
 370 750 l 1
 290 750 l 1
85 0 m 1
 85 700 l 1
 225 700 l 1
 225 305 l 2
 225 290 223 274 222 261 c 2
 220 239 l 1
 224 239 l 1
 226 246 228 254 231 261 c 0
 236 274 242 290 250 305 c 2
 440 700 l 1
 575 700 l 1
 575 0 l 1
 435 0 l 1
 435 395 l 2
 435 410 436 426 437 439 c 2
 440 461 l 1
 436 461 l 1
 434 454 432 446 429 439 c 0
 424 426 417 410 410 395 c 2
 220 0 l 1
 85 0 l 1
EndSplineSet
EndChar

StartChar: uni040E
Encoding: 1038 1038 328
Width: 575
Flags: MW
HStem: -15 90<173.5 197.5 170.5 242.5> 680 20G<10 155 155 155 420 565 565 565> 750 140<232.5 238 338 343.5>
VStem: 128 110<864.5 890 864.5 890> 338 110<864.5 890>
LayerCount: 2
Fore
SplineSet
288 750 m 0
 177 750 128 799 128 890 c 1
 238 890 l 1
 238 839 257 820 288 820 c 0
 319 820 338 839 338 890 c 1
 448 890 l 1
 448 799 399 750 288 750 c 0
190 -15 m 0
 157 -15 129 -8 108 0 c 0
 96 4 85 9 75 15 c 1
 110 100 l 1
 120 100 l 1
 125 95 130 90 137 87 c 0
 148 80 161 75 180 75 c 0
 215 75 239 100 250 135 c 2
 265 185 l 1
 224 185 l 1
 10 700 l 1
 155 700 l 1
 285 365 l 2
 292 346 296 329 299 314 c 0
 301 306 302 298 303 290 c 1
 307 290 l 1
 307 298 308 306 309 314 c 0
 312 329 313 346 320 365 c 2
 420 700 l 1
 565 700 l 1
 385 135 l 2
 358 50 295 -15 190 -15 c 0
EndSplineSet
EndChar

StartChar: uni040F
Encoding: 1039 1039 329
Width: 660
Flags: MW
HStem: 0 90<225 265 395 395 395 435 225 575> 680 20G<85 225 225 225 435 575 575 575>
VStem: 85 140<90 700 90 700 90 700> 272 115 434 140
CounterMasks: 1 38
LayerCount: 2
Fore
SplineSet
280 -150 m 1
 265 0 l 1
 85 0 l 1
 85 700 l 1
 225 700 l 1
 225 90 l 1
 435 90 l 1
 435 700 l 1
 575 700 l 1
 575 0 l 1
 395 0 l 1
 380 -150 l 1
 280 -150 l 1
EndSplineSet
EndChar

